<svg version="1.1" xmlns="http://www.w3.org/2000/svg" xmlns:xlink="http://www.w3.org/1999/xlink" width="652" height="373" viewBox="0,0,652,373"><g transform="translate(5.5,5.5)"><g data-paper-data="{&quot;isPaintingLayer&quot;:true}" fill-rule="nonzero" stroke-linecap="butt" stroke-linejoin="miter" stroke-miterlimit="10" stroke-dasharray="" stroke-dashoffset="0" style="mix-blend-mode: normal"><path d="M-4.5,366.5v-371h650v371z" fill="#000000" stroke="#000000" stroke-width="2"/><text transform="translate(256.95006,186) scale(0.5,0.5)" font-size="40" xml:space="preserve" fill="#ffffff" fill-rule="nonzero" stroke="none" stroke-width="1" stroke-linecap="butt" stroke-linejoin="miter" stroke-miterlimit="10" stroke-dasharray="" stroke-dashoffset="0" font-family="Sans Serif" font-weight="normal" text-anchor="start" style="mix-blend-mode: normal"><tspan x="0" dy="0">by the shovel</tspan></text><g fill="#ffffff" stroke="none" stroke-width="0.5"><path d="M329.50334,345.74391c0,0.36343 -0.30253,0.42434 -0.40393,0.43455c-1.21955,0.80307 -2.85199,1.01484 -4.31171,1.32356c-0.67525,0.97063 -1.64375,1.57847 -2.46381,2.40258c-0.60665,0.42665 -1.3911,1.06281 -2.15996,1.14627c-0.66953,0.07267 -1.37422,-0.15016 -2.00327,-0.32427c-0.75597,-0.20925 -0.8615,-0.12692 -1.45272,-0.53728c-0.53482,-0.37121 -1.01552,-0.90166 -1.47272,-1.35874c-0.57563,-0.57547 -1.33957,-1.15511 -1.57881,-1.97134c-0.17298,-0.59016 -0.11903,-1.21328 0.02949,-1.81634c-0.69091,-0.67813 -1.36757,-1.37149 -2.09843,-2.01042c0,0 -0.32858,-0.28751 -0.04107,-0.61609c0.28751,-0.32858 0.61609,-0.04107 0.61609,-0.04107c0.63171,0.55322 1.22349,1.1464 1.81895,1.73516c0.05234,-0.14028 0.10619,-0.27762 0.15953,-0.41121c0.60121,-1.59533 0.59286,-3.42448 2.08279,-4.54064c0.43893,-0.32881 0.69147,-0.46254 1.22704,-0.64299c0.13179,-0.04441 1.32606,-0.32778 1.41991,-0.33575c0.99764,-0.08474 1.94176,0.3967 2.8913,0.58415c0,0 0.26733,0.05347 0.33725,0.28714l0.14792,-0.0105c0.2541,0.2544 0.498,0.51936 0.73105,0.79317c0.24895,0.44437 0.56259,0.93099 0.73443,1.41362c0.09815,0.27566 0.10974,0.58283 0.2421,0.8438c0.44561,0.8786 1.38817,1.74392 1.55813,2.73611c0.08932,0.52145 -0.00344,1.10584 -0.19313,1.63878c0.35861,-0.08391 0.71726,-0.16753 1.07467,-0.25525c0.81496,-0.20002 1.62415,-0.32252 2.31371,-0.82229l0.3586,-0.08133c0,0 0.43661,0 0.43661,0.43661zM322.80215,348.10377c-0.32186,0.20032 -0.62972,0.47326 -1.00383,0.53462c-0.28311,0.04644 -1.33566,-0.03442 -1.54994,-0.04703c-0.6552,0.0002 -1.29116,0.0408 -1.93473,-0.11953c-1.41798,-0.35327 -2.42798,-1.42227 -3.47507,-2.34567c-0.13543,-0.11943 -0.26906,-0.24071 -0.40135,-0.36338c-0.02946,0.28968 -0.0175,0.57859 0.05909,0.85752c0.17373,0.63278 0.91681,1.15312 1.35637,1.59281c0.4256,0.42572 0.86639,0.90745 1.35762,1.26195c0.42888,0.3095 0.60549,0.25115 1.18502,0.41043c0.51143,0.14056 1.10124,0.3482 1.64866,0.30043c0.5822,-0.0508 1.25983,-0.63085 1.71867,-0.95029c0.4885,-0.4862 1.03977,-0.88948 1.53646,-1.35377c-0.18169,0.06142 -0.35553,0.13387 -0.49697,0.2219zM315.4107,345.46648c0.22641,0.19988 0.45092,0.41007 0.67914,0.61852c-0.03905,-0.09654 -0.03905,-0.18386 -0.03905,-0.18386l0.00151,-0.45557c0.0817,-0.97692 0.28783,-1.6993 0.66104,-2.59512c0,0 0.16793,-0.40302 0.57095,-0.2351c0.40302,0.16793 0.2351,0.57095 0.2351,0.57095c-0.3424,0.82166 -0.52255,1.43638 -0.59689,2.33179l0.00151,0.38305c0,0 0,0.43661 -0.43661,0.43661c-0.05076,0 -0.09561,-0.0059 -0.13525,-0.01633c0.64413,0.57062 1.33329,1.09244 2.18764,1.30698c0.45663,0.11466 0.92642,0.10306 1.39394,0.09422c-0.10913,-0.12823 -0.10913,-0.30147 -0.10913,-0.30147l0.00179,-0.22254c-0.06412,-0.7288 -0.34757,-1.36174 -0.4693,-2.07553c-0.13873,-0.81345 -0.00422,-1.80546 -0.00422,-2.62884c0,0 0,-0.43661 0.43661,-0.43661c0.43661,0 0.43661,0.43661 0.43661,0.43661c0,0.77334 -0.14007,1.74458 -0.00422,2.50772c0.12891,0.72417 0.40472,1.37488 0.47415,2.11758l0.00179,0.3016c0,0 0,0.18781 -0.12317,0.31707c0.36298,0.02276 0.94206,0.05503 1.08463,0.0381c0.26077,-0.03096 0.44837,-0.2735 0.67341,-0.40883c0.49932,-0.30025 0.9803,-0.40379 1.54312,-0.55029c0.12362,-0.03218 0.24745,-0.0636 0.37144,-0.09446c0.28067,-0.50098 0.49588,-1.17733 0.40644,-1.73956c-0.03597,-0.22609 -0.25166,-0.51273 -0.35995,-0.68512c-0.37167,-0.59168 -0.81227,-1.1939 -1.12193,-1.82016c-0.14475,-0.29275 -0.17434,-0.62996 -0.28204,-0.93827c-0.14354,-0.41093 -0.41937,-0.82705 -0.62833,-1.20707c-0.13189,-0.15249 -0.26839,-0.30104 -0.40808,-0.44652c-0.12648,0.02736 -0.29991,0.01365 -0.43542,-0.18962c-0.03041,-0.04561 -0.05127,-0.08931 -0.0645,-0.13086c-0.7882,-0.20176 -1.60747,-0.58762 -2.42725,-0.51422c-0.02237,0.002 -1.17206,0.28377 -1.20079,0.29322c-2.14966,0.7074 -2.0999,2.87499 -2.77018,4.67018c-0.09645,0.24069 -0.19945,0.49817 -0.28893,0.76449c0.24389,0.23353 0.49108,0.46358 0.74443,0.68725z"/><path d="M313.25504,341.28873c0,0.43661 -0.43661,0.43661 -0.43661,0.43661l-0.30437,-0.0104c-1.1832,-0.26365 -3.44785,-0.68294 -2.66092,-2.4424c0.29943,-0.66948 0.95402,-0.92469 1.52438,-1.28671c0.19103,-0.12125 0.35771,-0.28125 0.55801,-0.38649c0.11993,-0.06302 0.24494,-0.12382 0.37473,-0.16458c-0.09947,-0.0898 -0.19629,-0.2038 -0.25615,-0.28121c-0.41328,-0.5345 -0.68203,-0.9879 -0.9252,-1.6167c0.02308,-0.29461 -0.00828,-0.59865 0.06924,-0.88381c0.1641,-0.60368 0.74449,-1.0317 1.20683,-1.37026c1.02889,-0.75343 2.10125,-1.54492 3.42917,-0.93281c0.78291,0.36089 1.47708,1.00054 2.16564,1.5081c0.70321,0.51835 1.39932,1.04971 2.10407,1.57793c0,0 0.34929,0.26196 0.08732,0.61125c-0.26196,0.34929 -0.61125,0.08732 -0.61125,0.08732c-1.20825,-0.90681 -2.36999,-1.84007 -3.64239,-2.65467c-0.45599,-0.29193 -0.78907,-0.5648 -1.37192,-0.46089c-0.64461,0.11493 -1.14017,0.60417 -1.64822,0.97084c-0.57278,0.4134 -0.87165,0.6928 -0.92531,1.4149c0.23955,0.56594 0.61481,1.06038 1.01631,1.52606c0.1686,0.19555 0.52782,0.32664 0.50872,0.58413c-0.02179,0.2937 -0.36215,0.47495 -0.60014,0.64843c-0.16581,0.12086 -0.39651,0.11566 -0.57839,0.21062c-0.17753,0.09269 -0.32144,0.23957 -0.49027,0.3473c-0.44918,0.28663 -2.08654,1.21703 -0.7954,1.6952c0.22162,0.08208 0.45567,0.1256 0.68272,0.19118c0.32052,0.09257 0.64215,0.1827 0.96787,0.25487l0.11494,-0.0104c0,0 0.43661,0 0.43661,0.43661z"/><path d="M309.30183,352.57911c1.08105,-0.79797 0.45826,-2.46003 0.21975,-3.48991c-0.01414,-0.00574 -0.02855,-0.01226 -0.04324,-0.0196c-0.39051,-0.19526 -0.19526,-0.58577 -0.19526,-0.58577l0.11331,-0.07578c-0.01801,-0.18194 -0.03603,-0.36389 -0.05404,-0.54583c-0.00078,-0.93766 0.09067,-1.84859 -0.41083,-2.68119c-0.17481,-0.29021 -0.33812,-0.6116 -0.62155,-0.8182c-0.10234,-0.0746 -0.23265,-0.10813 -0.34265,-0.16984c0.00235,0.11472 -0.00736,0.23073 -0.0061,0.34541c0.00426,0.38856 0.01512,0.77769 0.0505,1.16466c0.09599,1.04979 0.20598,1.97647 -0.18655,2.98095c0,0 -0.07744,0.19361 -0.25909,0.25971l0.10528,0.26346c0.45244,1.2065 1.0758,2.5368 0.66357,3.7789c0.34272,-0.08793 0.69781,-0.20833 0.96689,-0.40696zM310.36187,348.84644c0.32077,1.44771 0.9008,3.30783 -0.52617,4.42367c-0.46218,0.36141 -1.13287,0.53134 -1.69222,0.65726l-0.37456,0.00844c-0.18746,0.20099 -0.40276,0.37928 -0.61797,0.54851c-0.68242,0.42401 -0.66959,0.58127 -1.60879,0.31864c-0.57149,-0.15981 -0.90666,-0.87633 -1.20839,-1.31757c-0.66481,-0.97219 -1.27322,-1.8241 -1.00894,-3.06751c0.32409,-1.52476 2.43945,-2.07679 3.77998,-2.31187c0.29848,-0.9841 0.02807,-2.005 -0.01647,-3.02673c-0.00546,-0.1253 0.00353,-1.24887 0.01136,-1.27017c0.10488,-0.28536 0.24194,-0.64358 0.52934,-0.74273c0.24366,-0.08406 0.47456,0.20209 0.70542,0.31674c0.43726,0.21715 0.63363,0.33037 0.94592,0.72483c0.90303,1.14068 0.93535,2.32513 0.93412,3.71076c0.01693,0.16748 0.03386,0.33496 0.05079,0.50244l-0.08902,0.24479c0.1455,0.09997 0.18562,0.28049 0.18562,0.28049zM306.72035,349.07145c-1.29642,0.29289 -3.08878,0.98052 -2.55447,2.51215c0.1637,0.46926 0.61171,1.0043 0.8889,1.4092c0.28673,0.41882 0.59369,1.19976 1.25761,1.0297c0.1325,-0.03394 0.21865,-0.16437 0.32798,-0.24656c0.37817,-0.29001 0.72042,-0.5894 0.89377,-1.05437c0.37167,-0.99697 -0.33547,-2.288 -0.68039,-3.20779l-0.1014,-0.25322c0,0 -0.03324,-0.0831 -0.032,-0.1891z"/><path d="M320.16468,353.41569c-0.49027,-0.27033 -1.02563,-0.68799 -1.52379,-0.79995c-0.28238,-0.06346 -0.57835,-0.02464 -0.86728,-0.0414c-0.43204,-0.02507 -0.93709,-0.012 -1.34978,0.13275c-1.27479,0.44713 -1.71542,2.38028 -2.15883,3.4888c-0.54393,1.08996 -0.99635,2.34844 -1.17241,3.55737c-0.05108,0.35075 -0.088,0.70382 -0.15244,1.05236c-0.0124,0.06709 -0.06295,0.14595 -0.02564,0.20307c0.09725,0.1489 0.95832,0.07519 1.05704,0.07519c1.24563,0 2.28064,0.68682 3.51173,0.68138c0.76604,0.00049 1.65177,-0.0639 2.33874,-0.45893c0.60862,-0.34997 0.73505,-1.414 0.79056,-2.02643c0.06537,-0.72129 -0.00176,-1.4908 -0.00176,-2.21459c0,-1.17751 0.02596,-2.24573 -0.39151,-3.35843zM321.01087,353.20177l0.02604,0.1985c0.45592,1.21638 0.44711,2.38026 0.44711,3.66503c0,0.97099 0.06837,1.95606 -0.11257,2.91222c-0.14729,0.77832 -0.35582,1.6195 -1.09036,2.07161c-0.80357,0.49459 -1.89064,0.58881 -2.79782,0.58935c-0.99497,-0.00373 -1.72111,-0.42673 -2.66194,-0.63913c-0.45553,-0.10284 -0.9379,-0.01402 -1.39807,-0.04292c-0.39763,-0.02497 -0.9614,-0.07212 -1.22503,-0.44828c-0.29043,-0.41441 -0.08038,-0.89099 -0.02153,-1.30826c0.21255,-1.50714 0.60713,-2.99537 1.29173,-4.36172c0.56219,-1.40547 1.07305,-3.39029 2.66325,-3.95397c0.52157,-0.18488 1.14267,-0.21092 1.69023,-0.18174c0.34005,0.01813 0.68867,-0.01677 1.01962,0.06343c0.65424,0.15853 1.29331,0.69529 1.9115,0.9694c0,0 0.32538,0.14461 0.25786,0.46648z"/></g></g></g></svg>