<svg version="1.1" xmlns="http://www.w3.org/2000/svg" xmlns:xlink="http://www.w3.org/1999/xlink" width="560.76695" height="293.20763" viewBox="0,0,560.76695,293.20763"><g transform="translate(-64,-37.79237)"><g data-paper-data="{&quot;isPaintingLayer&quot;:true}" fill-rule="nonzero" stroke-linecap="butt" stroke-linejoin="miter" stroke-miterlimit="10" stroke-dasharray="" stroke-dashoffset="0" style="mix-blend-mode: normal"><path d="M82.5,328.5c0,0 -16,-59.66492 -16,-88c0,-22.09859 16,-68 16,-68h507v156z" fill="#dadada" stroke="#000000" stroke-width="5"/><text transform="translate(124.24178,214.04432) scale(0.69669,0.69669)" font-size="40" xml:space="preserve" fill="#000000" fill-rule="nonzero" stroke="none" stroke-width="1" stroke-linecap="butt" stroke-linejoin="miter" stroke-miterlimit="10" stroke-dasharray="" stroke-dashoffset="0" font-family="Sans Serif" font-weight="normal" text-anchor="start" style="mix-blend-mode: normal"><tspan x="0" dy="0">WHO ASKED</tspan></text><text transform="translate(468.41409,102.68144) scale(0.20352,0.20352)" font-size="40" xml:space="preserve" fill="#000000" fill-rule="nonzero" stroke="none" stroke-width="1" stroke-linecap="butt" stroke-linejoin="miter" stroke-miterlimit="10" stroke-dasharray="" stroke-dashoffset="0" font-family="Sans Serif" font-weight="normal" text-anchor="start" style="mix-blend-mode: normal"><tspan x="0" dy="0">Polargaming64</tspan><tspan x="0" dy="46.150000000000006px"> </tspan><tspan x="0" dy="46.150000000000006px">MeIzAwezomeDede</tspan><tspan x="0" dy="46.150000000000006px"> </tspan><tspan x="0" dy="46.150000000000006px">AwezomeXD</tspan></text><path d="M617.49019,145.95532c-3.25354,1.36809 -0.62247,0.93497 -11.87007,-0.35939c-5.20149,-0.59858 -13.06375,-4.67178 -16.94543,-7.32598c-4.512,-3.08519 -5.77119,-3.74468 -5.39785,-6.98894c0.69453,-6.0353 11.88609,-5.51059 23.13369,-4.21622c6.74775,0.77653 12.99915,1.92862 14.81906,3.47873c1.55088,1.32098 1.10001,6.16384 0.3424,8.93539c-0.7604,2.78178 -0.82826,5.1083 -4.0818,6.47639z" fill="#0066cc" stroke="#000000" stroke-width="5"/><path d="M619.48167,140.31264c0,0 -0.59815,3.6771 -3.16181,4.17502c-1.35851,0.26386 -10.23579,-0.02184 -16.10972,-2.63374c-4.52606,-2.01255 -9.74254,-3.94293 -12.2435,-6.10113c-1.61998,-1.39796 -1.43549,-3.594 -1.43549,-3.594c0,0 11.2752,3.39729 16.81733,4.94119c5.39955,1.50417 16.13319,3.21266 16.13319,3.21266z" fill="#0f1980" stroke="none" stroke-width="0"/><path d="M444.27924,148.46932c0.46051,-4.00165 4.39247,-4.74581 9.53982,-6.51241c4.68423,-1.60766 9.00911,-1.85235 9.00911,-1.85235c0,0 -2.02887,-8.42157 -2.79807,-12.2402c-0.8095,-4.0187 -2.1991,-12.00262 -2.1991,-12.00262c0,0 27.58963,-15.35702 54.52012,-13.44061c25.02424,1.78074 49.757,22.88864 52.07619,27.15458c0.20743,0.38155 0.35548,6.71969 -1.4264,11.69178c-1.32485,3.6968 -3.64841,6.0461 -8.16971,7.77617c-14.53152,5.56049 -32.79114,11.33842 -49.74203,13.28198c-10.78192,1.23623 -26.42116,2.41937 -39.41285,-0.8323c-11.9257,-2.98485 -21.90728,-8.59034 -21.39706,-13.02401z" fill="#fddfbd" stroke="#000000" stroke-width="3.5"/><path d="M562.95434,130.41845c0,0 1.08558,8.29828 -2.61046,12.75509c-3.5455,4.27527 -12.52019,6.82376 -12.52019,6.82376l-4.38903,-6.06831l-9.52365,9.97231l-13.40008,-24.32047l-20.40193,11.91297l-3.74895,-19.2299l-33.70104,11.0562l-3.71729,-16.04569c0,0 68.42376,-11.75455 74.91627,-11.0074c6.49252,0.74715 29.09633,24.15144 29.09633,24.15144z" fill="#f99587" stroke="none" stroke-width="0"/><path d="M564.39387,131.82718c-6.8471,-1.4803 -32.83279,-8.33214 -42.31793,-15.53544c-18.29694,-13.89525 -30.38405,-18.28258 -40.69442,-19.46909c-19.56901,-2.25198 -32.20981,5.81924 -31.14696,-3.4166c0.24742,-2.15004 1.59988,-41.32108 3.38317,-43.02897c5.87713,-5.62864 33.45875,-12.82778 67.69992,-9.01906c14.4267,1.60471 34.55174,9.6166 36.16744,10.53359c14.99404,8.50981 28.13086,51.77387 27.22176,59.67368c0,0 1.04847,3.65012 -1.10291,6.41646c-2.31818,2.98082 -6.71381,3.69027 -10.32916,6.4181c-3.93458,2.96871 -7.07197,7.81843 -8.88092,7.42734z" fill="#ff2d32" stroke="#000000" stroke-width="5"/><path d="M502.30084,129.50521c0,0 -0.89788,-4.87538 -0.85833,-7.27837c0.04133,-2.5112 0.77635,-7.55343 0.77635,-7.55343c0,0 -14.01251,0.83744 -21.09314,1.79769c-7.25046,0.98328 -23.36127,4.38446 -23.36127,4.38446l0.31866,5.10098c0,0 -9.32481,0.76305 -14.31498,1.82126c-5.83186,1.23671 -18.54631,5.14726 -18.54631,5.14726c0,0 4.04305,-9.76616 7.4652,-14.11974c3.39104,-4.31402 12.97522,-11.88408 12.97522,-11.88408c0,0 -3.5862,-0.54522 -5.6494,-1.02117c-10.58364,-2.44147 -22.01132,-0.97258 -22.01132,-0.97258c0,0 33.0607,-43.34451 43.64437,-40.90305c1.39257,0.32125 8.21712,3.65117 14.81662,8.73839c6.98659,5.38559 13.05226,11.01152 13.05226,11.01152c0,0 0.88923,-4.8452 5.41567,-12.0722c3.75399,-5.99365 12.12634,-10.31396 12.12634,-10.31396c0,0 1.65319,17.3666 3.39985,26.4415c1.84612,9.59168 7.39499,29.64418 7.39499,29.64418c0,0 -7.05624,4.82645 -9.8291,6.93359c-1.98175,1.50598 -5.72166,5.09773 -5.72166,5.09773z" fill="#66ffff" stroke="#000000" stroke-width="3.5"/><path d="M495.39011,98.66257c0,0 1.72197,-10.14662 3.50633,-15.17606c2.14256,-6.03911 7.02303,-18.23694 7.02303,-18.23694c0,0 2.10194,17.27283 3.82947,25.62355c1.91522,9.25803 6.48225,25.95999 6.48225,25.95999c0,0 -4.33545,2.59946 -6.43522,4.27704c-2.12614,1.69865 -6.43838,5.80752 -6.43838,5.80752c0,0 -0.2877,-3.93217 -0.22719,-6.19192c0.06723,-2.50959 0.75123,-7.90625 0.75123,-7.90625c0,0 -17.42212,1.1687 -25.54266,2.40766c-7.02894,1.0724 -20.49896,3.63066 -20.49896,3.63066l-1.63765,5.35095c0,0 -5.54886,0.371 -8.71985,0.9389c-3.6669,0.65671 -12.01078,2.77382 -12.01078,2.77382l35.78343,-29.18194c0,0 -8.8278,-0.67579 -13.83615,-0.60141c-6.46051,0.09593 -21.69161,1.12901 -21.69161,1.12901c0,0 9.23568,-6.80426 13.90727,-9.95847c4.57858,-3.0914 13.84884,-8.78213 13.84884,-8.78213c0,0 11.74334,5.61118 17.05781,8.63196c5.32104,3.02454 14.84875,9.50408 14.84875,9.50408z" fill="#50a5eb" stroke="none" stroke-width="0"/><path d="M564.12398,132.97752l-2.57329,19.08091c0,0 -9.09968,-9.34351 -12.79352,-12.96198c-2.64101,-2.58715 -7.29064,-6.7125 -7.29064,-6.7125l-6.93843,10.20489c0,0 -5.26573,-11.3226 -7.69257,-15.98186c-2.12022,-4.07063 -6.0732,-10.44701 -6.0732,-10.44701z" fill="#67fcfd" stroke="#000000" stroke-width="3"/><path d="M562.51949,133.79947l-1.71487,14.90165l-19.35145,-17.95047l-6.36114,8.26162l0.87901,-12.7371l-8.81643,-2.31556l-2.95265,-4.88733c0,0 13.82205,5.06682 19.83614,7.36001c5.95863,2.27204 18.48142,7.3672 18.48142,7.3672z" fill="#51a7ee" stroke="none" stroke-width="0"/><path d="M573.85632,123.42824c-3.57133,3.87233 -9.004,7.94284 -9.004,7.94284c0,0 -8.78237,-3.72029 -13.48624,-5.43567c-5.11585,-1.86563 -18.13402,-6.42082 -18.13402,-6.42082c0,0 0.85352,-5.40125 2.16597,-12.44936c3.51343,-18.86791 12.44831,-53.25938 21.77559,-52.18602c1.03666,0.1193 1.88611,-0.30846 1.88611,-0.30846c0,0 6.32238,6.53617 12.12929,17.5837c6.61127,12.57777 13.02162,31.36657 12.66459,37.94625c-0.01274,0.23497 0.43497,4.53326 -0.07299,5.51934c0,0 -6.55638,4.15642 -9.9243,7.80819z" fill="#ab164a" stroke="#000000" stroke-width="2.5"/><path d="M586.35645,117.33727c2.1088,3.44003 0.15844,16.19189 -4.53168,26.72164c-2.99722,6.72904 -5.53376,10.82077 -8.46196,10.4838c-5.33788,-0.61427 -9.52502,-8.21599 -9.52502,-8.21599l1.21026,-13.43147c0,0 18.53294,-20.0855 21.3084,-15.55798z" fill="#fddfbd" stroke="#000000" stroke-width="4.5"/><path d="M574.54153,142.12131l4.7869,2.50121c0,0 -1.08684,2.48302 -1.87185,3.88159c-0.74086,1.31992 -2.13235,4.72295 -3.95396,4.1448c-1.82162,-0.57816 -8.47722,-4.29447 -8.1303,-7.30906c0.09154,-0.7954 0.3953,-2.82002 0.48424,-4.46757c0.1251,-2.31738 0.15238,-4.59446 1.14545,-5.40322c0.97679,-0.79549 0.26659,1.03879 0.26659,1.03879l9.30016,-4.64948z" fill="#fa9789" stroke="none" stroke-width="0"/><path d="M572.29082,146.38737c-0.66105,0.36446 -5.75511,-8.34154 -5.71391,-9.33068c0.05126,-1.23058 8.49564,-6.27431 9.16379,-5.35601c0.76357,1.04943 -2.27262,14.03763 -3.44989,14.68668z" fill="none" stroke="#000000" stroke-width="2"/><path d="M486.25747,144.78955c-3.74796,-0.43131 -6.31554,-4.87137 -8.35606,-13.3722c-1.76115,-7.33696 -1.20199,-17.24481 -1.20199,-17.24481c0,0 8.38897,4.54351 10.24231,11.82063c0.14643,0.57493 0.11718,3.46113 0.36066,9.17233c0.11711,2.74693 0.74239,9.82974 -1.0449,9.62405z" fill="#000000" stroke="none" stroke-width="0"/><path d="M516.88039,133.72277c-0.70482,6.1247 -0.85454,11.47369 -3.96259,11.11602c-3.10806,-0.35767 -6.52097,-7.45834 -5.81614,-13.58303c0.24174,-2.10065 1.01015,-4.84167 1.01015,-4.84167l15.122,-12.92401c0,0 -5.42003,12.12176 -6.35342,20.23269z" fill="#000000" stroke="none" stroke-width="0"/><path d="M560.45908,84.39952c0,0 -21.7379,17.64803 -32.51348,26.68452c-10.37006,8.69642 -30.97014,26.55338 -30.97014,26.55338c0,0 -15.14682,-12.90243 -21.22134,-21.6509c-6.19958,-8.92859 -15.93959,-31.42936 -15.93959,-31.42936c0,0 11.82623,20.95092 18.43192,29.44075c5.87263,7.54767 19.59339,19.04307 19.59339,19.04307c0,0 15.38033,-13.4057 24.17783,-21.45666c20.72976,-18.97066 38.44142,-27.18482 38.44142,-27.18482z" fill="#000000" stroke="none" stroke-width="0"/><path d="M533.65624,139.51067c0,0 6.7007,17.67364 -29.24032,15.08322c-9.28904,-0.66949 -15.69931,-3.48377 -15.69931,-3.48377c0,0 12.53127,1.84372 21.92761,0.62536c5.69194,-0.73804 9.56409,-4.16312 10.71922,-5.32853c2.00584,-2.02373 2.37457,-3.17617 2.37457,-3.17617l-2.11493,-1.38557z" fill="#000000" stroke="none" stroke-width="0"/><path d="M532.04638,141.84107c0,0 -2.62231,7.29271 -4.87481,8.41255c-6.44257,3.20295 -10.4002,1.9048 -10.4002,1.9048c0,0 5.92495,-2.78993 7.68092,-4.5625c1.64836,-1.66394 3.87667,-5.61524 3.87667,-5.61524z" fill="#ffffff" stroke="none" stroke-width="0"/></g></g></svg>