<svg version="1.1" xmlns="http://www.w3.org/2000/svg" xmlns:xlink="http://www.w3.org/1999/xlink" width="768" height="415.5" viewBox="0,0,768,415.5"><g transform="translate(43.5,41.5)"><g data-paper-data="{&quot;isPaintingLayer&quot;:true}" fill-rule="nonzero" stroke-linejoin="miter" stroke-miterlimit="10" stroke-dasharray="" stroke-dashoffset="0" style="mix-blend-mode: normal"><path d="M-11.95311,373v-384h676v384z" fill="#000000" stroke="#000000" stroke-width="2" stroke-linecap="butt"/><path d="M-43.5,175.5v-217h768v217z" fill="#ffcf6f" stroke="none" stroke-width="0" stroke-linecap="butt"/><path d="M124.40591,79.5733c0,0 4.79072,16.82814 6.18377,23.81385c1.67628,8.40591 9.72458,24.18703 9.72458,24.18703c0,0 10.03881,-6.06218 13.87091,-9.78002c4.38901,-4.25811 11.0198,-14.36846 11.0198,-14.36846c0,0 12.55655,14.86557 15.10936,21.18487c3.05969,7.57412 2.00503,21.18095 2.00503,21.18095c0,0 -26.50204,9.46814 -35.62377,11.39503c-9.94548,2.10091 -21.79174,0.73354 -21.79174,0.73354c0,0 -5.1823,-18.30351 -6.16051,-30.01257c-0.95911,-11.48065 0.3474,-39.56996 0.3474,-39.56996z" fill="#b3b3b3" stroke="#000000" stroke-width="4" stroke-linecap="round"/><path d="M84.42631,177.22207c0,0 -2.4134,-48.11099 -0.90186,-66.50129c1.13151,-13.76678 9.16576,-34.04274 9.16576,-34.04274l34.08856,-0.34432c0,0 -2.84908,31.69755 -1.34503,46.89369c1.77831,17.96702 28.89134,52.273 28.89134,52.273z" fill="#b3b3b3" stroke="#000000" stroke-width="4" stroke-linecap="butt"/><path d="M101.29842,80.81c0,0 -8.21095,11.86964 -11.33497,18.2713c-3.75914,7.70313 -9.66909,24.7698 -9.66909,24.7698c0,0 11.65945,1.25907 16.96065,0.62293c6.07157,-0.72859 17.47224,-4.75489 17.47224,-4.75489c0,0 0.98343,19.43412 -0.81418,26.00824c-2.15456,7.87953 -11.23733,18.06586 -11.23733,18.06586c0,0 -26.82073,-8.52364 -35.24518,-12.51705c-9.18524,-4.35404 -17.78145,-12.61895 -17.78145,-12.61895c0,0 6.96628,-17.70159 13.28197,-27.6097c3.93556,-6.17413 24.24987,-31.27052 24.24987,-31.27052z" fill="#b3b3b3" stroke="#000000" stroke-width="4" stroke-linecap="round"/><path d="M155.19595,46.30285c0,20.34794 -15.07686,32.02259 -34.94939,32.02259c-19.87251,0 -37.01534,-11.67463 -37.01534,-32.02258c0,-20.34793 17.83149,-34.08855 37.704,-34.08855c19.87251,0 34.26073,13.74064 34.26073,34.08855z" fill="#b3b3b3" stroke="#000000" stroke-width="4" stroke-linecap="butt"/><path d="M152.32081,50.51808l-39.52903,1.8204" fill="none" stroke="#000000" stroke-width="2" stroke-linecap="round"/><path d="M108.37077,28.41302l18.20416,8.84201" fill="none" stroke="#000000" stroke-width="2" stroke-linecap="round"/><path d="M145.81933,25.03224l-6.76154,6.76154" fill="none" stroke="#000000" stroke-width="2" stroke-linecap="round"/><path d="M111.00042,40.11568c0,-1.8511 1.50061,-3.35173 3.35172,-3.35173c1.85111,0 3.35173,1.50062 3.35173,3.35173c0,1.8511 -1.50062,3.35172 -3.35173,3.35172c-1.85111,0 -3.35172,-1.50062 -3.35172,-3.35172z" fill="#000000" stroke="none" stroke-width="0.5" stroke-linecap="butt"/><path d="M144.54808,34.39439c0,-1.8511 1.50062,-3.35172 3.35172,-3.35172c1.8511,0 3.35172,1.50062 3.35172,3.35172c0,1.8511 -1.50062,3.35172 -3.35172,3.35172c-1.8511,0 -3.35172,-1.50062 -3.35172,-3.35172z" fill="#000000" stroke="none" stroke-width="0.5" stroke-linecap="butt"/><text transform="translate(499.91067,80.89938) rotate(7.53926) scale(0.15655,0.15655)" font-size="40" xml:space="preserve" fill="#000000" fill-rule="nonzero" stroke="none" stroke-width="1" stroke-linecap="butt" stroke-linejoin="miter" stroke-miterlimit="10" stroke-dasharray="" stroke-dashoffset="0" font-family="Sans Serif" font-weight="normal" text-anchor="start" style="mix-blend-mode: normal"><tspan x="0" dy="0">Polargaming64</tspan><tspan x="0" dy="46.150000000000006px"> </tspan><tspan x="0" dy="46.150000000000006px">MeIzAwezomeDede</tspan><tspan x="0" dy="46.150000000000006px"> </tspan><tspan x="0" dy="46.150000000000006px">AwezomeXD</tspan></text><path d="M574.24982,165.55811c0,4.74399 -18.82103,6.79488 -21.79487,6.79488c-2.97384,0 -1.53846,-6.92268 -1.53846,-11.66666c0,-2.71212 -0.81935,-8.74922 -0.30661,-12.76421c0.38413,-3.00797 3.13546,-5.31271 4.40917,-5.31271c1.14567,0 9.39103,1.1061 12.79058,5.11464c2.84856,3.35886 0.7672,9.36662 3.0186,12.56394c2.03606,2.8915 3.42159,3.88519 3.42159,5.27013z" fill="#fddfbd" stroke="#000000" stroke-width="3.5" stroke-linecap="butt"/><path d="M568.28828,151.39143l-0.02774,5.14102c0,0 -2.62414,1.95519 -9.20659,-0.93024c-2.13707,-0.93679 -6.15027,-4.4031 -6.15027,-4.4031c0,0 -3.30175,-6.87468 -0.54929,-7.58523c0.59113,-0.1526 4.18166,-1.20295 7.9129,0.72227c3.94316,2.03456 8.021,7.05528 8.021,7.05528z" fill="#f89486" stroke="none" stroke-width="0" stroke-linecap="butt"/><path d="M556.27814,163.33489c0.54891,-0.64837 1.57108,-1.00825 2.20835,-0.41295c2.03541,1.90139 6.95931,5.37139 9.233,5.89693c2.56784,0.59354 6.9723,-3.56203 6.9723,-3.56203c0,0 4.66314,4.60684 4.87577,9.6051c0.09268,2.17865 -99.21658,-0.39953 -99.21658,-0.39953c0,0 0.36139,-3.40447 1.01067,-5.31351c0.82386,-2.42237 2.56028,-7.16208 3.53468,-8.05096c0.57918,-0.52836 3.27162,1.09816 5.38864,1.84591c2.58787,0.91407 9.01164,3.24043 9.01164,3.24043c0,0 10.80456,-10.53273 15.86208,-10.53273c9.95098,0 22.4662,4.22132 29.05869,8.1179c5.65063,3.33988 6.13362,5.47487 6.13362,5.47487c0,0 4.65724,-4.40943 5.92715,-5.90945z" fill="#0066cc" stroke="#000000" stroke-width="3.5" stroke-linecap="butt"/><path d="M522.57322,182.55955c0.31765,0.93971 -0.20994,1.96952 -1.1784,2.30015c-0.96847,0.33062 -2.01107,-0.16314 -2.32872,-1.10284c-0.31765,-0.93971 0.20995,-1.96952 1.17841,-2.30015c0.96847,-0.33062 2.01106,0.16314 2.32871,1.10284z" fill="#000000" stroke="none" stroke-width="0" stroke-linecap="butt"/><path d="M523.97203,187.75692c0,0.97111 -0.81037,1.75836 -1.81001,1.75836c-0.99964,0 -1.81001,-0.78725 -1.81001,-1.75836c0,-0.97111 0.81037,-1.75835 1.81001,-1.75835c0.99964,0 1.81001,0.78724 1.81001,1.75835z" fill="#000000" stroke="none" stroke-width="0" stroke-linecap="butt"/><path d="M529.91699,195.9575c0,0.54228 5.41206,-0.06454 4.18152,0.2209c-1.19068,0.27619 -1.31926,2.74146 -2.25909,2.74146c-0.79922,0 -1.1627,-1.14931 -3.10471,-1.66547c-2.70182,-0.7181 -7.02011,-0.9337 -7.02011,-1.55449c0,-1.067 2.57457,-2.70477 4.48568,-2.70477c1.91111,0 3.71671,1.89537 3.71671,2.96237z" fill="#000000" stroke="none" stroke-width="0" stroke-linecap="butt"/><path d="M587.33373,181.91848c0,0.6539 -3.34058,4.19847 -4.31026,6.52579c-0.69577,1.66992 0.6897,3.11911 0.6897,3.11911l-7.7984,-2.36934c0,0 0.54869,-1.14548 2.62838,-1.8084c1.65954,-0.52899 2.63879,-1.07876 2.63879,-1.34562c0,-0.69986 -0.05125,-3.09601 1.30901,-3.96731c1.68136,-1.07698 4.84277,-1.0193 4.84277,-0.15423z" fill="#000000" stroke="none" stroke-width="0" stroke-linecap="butt"/><path d="M551.94211,167.6735c0,0 -4.57209,3.01282 -23.52564,3.01282c-26.90227,0 -31.47436,-14.29487 -31.47436,-14.29487c0,0 9.02648,-8.21735 18.84631,-13.3334c9.47356,-4.93565 5.44407,-18.17018 14.48702,-18.07685c0.92034,0.0095 20.35403,-4.76009 27.64187,-6.21004c5.90943,-1.17571 8.7201,3.14712 12.15013,8.01617c1.17747,1.67146 -0.92458,6.66526 -0.33261,10.30185c0.63274,3.88709 5.29451,10.22238 5.04052,11.55005c-0.45263,2.36603 -5.38957,3.28235 -9.32858,2.8607c-4.94239,-0.52906 -12.10831,-5.89051 -12.10831,-5.89051c0,0 -1.49207,6.97503 -1.72541,13.21761c-0.18993,5.08094 0.32906,8.84648 0.32906,8.84648z" fill="#feebf7" stroke="#000000" stroke-width="3.5" stroke-linecap="butt"/><path d="M568.8652,129.5645l-16.73077,5c0,0 -5.61157,-10.99388 -2.45883,-12.8787c2.99716,-1.7918 9.38191,-3.85207 9.38191,-3.85207c0,0 9.10105,8.0839 9.74575,9.00491c0.69732,0.99617 0.06194,2.72586 0.06194,2.72586z" fill="#cb8ad4" stroke="none" stroke-width="0" stroke-linecap="butt"/><path d="M552.69269,144.74944c0,0 -0.70277,2.60639 -1.20291,4.06275c-0.5817,1.69386 -0.92586,6.45747 -0.92586,6.45747c0,0 -2.00242,-7.8265 -2.50824,-10.97566c-0.48706,-3.03232 -0.85714,-8.35126 -0.85714,-8.35126z" fill="#d991e5" stroke="none" stroke-width="0" stroke-linecap="butt"/><path d="M554.69853,145.75042l-1.34616,1.63462l-5.76923,-10.28847z" fill="#000000" stroke="none" stroke-width="0" stroke-linecap="butt"/><path d="M527.10237,160.84658c-5.32023,1.66926 -12.01923,-0.83775 -12.01923,-4.42308c0,-3.36355 4.16279,-8.64051 9.44864,-9.89205c2.88561,-0.68322 11.7832,-3.77389 15.81217,-0.21717c2.28207,2.01459 -3.43485,11.45537 -13.24158,14.5323z" fill="none" stroke="#ff0c0d" stroke-width="4.5" stroke-linecap="butt"/><path d="M524.50622,146.6158l4.61538,13.07693" fill="none" stroke="#ff0c0d" stroke-width="4.5" stroke-linecap="round"/><path d="M607.80964,122.50896c-2.40093,1.26754 -0.41399,0.75839 -9.11995,0.52438c-4.02611,-0.10823 -10.32519,-2.69967 -13.47845,-4.47198c-3.6653,-2.0601 -4.67462,-2.48062 -4.60711,-4.99177c0.12557,-4.67149 8.73673,-5.02346 17.44269,-4.78944c5.22294,0.1404 10.09086,0.60202 11.58985,1.66723c0.59051,0.41963 1.54032,1.44481 1.78825,2.64084c0.28839,1.39123 -0.18777,3.01362 -0.39953,4.18306c-0.39526,2.18286 -0.81481,3.97015 -3.21574,5.2377z" fill="#0066cc" stroke="#000000" stroke-width="5" stroke-linecap="butt"/><path d="M608.95548,118.05093c0,0 -0.2106,2.85797 -2.14152,3.41224c-1.02322,0.29372 -7.84489,0.67291 -12.52191,-0.93277c-3.60379,-1.23722 -7.73111,-2.36495 -9.79295,-3.85022c-1.33554,-0.96209 -1.34212,-2.65727 -1.34212,-2.65727c0,0 8.86879,1.84359 13.21961,2.65323c4.23888,0.78881 12.5789,1.3748 12.5789,1.3748z" fill="#0f1980" stroke="none" stroke-width="0" stroke-linecap="butt"/><path d="M476.89643,125.10479c0.40648,-3.07173 3.44034,-3.5927 7.42236,-4.88417c3.62374,-1.17527 6.95328,-1.30696 6.95328,-1.30696c0,0 -1.4504,-6.5037 -1.99212,-9.45075c-0.57009,-3.10143 -1.53452,-9.26019 -1.53452,-9.26019c0,0 21.42039,-11.45087 42.10813,-9.62502c19.22337,1.69661 37.97,18.2543 39.69799,21.56561c0.15455,0.29616 0.1856,5.17289 -1.24985,8.97374c-1.06727,2.82597 -2.88506,4.60249 -6.38509,5.87405c-11.24914,4.08679 -25.36848,8.29212 -38.43114,9.56544c-8.30875,0.80991 -20.35265,1.51553 -30.30232,-1.15516c-9.13329,-2.45154 -16.73708,-6.89326 -16.28672,-10.29662z" fill="#fddfbd" stroke="#000000" stroke-width="3.5" stroke-linecap="butt"/><path d="M568.40766,112.77223c0,0 0.72651,6.39656 -2.17444,9.77607c-2.78278,3.24186 -9.71869,5.08469 -9.71869,5.08469l-3.29639,-4.72461l-7.45515,7.54544l-9.98846,-18.88046l-15.8472,8.8959l-2.63211,-14.83909l-26.0646,8.06317l-2.64937,-12.38964c0,0 52.77966,-8.14655 57.76342,-7.48706c4.98376,0.65949 22.06297,18.95556 22.06297,18.95556z" fill="#f99587" stroke="none" stroke-width="0" stroke-linecap="butt"/><path d="M569.49644,113.87452c-5.24689,-1.228 -25.14348,-6.83745 -32.34455,-12.50159c-13.89097,-10.92621 -23.13006,-14.45853 -31.04447,-15.50583c-15.02148,-1.98776 -24.84924,4.0548 -23.91109,-3.03478c0.21839,-1.6504 1.77046,-31.75994 3.16433,-33.05022c4.59377,-4.25231 25.90141,-9.42889 52.1872,-6.0521c11.07489,1.42273 26.44876,7.84781 27.67944,8.5742c11.42102,6.741 20.95947,40.18789 20.15702,46.25192c0,0 0.7587,2.82108 -0.93211,4.92061c-1.82191,2.2623 -5.21195,2.75052 -8.02823,4.80132c-3.06496,2.23188 -5.54136,5.92088 -6.92755,5.59647z" fill="#ff2d32" stroke="#000000" stroke-width="5" stroke-linecap="butt"/><path d="M521.53284,112.69949c0,0 -0.87035,-3.71272 -0.92894,-5.56048c-0.06121,-1.93099 0.31687,-5.83234 0.31687,-5.83234c0,0 -10.73538,1.16218 -16.14014,2.1621c-5.53442,1.02391 -17.78708,4.23359 -17.78708,4.23359l-0.05158,3.20475c0,0 -6.65112,1.6342 -10.44608,2.632c-4.43506,1.16612 -14.05931,4.64142 -14.05931,4.64142c0,0 2.74491,-7.6534 5.2131,-11.1251c2.44577,-3.44016 9.52941,-9.61136 9.52941,-9.61136c0,0 -2.7756,-0.28616 -4.37846,-0.57546c-8.22222,-1.48406 -16.94818,0.06758 -16.94818,0.06758c0,0 23.79724,-34.5272 32.01947,-33.04313c1.08186,0.19527 6.44872,2.50113 11.70769,6.16553c5.56745,3.87932 10.43622,7.9774 10.43622,7.9774c0,0 0.50385,-3.75568 3.71418,-9.47603c2.66246,-4.74414 8.93533,-8.37353 8.93533,-8.37353c0,0 1.91311,13.28224 3.5911,20.19019c1.77352,7.30133 6.77927,22.50302 6.77927,22.50302c0,0 -5.24292,3.96957 -7.29539,5.69123c-1.4669,1.23046 -4.20745,4.12861 -4.20745,4.12861z" fill="#66ffff" stroke="#000000" stroke-width="3.5" stroke-linecap="butt"/><path d="M515.08126,89.2577c0,0 0.94744,-7.85981 2.13224,-11.79018c1.42265,-4.7194 4.72095,-14.27215 4.72095,-14.27215c0,0 2.25444,13.19358 3.89091,19.54582c1.81427,7.04242 5.94162,19.7061 5.94162,19.7061c0,0 -3.23486,2.15775 -4.7861,3.52446c-1.57071,1.38384 -4.73186,4.7005 -4.73186,4.7005c0,0 -0.36663,-3.01059 -0.40378,-4.74909c-0.04125,-1.93069 0.2845,-6.1025 0.2845,-6.1025c0,0 -13.34283,1.54293 -19.5363,2.79547c-5.36091,1.08418 -15.61575,3.54845 -15.61575,3.54845l-1.06018,4.17197c0,0 -4.24969,0.49046 -6.66504,1.04421c-2.79311,0.64033 -9.12568,2.57588 -9.12568,2.57588l26.41352,-23.74634c0,0 -6.80777,-0.19243 -10.65312,0.05011c-4.96031,0.31288 -16.62472,1.67049 -16.62472,1.67049c0,0 6.84425,-5.56989 10.31684,-8.16632c3.40346,-2.54473 10.3155,-7.26033 10.3155,-7.26033c0,0 9.23059,3.87655 13.42574,6.00081c4.20033,2.12687 11.76073,6.75266 11.76073,6.75266z" fill="#50a5eb" stroke="none" stroke-width="0" stroke-linecap="butt"/><path d="M569.27382,114.75575l-2.22851,14.64188c0,0 -6.87666,-7.30518 -9.67037,-10.1365c-1.99745,-2.02433 -5.51967,-5.25799 -5.51967,-5.25799l-5.46983,7.75812c0,0 -3.90202,-8.77725 -5.70767,-12.39249c-1.57751,-3.1585 -4.5345,-8.11436 -4.5345,-8.11436z" fill="#67fcfd" stroke="#000000" stroke-width="3" stroke-linecap="butt"/><path d="M568.02903,115.36696l-1.51367,11.43874l-14.64903,-14.05893l-5.00044,6.27105l0.8425,-9.78486l-6.75063,-1.89615l-2.20708,-3.79753c0,0 10.56461,4.0776 15.16019,5.91993c4.55322,1.82533 14.11816,5.90776 14.11816,5.90776z" fill="#51a7ee" stroke="none" stroke-width="0" stroke-linecap="butt"/><path d="M576.88394,107.53839c-2.79738,2.93161 -7.02895,5.99134 -7.02895,5.99134c0,0 -6.70609,-2.97611 -10.30151,-4.35691c-3.91033,-1.50174 -13.86332,-5.17535 -13.86332,-5.17535c0,0 0.72704,-4.14306 1.82856,-9.54675c2.9488,-14.46577 10.27019,-40.80018 17.42996,-39.85275c0.79575,0.1053 1.45467,-0.21259 1.45467,-0.21259c0,0 4.77727,5.10972 9.09911,13.68246c4.92049,9.7602 9.60531,24.2948 9.24473,29.35071c-0.01287,0.18054 0.2753,3.4923 -0.12825,4.24408c0,0 -5.09695,3.11111 -7.73501,5.87575z" fill="#ab164a" stroke="#000000" stroke-width="2.5" stroke-linecap="butt"/><path d="M586.57763,103.01704c1.57697,2.67336 -0.08973,12.45557 -3.83459,20.49293c-2.39315,5.13627 -4.39752,8.25016 -6.64526,7.95272c-4.09744,-0.54221 -7.21851,-6.44355 -7.21851,-6.44355l1.10636,-10.31459c0,0 14.51652,-15.20598 16.59201,-11.68751z" fill="#fddfbd" stroke="#000000" stroke-width="4.5" stroke-linecap="butt"/><path d="M577.16668,121.92456l3.64901,1.98628c0,0 -0.86834,1.89554 -1.49041,2.96095c-0.58705,1.0055 -1.70174,3.60465 -3.09523,3.13617c-1.39349,-0.46847 -6.46388,-3.41373 -6.15767,-5.72779c0.08079,-0.61056 0.34087,-2.16377 0.43081,-3.42977c0.1265,-1.78071 0.17723,-3.53169 0.9516,-4.14074c0.76166,-0.59907 0.19146,0.80244 0.19146,0.80244l7.2137,-3.45449z" fill="#fa9789" stroke="none" stroke-width="0" stroke-linecap="butt"/><path d="M575.37988,125.17625c-0.51319,0.27167 -4.31736,-6.49084 -4.27275,-7.25107c0.05551,-0.94579 6.61616,-4.71468 7.11805,-3.99967c0.57356,0.81713 -1.93135,10.76692 -2.8453,11.25074z" fill="none" stroke="#000000" stroke-width="2" stroke-linecap="butt"/><path d="M509.23079,122.82312c-2.87698,-0.38071 -4.79375,-3.82919 -6.25207,-10.39401c-1.25866,-5.66602 -0.69913,-13.27904 -0.69913,-13.27904c0,0 6.39275,3.60412 7.72309,9.22532c0.10512,0.44411 0.04491,2.66356 0.15754,7.05933c0.05417,2.11424 0.44254,7.56995 -0.92942,7.3884z" fill="#000000" stroke="none" stroke-width="0" stroke-linecap="butt"/><path d="M532.92811,114.71159c-0.62213,4.70141 -0.80718,8.81348 -3.19297,8.49777c-2.38579,-0.3157 -4.91795,-5.82157 -4.29583,-10.52298c0.21338,-1.61249 0.8402,-3.71063 0.8402,-3.71063l11.79951,-9.7425c0,0 -4.32705,9.25226 -5.15093,15.47834z" fill="#000000" stroke="none" stroke-width="0" stroke-linecap="butt"/><path d="M567.08985,77.34557c0,0 -16.94966,13.28939 -25.35546,20.09873c-8.08946,6.55308 -24.16673,20.01804 -24.16673,20.01804c0,0 -11.48112,-10.12144 -16.03884,-16.92943c-4.65154,-6.94817 -11.84876,-24.38122 -11.84876,-24.38122c0,0 8.82201,16.2683 13.79164,22.88432c4.41812,5.88181 14.82082,14.90244 14.82082,14.90244c0,0 12.00449,-10.10962 18.87603,-16.18681c16.19157,-14.31983 29.92129,-20.40606 29.92129,-20.40606z" fill="#000000" stroke="none" stroke-width="0" stroke-linecap="butt"/><path d="M545.7551,119.3824c0,0 4.92269,13.6807 -22.68641,11.21871c-7.13564,-0.63631 -12.02912,-2.88458 -12.02912,-2.88458c0,0 9.61395,1.58179 16.85679,0.76751c4.38743,-0.49326 7.41034,-3.07697 8.314,-3.9582c1.56918,-1.53028 1.86783,-2.41183 1.86783,-2.41183l-1.60853,-1.09331z" fill="#000000" stroke="none" stroke-width="0" stroke-linecap="butt"/><path d="M544.48648,121.15371c0,0 -2.11216,5.5747 -3.85924,6.40655c-4.99696,2.37927 -8.02389,1.32911 -8.02389,1.32911c0,0 4.59345,-2.06838 5.96716,-3.40874c1.28954,-1.25823 3.05501,-4.26814 3.05501,-4.26814z" fill="#ffffff" stroke="none" stroke-width="0" stroke-linecap="butt"/><path d="M401,251.50003v-220h266.92308v220z" fill="none" stroke="none" stroke-width="0" stroke-linecap="butt"/><text transform="translate(9.54689,208.5) scale(0.5,0.5)" font-size="40" xml:space="preserve" fill="#ffcf6f" fill-rule="nonzero" stroke="none" stroke-width="1" stroke-linecap="butt" stroke-linejoin="miter" stroke-miterlimit="10" stroke-dasharray="" stroke-dashoffset="0" font-family="Sans Serif" font-weight="normal" text-anchor="start" style="mix-blend-mode: normal"><tspan x="0" dy="0">Test</tspan><tspan x="0" dy="46.150000000000006px">Test2</tspan></text><text transform="translate(516.54689,11.79645) scale(0.21965,0.21965)" font-size="40" xml:space="preserve" fill="#000000" fill-rule="nonzero" stroke="none" stroke-width="1" stroke-linecap="butt" stroke-linejoin="miter" stroke-miterlimit="10" stroke-dasharray="" stroke-dashoffset="0" font-family="Sans Serif" font-weight="normal" text-anchor="start" style="mix-blend-mode: normal"><tspan x="0" dy="0">WHEN THE IMPOSTER IS SUS</tspan></text></g></g></svg>