<svg version="1.1" xmlns="http://www.w3.org/2000/svg" xmlns:xlink="http://www.w3.org/1999/xlink" width="65.14854" height="62.70134" viewBox="0,0,65.14854,62.70134"><g transform="translate(-287.42573,-148.64933)"><g data-paper-data="{&quot;isPaintingLayer&quot;:true}" fill-rule="nonzero" stroke-width="4.5" stroke-linecap="round" stroke-linejoin="miter" stroke-miterlimit="10" stroke-dasharray="" stroke-dashoffset="0" style="mix-blend-mode: normal"><g><path d="M294.02973,206.17782c-3.58852,-1.80555 -6.64599,-42.49141 -1.98714,-47.01387c11.43781,-11.10294 45.41401,-9.86556 53.26133,-3.06991c8.36402,7.24312 4.4416,43.05188 1.32153,50.29721c-2.01886,4.68812 -47.39218,2.40471 -52.59571,-0.21343z" fill="#ffe323" stroke="none"/><path d="M294.02973,206.17782c-3.58852,-1.80555 -6.64599,-42.49141 -1.98714,-47.01387c5.84578,-5.67464 -1.84359,24.53657 10.95426,37.19562c12.24228,12.1095 45.15403,6.48939 43.6286,10.03169c-2.01886,4.68812 -47.39218,2.40471 -52.59571,-0.21343z" fill="#d6943b" stroke="none"/><path d="M294.02973,206.17782c-3.58852,-1.80555 -6.64599,-42.49141 -1.98714,-47.01387c11.43781,-11.10294 45.41401,-9.86556 53.26133,-3.06991c8.36402,7.24312 4.4416,43.05188 1.32153,50.29721c-2.01886,4.68812 -47.39218,2.40471 -52.59571,-0.21343z" fill="none" stroke="#000000"/></g><path d="M309.80344,178.81893c0,0 1.60087,-13.87216 7.88233,-14.03986c6.28146,-0.16769 16.31707,13.3938 16.31707,13.3938l14.76871,-10.09218" fill="none" stroke="#000000"/><g fill="none" stroke="#000000"><path d="M323.40908,175.91882l0.32943,9.48887"/><path d="M341.56549,178.20479l0.41394,5.73631"/></g><path d="M343.69234,196.82187c0,0 -0.76734,3.89647 -13.7908,3.81847c-10.8673,-0.06507 -26.63837,-8.35384 -31.21558,-10.82168c-0.90816,-0.48964 -0.36891,0.04753 -0.36891,0.04753c0,0 16.23357,7.61886 16.38612,7.67076c6.41442,2.18193 14.91133,2.97541 14.91133,2.97541" fill="#ffffff" stroke="#000000"/></g></g></svg>