<svg version="1.1" xmlns="http://www.w3.org/2000/svg" xmlns:xlink="http://www.w3.org/1999/xlink" width="347.50235" height="368.80351" viewBox="0,0,347.50235,368.80351"><g transform="translate(-77.25851,-3.53282)"><g data-paper-data="{&quot;isPaintingLayer&quot;:true}" fill-rule="nonzero" stroke-width="8" stroke-linejoin="miter" stroke-miterlimit="10" stroke-dasharray="" stroke-dashoffset="0" style="mix-blend-mode: normal"><g fill="#d6943b" stroke="#000000" stroke-linecap="round"><g><path d="M363.13069,122.43109c1.88486,9.5871 5.73352,34.05805 9.52198,60.39158c2.03109,14.11814 4.04487,28.77166 5.72941,41.95398c1.77002,13.85143 2.26658,39.75191 2.26658,39.75191c0,0 -11.06432,14.6137 -19.4968,10.64728c-8.69433,-4.08957 -19.78954,1.57181 -24.70425,1.44838c-5.78272,-0.14521 -11.23339,-10.17718 -11.23339,-10.17718c0,0 -1.50058,-10.48178 -0.41465,-23.85891c0.23786,-2.92998 4.31157,-4.95435 4.38452,-8.21075c0.30094,-13.43302 0.29485,-29.45122 0.39726,-44.71789c0.17593,-26.22185 0.67205,-50.22666 3.59403,-55.10698c3.56212,-5.9494 28.12927,-21.4096 29.95533,-12.12144z" data-paper-data="{&quot;index&quot;:null}"/><path d="M327.76394,238.63467l48.36185,7.35423"/></g><path d="M376.94957,240.25294c0,0 -23.1812,0.42384 -28.6587,-2.5281c-5.47753,-2.95195 -8.61222,-7.77411 0.29348,-12.75853c8.90575,-4.98442 26.40644,-2.18512 26.40644,-2.18512z"/></g><g stroke-linecap="round"><path d="M232.05456,194.76494l50.41166,3.68719l-20.65744,148.53628l-47.05308,21.01245l-38.6371,-15.13075z" fill="#242a3a" stroke="none"/><path d="M232.05456,194.76494l25.46937,4.03004l-42.76823,169.2059l-38.6371,-15.13075z" fill="#1b202d" stroke="none"/><path d="M232.05457,194.76494l50.41166,3.68719l-20.65745,148.53628l-47.05308,21.01245l-38.6371,-15.13075z" fill="none" stroke="#000000"/></g><g stroke-linecap="round"><path d="M419.61785,341.42754l-38.63708,15.13076l-47.0531,-21.01245l-14.53672,-140.20377l39.31784,-14.5557z" data-paper-data="{&quot;index&quot;:null}" fill="#242a3a" stroke="none"/><path d="M380.98075,356.5583l-47.0531,-21.01245l-14.53672,-140.20377l17.70423,-3.68232z" data-paper-data="{&quot;index&quot;:null}" fill="#1b202d" stroke="none"/><path d="M419.61785,341.80821l-38.63708,15.13076l-47.0531,-21.01245l-14.53672,-140.20377l39.31784,-14.5557z" data-paper-data="{&quot;index&quot;:null}" fill="none" stroke="#000000"/></g><g><path d="M112.29057,111.78332c27.09639,-12.18171 59.48987,-1.25439 72.35287,24.40681c12.863,25.66121 1.32455,56.33895 -25.77183,68.52065c-27.09639,12.18171 -59.48986,1.25439 -72.35286,-24.40682c-12.863,-25.66121 -1.32455,-56.33895 25.77182,-68.52065z" fill="#d61313" stroke="#000000" stroke-linecap="butt"/><path d="M131.83589,122.57803c0,0 7.4122,-0.67431 10.95381,-0.2804c3.27689,0.36447 9.56342,2.56237 9.56342,2.56237" fill="none" stroke="#ffffff" stroke-linecap="round"/></g><g stroke-linecap="round"><path d="M271.0376,103.23164l98.01743,-2.3359l-13.06228,88.79255l-92.66281,23.85281l-35.81687,-9.18991z" fill="#ea2020" stroke="none"/><path d="M271.03759,103.23165l14.91843,-0.96857l-22.62607,111.278l-35.81687,-9.18991z" fill="#a71717" stroke="none"/><path d="M271.0376,103.23164l98.01743,-2.3359l-13.06228,88.79255l-92.66281,23.85281l-35.81687,-9.18991z" fill="none" stroke="#000000"/></g><path d="M219.33728,144.87893c-15.57638,2.32988 -31.93687,4.79456 -46.42996,6.76204c-16.13901,2.19094 -0.95098,20.63703 -10.83704,20.10955c-6.31918,-0.33721 -15.05472,-21.39625 -18.72101,-22.60135c-5.79166,-1.90369 -16.8272,5.83192 -16.8272,5.83192c0,0 -17.34114,-11.23811 -12.91214,-20.16976c4.56654,-9.209 -2.31672,-20.69686 -2.2919,-25.84939c0.02926,-6.06253 11.61675,-12.0172 11.61675,-12.0172c0,0 12.20894,-1.8268 27.86319,-1.01379c3.42874,0.17807 5.89265,4.39729 9.69871,4.39466c15.03024,-0.01043 33.1656,-0.53139 50.30674,-0.79339c31.51858,-0.48178 60.49501,-0.46474 66.41089,2.5515c7.03688,3.58785 25.69486,28.95334 14.88828,31.09217c0,0 -41.04417,6.95824 -72.76527,11.70304z" data-paper-data="{&quot;index&quot;:null}" fill="#ffe323" stroke="#000000" stroke-linecap="round"/><g stroke-linecap="round"><path d="M278.00053,103.11573c-6.54055,-3.48925 -8.6873,-75.66691 0.40497,-83.27557c22.3222,-18.67978 85.63607,-13.67651 99.68968,-1.01282c14.97897,13.49754 4.52342,76.475 -1.93478,89.0247c-4.17879,8.12031 -88.67574,0.32331 -98.15986,-4.73629z" fill="#ffe323" stroke="none"/><path d="M278.00053,103.11573c-6.54055,-3.48925 -8.6873,-75.66691 0.40497,-83.27557c11.40871,-9.54713 -5.58861,43.22283 17.19285,66.6621c21.79249,22.42173 83.71951,15.21416 80.56205,21.34978c-4.17879,8.12031 -88.67574,0.32331 -98.15986,-4.73629z" fill="#d6943b" stroke="none"/><path d="M278.00053,103.11573c-6.54055,-3.48925 -8.6873,-75.66691 0.40497,-83.27557c22.3222,-18.67978 85.63607,-13.67651 99.68968,-1.01282c14.97897,13.49754 4.52342,76.475 -1.93478,89.0247c-4.17879,8.12031 -88.67574,0.32331 -98.15986,-4.73629z" fill="none" stroke="#000000"/></g><path d="M309.83901,56.05808c0,0 4.20227,-24.39046 15.94233,-24.16632c11.74005,0.22414 29.28637,25.0298 29.28637,25.0298l28.45141,-16.61692" fill="none" stroke="#000000" stroke-linecap="round"/><g fill="none" stroke="#000000" stroke-linecap="round"><path d="M335.48997,52.05888l-0.21545,16.80168"/><path d="M369.18183,57.60475l0.2707,10.17492"/></g><path d="M371.52274,90.6922c0,0 -1.77335,6.82455 -26.07696,5.60733c-20.27991,-1.01568 -48.99383,-16.97558 -57.32199,-21.71756c-1.65238,-0.94085 -0.6928,0.05345 -0.6928,0.05345c0,0 29.63589,14.81399 29.9161,14.91837c11.78262,4.38882 27.57406,6.49574 27.57406,6.49574" fill="#ffffff" stroke="#000000" stroke-linecap="round"/></g></g></svg>