<svg version="1.1" xmlns="http://www.w3.org/2000/svg" xmlns:xlink="http://www.w3.org/1999/xlink" width="498.37183" height="362.4953" viewBox="0,0,498.37183,362.4953"><g transform="translate(-153.53153,-14.50239)"><g data-paper-data="{&quot;isPaintingLayer&quot;:true}" fill-rule="nonzero" stroke-width="8" stroke-linejoin="miter" stroke-miterlimit="10" stroke-dasharray="" stroke-dashoffset="0" style="mix-blend-mode: normal"><g data-paper-data="{&quot;index&quot;:null}" stroke-linecap="round"><path d="M259.55517,201.09326l39.90642,15.02089l-52.96654,134.46037l-47.75748,21.68399l-39.21547,-15.61432z" data-paper-data="{&quot;index&quot;:null}" fill="#242a3a" stroke="none"/><path d="M255.03022,215.90149l15.02902,3.20212l-72.3721,155.98443l-35.99653,-20.16835z" data-paper-data="{&quot;index&quot;:null}" fill="#1b202d" stroke="none"/><path d="M259.55517,201.48609l39.90642,15.02089l-52.96654,134.46037l-47.75748,21.68399l-39.21547,-15.61432z" data-paper-data="{&quot;index&quot;:null}" fill="none" stroke="#000000"/></g><g fill="#d6943b" stroke="#000000" stroke-linecap="round"><g><path d="M324.43129,134.64005c9.61569,-2.75889 34.21429,-8.82632 60.70523,-14.99799c14.20252,-3.3088 28.94898,-6.64755 42.22213,-9.52244c13.94687,-3.02079 40.18548,-5.82066 40.18548,-5.82066c0,0 15.44848,9.9077 11.90464,18.79821c-3.65387,9.1666 2.71742,19.89953 2.87123,24.88713c0.181,5.86847 -9.68345,12.27756 -9.68345,12.27756c0,0 -10.54486,2.44909 -24.17283,2.53588c-2.98492,0.019 -5.26917,-3.92651 -8.57578,-3.71158c-13.64009,0.88663 -29.88451,2.31341 -45.37293,3.56369c-26.60271,2.14743 -50.9752,3.77399 -56.09042,1.24802c-6.23576,-3.07937 -23.30921,-26.58499 -13.99335,-29.25781z" data-paper-data="{&quot;index&quot;:null}"/><path d="M444.28609,160.14663l4.71292,-49.62356"/></g><path d="M443.13515,110.19763c0,0 1.74575,23.43574 -0.937,29.24408c-2.68277,5.80836 -7.39519,9.41023 -12.95565,0.83436c-5.56046,-8.57593 -3.71502,-26.54543 -3.71502,-26.54543z"/></g><g stroke-linecap="round"><path d="M419.61785,340.3518l-38.63708,15.61432l-47.0531,-21.68399l-14.53672,-144.68454l39.31784,-15.02089z" data-paper-data="{&quot;index&quot;:null}" fill="#242a3a" stroke="none"/><path d="M380.98075,355.96612l-47.0531,-21.68399l-14.53672,-144.68454l17.70423,-3.8z" data-paper-data="{&quot;index&quot;:null}" fill="#1b202d" stroke="none"/><path d="M419.61785,340.74463l-38.63708,15.61432l-47.0531,-21.68399l-14.53672,-144.68454l39.31784,-15.02089z" data-paper-data="{&quot;index&quot;:null}" fill="none" stroke="#000000"/></g><g stroke-linecap="round"><path d="M282.8646,114.16365l98.01743,-2.41055l-13.06228,91.63027l-92.66281,24.61512l-35.81687,-9.48361z" fill="#ea2020" stroke="none"/><path d="M282.86459,114.16366l14.91843,-0.99952l-22.62607,114.83433l-35.81687,-9.48361z" fill="#a71717" stroke="none"/><path d="M282.8646,114.16365l98.01743,-2.41055l-13.06228,91.63027l-92.66281,24.61512l-35.81687,-9.48361z" fill="none" stroke="#000000"/></g><g stroke-linecap="round"><path d="M293.43951,117.14002c-6.54055,-3.60076 -8.6873,-78.08515 0.40497,-85.93697c22.3222,-19.27677 85.63607,-14.1136 99.68968,-1.04519c14.97897,13.92891 4.52342,78.91906 -1.93478,91.86984c-4.17879,8.37983 -88.67574,0.33364 -98.15986,-4.88766z" fill="#ffe323" stroke="none"/><path d="M293.43951,117.14002c-6.54055,-3.60076 -8.6873,-78.08515 0.40497,-85.93697c11.40871,-9.85225 -5.58861,44.60419 17.19285,68.79255c21.79249,23.13831 83.71951,15.70039 80.56205,22.0321c-4.17879,8.37983 -88.67574,0.33364 -98.15986,-4.88766z" fill="#d6943b" stroke="none"/><path d="M293.43951,117.14002c-6.54055,-3.60076 -8.6873,-78.08515 0.40497,-85.93697c22.3222,-19.27677 85.63607,-14.1136 99.68968,-1.04519c14.97897,13.92891 4.52342,78.91906 -1.93478,91.86984c-4.17879,8.37983 -88.67574,0.33364 -98.15986,-4.88766z" fill="none" stroke="#000000"/></g><path d="M325.27799,68.57845c0,0 4.20227,-25.16995 15.94233,-24.93865c11.74005,0.2313 29.28637,25.82973 29.28637,25.82973l28.45141,-17.14798" fill="none" stroke="#000000" stroke-linecap="round"/><g fill="none" stroke="#000000" stroke-linecap="round"><path d="M350.7135,81.79007l0.21545,-17.33864"/><path d="M384.62081,70.17455l0.2707,10.5001"/></g><path d="M360.36013,109.84799c0,0 -33.9095,5.3649 -45.69212,0.83581c-0.28021,-0.10772 -11.79804,-22.9343 -11.79804,-22.9343c0,0 -0.95958,-1.02608 0.6928,-0.05516c8.32816,4.89353 37.04208,21.36349 57.32199,22.41163c24.30361,1.25612 26.07696,-5.78653 26.07696,-5.78653" fill="#ffffff" stroke="#000000" stroke-linecap="round"/><g><path d="M504.25881,293.45599c37.06466,-10.5588 92.24783,-9.94144 123.25506,1.3789c31.00724,11.32035 26.09673,29.05689 -10.96791,39.61569c-37.06466,10.5588 -92.24783,9.94144 -123.25507,-1.37891c-31.00724,-11.32035 -26.09674,-29.05689 10.96791,-39.61569z" fill="#d61313" stroke="#000000" stroke-linecap="butt"/><path d="M539.34691,296.01083c0,0 11.27276,-1.50774 16.96441,-1.85618c5.26625,-0.3224 16.00846,-0.16246 16.00846,-0.16246" fill="none" stroke="#ffffff" stroke-linecap="round"/></g><path d="M351.78403,139.75353c15.32854,4.72167 31.43692,9.6652 45.60546,14.23968c15.77763,5.09396 32.16202,-14.01179 40.95022,-9.20095c5.61741,3.07515 -17.88934,21.71495 -15.10348,24.41188c4.40087,4.26035 18.11358,2.10337 18.11358,2.10337c0,0 10.58045,17.76392 2.34513,23.8986c-8.49105,6.32517 -7.58581,19.73036 -10.02413,24.37856c-2.86901,5.4691 -16.25124,5.77374 -16.25124,5.77374c0,0 -12.01495,-3.70035 -25.94122,-11.29808c-3.05026,-1.66413 -3.32409,-6.5594 -6.80393,-8.22554c-13.74198,-6.57957 -30.56126,-14.05875 -46.35046,-21.33624c-29.03269,-13.38158 -55.50806,-26.09978 -59.50088,-31.42059c-4.74938,-6.3291 -9.91009,-37.44471 0.96946,-34.64129c0,0 40.77503,11.70123 71.99142,21.31683z" data-paper-data="{&quot;index&quot;:null}" fill="#ffe323" stroke="#000000" stroke-linecap="round"/></g></g></svg>