<svg version="1.1" xmlns="http://www.w3.org/2000/svg" xmlns:xlink="http://www.w3.org/1999/xlink" width="39.63619" height="37.89514" viewBox="0,0,39.63619,37.89514"><g transform="translate(-300.23497,-161.05244)"><g data-paper-data="{&quot;isPaintingLayer&quot;:true}" fill-rule="nonzero" stroke-linecap="butt" stroke-linejoin="miter" stroke-miterlimit="10" stroke-dasharray="" stroke-dashoffset="0" style="mix-blend-mode: normal"><path d="M333.12314,174.66941c1.2299,0.90631 3.68549,3.54839 3.68549,3.54839c0,0 -8.84104,17.99967 -16.06136,18.01208c-6.87269,0.01181 -17.55591,-16.19318 -17.55591,-16.19318c0,0 1.14523,-2.69378 2.11266,-3.89304c1.05565,-1.3086 3.97968,-3.65918 3.97968,-3.65918l5.00624,5.99003c0,0 -0.24338,-4.24418 -0.25412,-6.45762c-0.01137,-2.34234 0.1877,-7.23162 0.1877,-7.23162c0,0 3.95945,-1.01514 5.85906,-1.01514c1.43102,0 5.63909,1.58741 5.63909,1.58741c0,0 0.12346,4.61296 0.0744,6.89144c-0.04827,2.24177 -0.36644,6.67112 -0.36644,6.67112l4.34653,-5.8845c0,0 2.24735,0.8235 3.34698,1.63382z" data-paper-data="{&quot;index&quot;:null}" fill="#00efff" stroke="#ffffff" stroke-width="2"/><path d="M334.10774,174.26948c1.32219,0.97432 3.96201,3.81462 3.96201,3.81462c0,0 -9.50437,19.35014 -17.26641,19.36348c-7.38833,0.0127 -18.87309,-17.40811 -18.87309,-17.40811c0,0 1.23114,-2.8959 2.27116,-4.18513c1.13484,-1.40678 4.27826,-3.93372 4.27826,-3.93372l5.38185,6.43944c0,0 -0.26165,-4.56261 -0.2732,-6.94212c-0.01221,-2.51807 0.20179,-7.77419 0.20179,-7.77419c0,0 4.25651,-1.09131 6.29865,-1.09131c1.53839,0 6.06218,1.70651 6.06218,1.70651c0,0 0.13273,4.95905 0.07999,7.40849c-0.0519,2.40996 -0.39394,7.17164 -0.39394,7.17164l4.67265,-6.326c0,0 2.41595,0.88529 3.59809,1.7564z" data-paper-data="{&quot;index&quot;:null}" fill="#1c1d25" stroke="#000000" stroke-width="3"/></g></g></svg>