<svg version="1.1" xmlns="http://www.w3.org/2000/svg" xmlns:xlink="http://www.w3.org/1999/xlink" width="349.88655" height="375.0447" viewBox="0,0,349.88655,375.0447"><g transform="translate(-153.53152,-1.95298)"><g data-paper-data="{&quot;isPaintingLayer&quot;:true}" fill-rule="nonzero" stroke-width="8" stroke-linejoin="miter" stroke-miterlimit="10" stroke-dasharray="" stroke-dashoffset="0" style="mix-blend-mode: normal"><g data-paper-data="{&quot;index&quot;:null}" stroke-linecap="round"><path d="M259.55517,201.09326l39.90642,15.02089l-52.96654,134.46037l-47.75748,21.68399l-39.21547,-15.61432z" data-paper-data="{&quot;index&quot;:null}" fill="#242a3a" stroke="none"/><path d="M255.03022,215.90149l15.02902,3.20212l-72.3721,155.98443l-35.99653,-20.16835z" data-paper-data="{&quot;index&quot;:null}" fill="#1b202d" stroke="none"/><path d="M259.55517,201.48609l39.90642,15.02089l-52.96654,134.46037l-47.75748,21.68399l-39.21547,-15.61432z" data-paper-data="{&quot;index&quot;:null}" fill="none" stroke="#000000"/></g><g fill="#d6943b" stroke="#000000" stroke-linecap="round"><g><path d="M332.08808,147.56293c7.16469,-6.98142 25.96192,-23.96874 46.37677,-41.94353c10.94496,-9.63678 22.35491,-19.55739 32.68656,-28.37206c10.85608,-9.26207 32.64452,-24.14721 32.64452,-24.14721c0,0 18.2979,1.41594 19.38401,10.9249c1.11985,9.80425 11.81223,16.24337 14.30835,20.56415c2.93699,5.08388 -2.7192,15.3985 -2.7192,15.3985c0,0 -8.12983,7.14829 -20.09365,13.67486c-2.62043,1.4295 -6.50004,-0.96497 -9.31111,0.78938c-11.59593,7.23689 -25.23037,16.18222 -38.28238,24.61427c-22.41798,14.48274 -43.11789,27.45107 -48.81944,27.64698c-6.95055,0.23876 -33.11579,-12.3865 -26.17448,-19.15019z" data-paper-data="{&quot;index&quot;:null}"/><path d="M449.74059,113.30444l-19.33521,-45.94408"/></g><path d="M425.08587,69.84904c0,0 12.62997,19.81831 13.01582,26.20463c0.38584,6.38635 -2.06057,11.78963 -11.01775,6.8669c-8.9572,-4.92278 -15.83652,-21.62559 -15.83652,-21.62559z"/></g><g stroke-linecap="round"><path d="M419.61785,340.3518l-38.63708,15.61432l-47.0531,-21.68399l-14.53672,-144.68454l39.31784,-15.02089z" data-paper-data="{&quot;index&quot;:null}" fill="#242a3a" stroke="none"/><path d="M380.98075,355.96612l-47.0531,-21.68399l-14.53672,-144.68454l17.70423,-3.8z" data-paper-data="{&quot;index&quot;:null}" fill="#1b202d" stroke="none"/><path d="M419.61785,340.74463l-38.63708,15.61432l-47.0531,-21.68399l-14.53672,-144.68454l39.31784,-15.02089z" data-paper-data="{&quot;index&quot;:null}" fill="none" stroke="#000000"/></g><g stroke-linecap="round"><path d="M284.40069,117.23585l98.01743,-2.41055l-13.06228,91.63027l-92.66281,24.61512l-35.81687,-9.48361z" fill="#ea2020" stroke="none"/><path d="M284.40068,117.23586l14.91843,-0.99952l-22.62607,114.83433l-35.81687,-9.48361z" fill="#a71717" stroke="none"/><path d="M284.40069,117.23585l98.01743,-2.41055l-13.06228,91.63027l-92.66281,24.61512l-35.81687,-9.48361z" fill="none" stroke="#000000"/></g><g stroke-linecap="round"><path d="M280.65865,113.27915c-7.03665,-2.49595 -21.19736,-75.65336 -13.49415,-84.87187c18.91198,-22.63209 82.22765,-27.77306 98.2092,-17.14869c17.03385,11.32395 17.22308,77.1495 12.94365,90.97402c-2.76901,8.94519 -87.4552,14.66583 -97.6587,11.04655z" fill="#ffe323" stroke="none"/><path d="M280.65865,113.27915c-7.03665,-2.49595 -21.19736,-75.65336 -13.49415,-84.87187c9.66576,-11.56713 1.69626,44.92092 28.08864,65.10789c25.24666,19.31062 85.15646,1.95856 83.06421,8.71745c-2.76901,8.94519 -87.4552,14.66583 -97.6587,11.04655z" fill="#d6943b" stroke="none"/><path d="M280.65865,113.27915c-7.03665,-2.49595 -21.19736,-75.65336 -13.49415,-84.87187c18.91198,-22.63209 82.22765,-27.77306 98.2092,-17.14869c17.03385,11.32395 17.22308,77.1495 12.94365,90.97402c-2.76901,8.94519 -87.4552,14.66583 -97.6587,11.04655z" fill="none" stroke="#000000"/></g><path d="M303.55798,49.92406c0,0 5.64251,-24.88669 17.34985,-23.98076c11.70733,0.90593 27.75279,27.47087 27.75279,27.47087l29.3903,-15.48375" fill="none" stroke="#000000" stroke-linecap="round"/><g fill="none" stroke="#000000" stroke-linecap="round"><path d="M331.07684,48.38542l-1.06808,17.30705"/><path d="M364.20026,66.25963l0.24613,-10.5007"/></g><path d="M350.09342,85.17499c0,0 -32.59603,10.77661 -44.95587,8.21205c-0.29394,-0.061 -15.35071,-20.72514 -15.35071,-20.72514c0,0 -1.11285,-0.85744 0.67477,-0.16644c9.00975,3.4827 40.00869,15.09369 60.19125,12.8493c24.18696,-2.68967 24.79836,-9.92637 24.79836,-9.92637" fill="#ffffff" stroke="#000000" stroke-linecap="round"/><g><path d="M401.72461,127.55815c-7.98434,-32.3906 7.41251,-40.70313 34.38981,-18.56659c26.97732,22.13657 55.31931,66.33953 63.30366,98.73013c7.98434,32.3906 -7.41251,40.70313 -34.38983,18.56656c-26.97732,-22.13657 -55.31932,-66.33953 -63.30366,-98.73013z" fill="#d61313" stroke="#000000" stroke-linecap="butt"/><path d="M415.12574,127.55496c0,0 0.41669,-5.68946 1.31649,-7.55359c0.83255,-1.72481 3.89618,-3.24583 3.89618,-3.24583" fill="none" stroke="#ffffff" stroke-linecap="round"/></g><path d="M341.8674,111.23129c13.97361,-7.87378 28.64482,-16.16077 41.71344,-23.29411c14.55277,-7.94348 11.9632,-32.9789 21.50115,-36.0455c6.0967,-1.96013 3.44732,27.92281 7.3212,27.75707c6.11961,-0.26185 13.99008,-11.6963 13.99008,-11.6963c0,0 20.17023,4.54582 18.95503,14.74279c-1.25295,10.5136 9.09705,19.08076 10.79209,24.04845c1.99435,5.84507 -6.99281,15.76513 -6.99281,15.76513c0,0 -10.95246,6.17213 -26.04812,11.0494c-3.30639,1.06826 -7.04693,-2.10144 -10.65037,-0.72285c-14.23005,5.44413 -31.23034,12.5022 -47.37549,18.95161c-29.68717,11.85899 -57.1333,22.31881 -63.74163,21.55487c-7.86055,-0.90875 -33.98978,-18.57447 -24.46941,-24.5399c0,0 36.54769,-21.53574 65.00477,-37.57062z" data-paper-data="{&quot;index&quot;:null}" fill="#ffe323" stroke="#000000" stroke-linecap="round"/></g></g></svg>