<svg version="1.1" xmlns="http://www.w3.org/2000/svg" xmlns:xlink="http://www.w3.org/1999/xlink" width="331.69579" height="524.7044" viewBox="0,0,331.69579,524.7044"><defs><linearGradient x1="136.02301" y1="-11.44281" x2="85.03583" y2="-69.20978" gradientUnits="userSpaceOnUse" id="color-1"><stop offset="0" stop-color="#ff0000"/><stop offset="1" stop-color="#ff0000" stop-opacity="0"/></linearGradient><linearGradient x1="226.10597" y1="-45.08412" x2="283.05592" y2="6.81404" gradientUnits="userSpaceOnUse" id="color-2"><stop offset="0" stop-color="#ff0000"/><stop offset="1" stop-color="#ff0000" stop-opacity="0"/></linearGradient><linearGradient x1="177.19045" y1="-74.07119" x2="241.49217" y2="-116.5212" gradientUnits="userSpaceOnUse" id="color-3"><stop offset="0" stop-color="#ff0000"/><stop offset="1" stop-color="#ff0000" stop-opacity="0"/></linearGradient><linearGradient x1="197.96526" y1="19.81749" x2="138.64524" y2="68.98913" gradientUnits="userSpaceOnUse" id="color-4"><stop offset="0" stop-color="#ff0000"/><stop offset="1" stop-color="#ff0000" stop-opacity="0"/></linearGradient></defs><g transform="translate(-51.18532,151.18672)"><g data-paper-data="{&quot;isPaintingLayer&quot;:true}" fill-rule="nonzero" stroke-linejoin="miter" stroke-miterlimit="10" stroke-dasharray="" stroke-dashoffset="0" style="mix-blend-mode: normal"><g stroke="none" stroke-width="3.5" stroke-linecap="butt"><path d="M118.46679,-120.73928l46.43971,83.80289l-113.72118,-24.05083z" fill="url(#color-1)"/><path d="M255.40911,61.6645l-55.25222,-78.27364l115.65846,11.57889z" fill="url(#color-2)"/><path d="M287.86666,-76.2431l-89.4512,34.32277l39.646,-109.26639z" fill="url(#color-3)"/><path d="M88.17702,33.97661l85.20243,-43.81913l-27.56513,112.92083z" fill="url(#color-4)"/></g><g fill="#d6943b" stroke="#000000" stroke-width="8" stroke-linecap="round"><g><path d="M318.78618,88.59915c-8.68849,-5.99182 -30.10787,-21.90478 -52.87947,-39.25604c-12.20847,-9.30249 -24.80562,-19.01842 -36.03798,-27.84059c-11.80247,-9.26997 -31.65629,-28.41278 -31.65629,-28.41278c0,0 -2.2683,-18.09624 7.35277,-20.53853c9.91982,-2.51815 14.40303,-13.90731 18.36608,-16.9751c4.66299,-3.60963 16.49383,0.42339 16.49383,0.42339c0,0 9.05817,6.91122 18.2552,17.6614c2.01441,2.3546 0.32758,6.49547 2.71715,8.98931c9.85718,10.28736 21.89878,22.31984 33.2902,33.85736c19.56573,19.81676 37.21334,38.17348 38.57959,43.71971c1.6655,6.76122 -6.06352,34.1769 -14.48107,28.3719z" data-paper-data="{&quot;index&quot;:null}"/><path d="M215.70572,4.11224l43.61099,-25.57432"/></g><path d="M219.36725,8.95211c0,0 17.93659,-15.22579 24.4683,-16.53012c6.53176,-1.30432 12.6239,0.3033 9.35623,9.77575c-3.26771,9.47247 -19.15293,18.62333 -19.15293,18.62333z"/></g><g stroke-width="8" stroke-linecap="round"><path d="M232.11461,193.91033l48.30249,4.32685l-21.65627,150.18098l-45.38808,20.72617l-36.86778,-15.77737z" fill="#242a3a" stroke="none"/><path d="M232.11461,193.91033l24.37685,4.38075l-43.1187,170.85326l-36.86778,-15.77737z" fill="#1b202d" stroke="none"/><path d="M232.11462,193.91033l48.30249,4.32685l-21.65628,150.18098l-45.38808,20.72617l-36.86778,-15.77737z" fill="none" stroke="#000000"/></g><g stroke-width="8" stroke-linecap="round"><path d="M378.36581,339.21867l-37.05842,15.32419l-45.13058,-21.28108l13.16003,-170.34507l36.77679,-0.41156z" data-paper-data="{&quot;index&quot;:null}" fill="#242a3a" stroke="none"/><path d="M340.99584,354.54286l-45.13058,-21.28108l13.16003,-170.34507l16.98086,0.00892z" data-paper-data="{&quot;index&quot;:null}" fill="#1b202d" stroke="none"/><path d="M378.36581,339.6042l-37.05842,15.32419l-45.13058,-21.28108l13.16003,-170.34507l36.77679,-0.41156z" data-paper-data="{&quot;index&quot;:null}" fill="none" stroke="#000000"/></g><g stroke-width="8" stroke-linecap="round"><path d="M243.10442,95.92503l89.73423,-28.1377l12.69431,89.90444l-78.80149,47.67595l-35.58841,0.50249z" fill="#ea2020" stroke="none"/><path d="M243.10443,95.92505l13.4869,-4.87952l10.14014,114.32219l-35.5884,0.50249z" fill="#a71717" stroke="none"/><path d="M243.10442,95.92503l89.73423,-28.1377l12.69431,89.90444l-78.80149,47.67595l-35.58841,0.50249z" fill="none" stroke="#000000"/></g><g stroke-width="8" stroke-linecap="round"><path d="M240.14647,84.97936c-7.00343,-1.67169 -29.09322,-71.38502 -22.82887,-81.19273c15.37946,-24.07862 75.15723,-35.91312 91.6449,-27.29066c17.5733,9.19023 25.47872,73.27056 23.02001,87.19435c-1.59091,9.00943 -81.68069,23.71309 -91.83602,21.28906z" fill="#ffe323" stroke="none"/><path d="M240.14647,84.97936c-7.00343,-1.67169 -29.09322,-71.38502 -22.82887,-81.19273c7.86032,-12.30643 6.88934,43.56095 34.42754,60.37269c26.34273,16.08192 81.43945,-7.27642 80.23738,-0.46899c-1.59091,9.00943 -81.68069,23.71309 -91.83602,21.28906z" fill="#d6943b" stroke="none"/><path d="M240.14647,84.97936c-7.00343,-1.67169 -29.09322,-71.38502 -22.82887,-81.19273c15.37946,-24.07862 75.15723,-35.91312 91.6449,-27.29066c17.5733,9.19023 25.47872,73.27056 23.02001,87.19435c-1.59091,9.00943 -81.68069,23.71309 -91.83602,21.28906z" fill="none" stroke="#000000"/></g><path d="M254.39708,26.202c0,0 1.57142,-33.99512 12.75316,-35.34266c11.18176,-1.34753 30.32469,30.15124 30.32469,30.15124l24.67166,-20.4749" fill="none" stroke="#000000" stroke-width="8" stroke-linecap="round"/><g fill="none" stroke="#000000" stroke-width="8" stroke-linecap="round"><path d="M278.22699,18.28173l2.15526,17.10708"/><path d="M312.69748,29.61888l-1.6863,-10.30504"/></g><path d="M299.88735,60.44106c0,0 -57.24209,14.70425 -69.33005,13.53982c-0.28747,-0.02771 10.35009,-19.2213 10.35009,-19.2213c0,0 -1.16189,-0.71496 0.62396,-0.23485c9.00088,2.4198 39.92569,10.38349 58.90943,6.02132c22.7503,-5.22762 22.48409,-12.34065 22.48409,-12.34065" fill="#ffffff" stroke="#000000" stroke-width="8" stroke-linecap="round"/><g stroke-width="8"><path d="M115.64442,-28.4713c3.87211,-28.57039 33.58652,-48.99561 66.36903,-45.62102c32.78252,3.37459 56.21902,29.27109 52.34692,57.84147c-3.87211,28.5704 -33.58651,48.9956 -66.36903,45.62102c-32.78251,-3.37458 -56.21902,-29.27109 -52.34693,-57.84145z" fill="#d61313" stroke="#000000" stroke-linecap="butt"/><path d="M137.708,-38.53219c0,0 3.67497,-6.3837 6.13562,-9.04814c2.27672,-2.46529 8.11936,-6.38755 8.11936,-6.38755" fill="none" stroke="#ffffff" stroke-linecap="round"/></g><path d="M179.10405,73.07412c-11.11288,-11.94321 -22.80376,-24.47906 -32.931,-35.68965c-11.27735,-12.48371 -22.44338,9.29401 -27.36597,0.7327c-3.14648,-5.47242 14.37294,-23.10856 13.61941,-26.77726c-1.19035,-5.79546 -15.52564,-11.28107 -15.52564,-11.28107c0,0 2.31723,-20.06101 14.25869,-20.70917c12.3123,-0.66829 20.69464,-12.06782 26.18026,-14.56686c6.45445,-2.94037 19.20455,3.87983 19.20455,3.87983c0,0 8.71104,9.36092 16.52946,22.90659c1.71245,2.9669 -1.40177,7.09979 0.71186,10.29523c8.34681,12.61887 18.95785,27.59604 28.7425,41.86481c17.99175,26.23695 34.04388,50.58271 34.12164,57.02659c0.09243,7.66497 -16.49738,35.74112 -24.76205,27.71066c0,0 -30.15243,-31.07016 -52.78368,-55.39233z" data-paper-data="{&quot;index&quot;:null}" fill="#ffe323" stroke="#000000" stroke-width="8" stroke-linecap="round"/></g></g></svg>