<svg version="1.1" xmlns="http://www.w3.org/2000/svg" xmlns:xlink="http://www.w3.org/1999/xlink" width="532.24561" height="402.64519" viewBox="0,0,532.24561,402.64519"><g transform="translate(-101.88756,20.79701)"><g data-paper-data="{&quot;isPaintingLayer&quot;:true}" fill-rule="nonzero" stroke-width="6" stroke-linejoin="miter" stroke-miterlimit="10" stroke-dasharray="" stroke-dashoffset="0" style="mix-blend-mode: normal"><g stroke-linecap="round"><path d="M231.03928,203.11829l48.35191,3.73433l-19.81341,150.4352l-45.13056,21.28108l-37.05844,-15.32418z" fill="#242a3a" stroke="none"/><path d="M231.03928,203.11829l24.42873,4.08156l-41.02078,171.36906l-37.05844,-15.32418z" fill="#1b202d" stroke="none"/><path d="M231.03929,203.11829l48.35191,3.73433l-19.81342,150.4352l-45.13056,21.28108l-37.05844,-15.32418z" fill="none" stroke="#000000"/></g><g stroke-linecap="round"><path d="M414.2415,341.08782l-37.05842,15.32419l-45.13058,-21.28108l-13.94277,-141.99616l37.71137,-14.74178z" data-paper-data="{&quot;index&quot;:null}" fill="#242a3a" stroke="none"/><path d="M377.18306,356.41201l-45.13058,-21.28108l-13.94277,-141.99616l16.98086,-3.7294z" data-paper-data="{&quot;index&quot;:null}" fill="#1b202d" stroke="none"/><path d="M414.2415,341.47335l-37.05842,15.32419l-45.13058,-21.28108l-13.94277,-141.99616l37.71137,-14.74178z" data-paper-data="{&quot;index&quot;:null}" fill="none" stroke="#000000"/></g><g><path d="M526.95148,109.92017c0,-28.76899 23.32188,-52.09085 52.09085,-52.09085c28.76899,0 52.09085,23.32188 52.09085,52.09085c0,28.76899 -23.32187,52.09084 -52.09085,52.09084c-28.76899,0 -52.09085,-23.32187 -52.09085,-52.09084z" fill="#d61313" stroke="#000000" stroke-linecap="butt"/><path d="M544.8673,97.67323c0,0 2.43187,-6.71531 4.24901,-9.6129c1.68132,-2.68102 6.27803,-7.17347 6.27803,-7.17347" fill="none" stroke="#ffffff" stroke-linecap="round"/></g><g fill="#d6943b" stroke="#000000" stroke-linecap="round"><g><path d="M349.20706,92.68325c9.71012,-1.80542 34.49482,-5.49062 61.16593,-9.11761c14.29912,-1.94452 29.14045,-3.8723 42.49171,-5.48466c14.02893,-1.69419 40.26065,-2.16388 40.26065,-2.16388c0,0 14.79787,10.61596 10.77871,18.70289c-4.14393,8.33805 1.58715,18.98137 1.46097,23.69524c-0.14846,5.54641 -10.30999,10.77183 -10.30999,10.77183c0,0 -10.61614,1.43661 -24.16403,0.39166c-2.96738,-0.22888 -5.01666,-4.13666 -8.31466,-4.20745c-13.60468,-0.29205 -29.82766,-0.29027 -45.28947,-0.39237c-26.55704,-0.17539 -50.86861,-0.65734 -55.81061,-3.46117c-6.02461,-3.41809 -21.67654,-26.98539 -12.2692,-28.73447z" data-paper-data="{&quot;index&quot;:null}"/><path d="M474.34758,80.25047l-7.45987,46.38398"/></g><path d="M468.53849,79.4589c0,0 0.42369,22.23415 -2.5673,27.48711c-2.99101,5.25298 -7.87557,8.25836 -12.92157,-0.28473c-5.046,-8.54313 -2.20671,-25.32806 -2.20671,-25.32806z"/></g><g stroke-linecap="round"><path d="M269.70468,92.61449l93.79865,-6.76579l-8.30349,90.41574l-87.64792,28.29336l-34.75162,-7.68841z" fill="#ea2020" stroke="none"/><path d="M269.70468,92.61451l14.24724,-1.64996l-16.4,113.59324l-34.75162,-7.68841z" fill="#a71717" stroke="none"/><path d="M269.70468,92.61449l93.79865,-6.76579l-8.30349,90.41574l-87.64792,28.29336l-34.75162,-7.68841z" fill="none" stroke="#000000"/></g><path d="M211.41829,139.88669c-14.65537,3.7404 -30.04681,7.68673 -43.70184,10.96496c-15.20575,3.65053 -27.79768,10.08279 -37.28836,10.4337c-6.06646,0.22427 12.44103,-9.41905 8.82618,-10.30686c-5.7104,-1.40247 -15.51964,7.3835 -15.51964,7.3835c0,0 -17.62006,-9.78377 -14.23267,-19.18582c3.49257,-9.69401 -4.16402,-20.66351 -4.62617,-25.86146c-0.54373,-6.11597 9.96055,-13.15534 9.96055,-13.15534c0,0 11.48697,-2.93237 26.51306,-3.51049c3.29115,-0.12662 6.04197,3.90794 9.67641,3.5654c14.35253,-1.35272 31.62222,-3.49753 47.96688,-5.29245c30.05404,-3.30044 57.72742,-5.87086 63.66134,-3.35762c7.05836,2.98953 27.2681,26.90155 17.14977,30.02334c0,0 -38.54003,10.68185 -68.38549,18.29913z" data-paper-data="{&quot;index&quot;:null}" fill="#ffe323" stroke="#000000" stroke-linecap="round"/><g stroke-linecap="round"><path d="M269.34096,81.28203c-6.43192,-3.2362 -11.91201,-76.15997 -3.56167,-84.26584c20.5007,-19.90048 81.39832,-17.68265 95.46356,-5.50238c14.99136,12.98229 7.96096,77.16452 2.36865,90.15079c-3.61852,8.4028 -84.94392,4.31011 -94.27053,-0.38255z" fill="#ffe323" stroke="none"/><path d="M269.34096,81.28203c-6.43192,-3.2362 -11.91201,-76.15997 -3.56167,-84.26584c10.47776,-10.17101 -3.30438,43.9784 19.63399,66.668c21.94259,21.70461 80.93234,11.63134 78.19822,17.98041c-3.61852,8.4028 -84.94392,4.31011 -94.27053,-0.38255z" fill="#d6943b" stroke="none"/><path d="M269.34096,81.28203c-6.43192,-3.2362 -11.91201,-76.15997 -3.56167,-84.26584c20.5007,-19.90048 81.39832,-17.68265 95.46356,-5.50238c14.99136,12.98229 7.96096,77.16452 2.36865,90.15079c-3.61852,8.4028 -84.94392,4.31011 -94.27053,-0.38255z" fill="none" stroke="#000000"/></g><path d="M297.61316,32.24499c0,0 2.86934,-24.86392 14.12799,-25.1645c11.25865,-0.30056 29.24609,24.00653 29.24609,24.00653l26.47087,-18.08883" fill="none" stroke="#000000" stroke-linecap="round"/><g fill="none" stroke="#000000" stroke-linecap="round"><path d="M321.99939,27.04695l0.59046,17.00749"/><path d="M355.28417,41.42577l-0.74194,-10.28154"/></g><path d="M358.35433,64.51277c0,0 -1.37534,6.98387 -24.7181,6.84408c-19.47813,-0.11662 -47.74559,-14.97309 -55.94961,-19.39635c-1.62775,-0.87762 -0.66123,0.08519 -0.66123,0.08519c0,0 29.09643,13.65576 29.36985,13.74878c11.49696,3.91082 26.72649,5.33302 26.72649,5.33302" fill="#ffffff" stroke="#000000" stroke-linecap="round"/></g></g></svg>