<svg version="1.1" xmlns="http://www.w3.org/2000/svg" xmlns:xlink="http://www.w3.org/1999/xlink" width="240.24572" height="420.08669" viewBox="0,0,240.24572,420.08669"><g transform="translate(-179.74547,47.86576)"><g data-paper-data="{&quot;isPaintingLayer&quot;:true}" fill-rule="nonzero" stroke-width="8" stroke-linejoin="miter" stroke-miterlimit="10" stroke-dasharray="" stroke-dashoffset="0" style="mix-blend-mode: normal"><g fill="#d6943b" stroke="#000000" stroke-linecap="round"><g><path d="M350.17519,138.27241c-4.32146,-9.23361 -14.35082,-32.80225 -24.77621,-58.16486c-5.58933,-13.59758 -11.29249,-27.71082 -16.29091,-40.40709c-5.2521,-13.3407 -12.14661,-38.28626 -12.14661,-38.28626c0,0 7.91048,-14.07508 17.65866,-10.25502c10.05089,3.93864 20.19803,-1.51415 25.34069,-1.39536c6.05095,0.13977 14.1911,9.8018 14.1911,9.8018c0,0 4.14204,10.0953 6.30658,22.97926c0.47409,2.82195 -3.26489,4.77176 -2.53887,7.90811c2.99485,12.93775 6.94568,28.3654 10.59857,43.06919c6.27413,25.25509 11.66926,48.37487 9.83159,53.0753c-2.24028,5.7301 -23.98796,20.62068 -28.17462,11.675z" data-paper-data="{&quot;index&quot;:null}"/><path d="M306.23155,19.27027l52.11697,7.08235"/></g><path d="M306.78714,24.79476c0,0 24.00872,-0.40856 30.43334,2.43444c6.42465,2.84303 10.87281,7.48737 2.83651,12.28813c-8.03634,4.80078 -26.92989,2.10496 -26.92989,2.10496z"/></g><g stroke-linecap="round"><path d="M247.63556,212.50144l56.26573,3.30968l-23.05629,133.32862l-52.51714,18.86112l-43.12385,-13.58162z" fill="#242a3a" stroke="none"/><path d="M247.63556,212.50144l28.42702,3.61743l-47.73471,151.88202l-43.12385,-13.58162z" fill="#1b202d" stroke="none"/><path d="M247.63558,212.50144l56.26573,3.30968l-23.05631,133.32862l-52.51714,18.86112l-43.12385,-13.58162z" fill="none" stroke="#000000"/></g><g stroke-linecap="round"><path d="M415.23218,342.4916l-43.12382,13.58162l-52.51717,-18.86112l15.31395,-150.97447l42.79609,-0.36476z" data-paper-data="{&quot;index&quot;:null}" fill="#242a3a" stroke="none"/><path d="M371.74582,356.07322l-52.51717,-18.86112l15.31395,-150.97447l19.76014,0.0079z" data-paper-data="{&quot;index&quot;:null}" fill="#1b202d" stroke="none"/><path d="M415.23218,342.83329l-43.12382,13.58162l-52.51717,-18.86112l15.31395,-150.97447l42.79609,-0.36476z" data-paper-data="{&quot;index&quot;:null}" fill="none" stroke="#000000"/></g><g stroke-linecap="round"><path d="M263.53246,126.72387l106.40296,-19.48185l7.63616,80.26098l-95.25357,37.41614l-41.35738,-1.69677z" fill="#ea2020" stroke="none"/><path d="M263.53247,126.72389l16.04356,-3.50327l2.74199,101.69851l-41.35737,-1.69677z" fill="#a71717" stroke="none"/><path d="M263.53246,126.72387l106.40296,-19.48185l7.63616,80.26098l-95.25357,37.41614l-41.35738,-1.69677z" fill="none" stroke="#000000"/></g><g stroke-linecap="round"><path d="M260.96295,116.86729c-7.99884,-1.89953 -28.13798,-64.87195 -20.09041,-73.16745c19.75738,-20.36605 90.09345,-27.23419 108.5543,-18.61791c19.67641,9.18364 23.79265,66.32176 19.83825,78.48583c-2.55871,7.87079 -96.70339,16.05395 -108.30211,13.29954z" fill="#ffe323" stroke="none"/><path d="M260.96295,116.86729c-7.99884,-1.89953 -28.13798,-64.87195 -20.09041,-73.16745c10.09785,-10.40896 4.55745,38.93289 35.20095,55.4553c29.31322,15.80516 95.12494,-1.53448 93.19162,4.41262c-2.55871,7.87079 -96.70339,16.05395 -108.30211,13.29954z" fill="#d6943b" stroke="none"/><path d="M260.96295,116.86729c-7.99884,-1.89953 -28.13798,-64.87195 -20.09041,-73.16745c19.75738,-20.36605 90.09345,-27.23419 108.5543,-18.61791c19.67641,9.18364 23.79265,66.32176 19.83825,78.48583c-2.55871,7.87079 -96.70339,16.05395 -108.30211,13.29954z" fill="none" stroke="#000000"/></g><path d="M282.15067,65.75126c0,0 4.50975,-29.96537 17.59806,-30.48419c13.08832,-0.5188 32.82485,28.4854 32.82485,28.4854l30.26084,-16.62045" fill="none" stroke="#000000" stroke-linecap="round"/><g fill="none" stroke="#000000" stroke-linecap="round"><path d="M310.44254,60.18149l1.1509,15.25646"/><path d="M349.56679,72.28012l-1.14375,-9.2136"/></g><path d="M332.25967,98.7637c0,0 -67.61886,9.55826 -81.56084,7.80138c-0.33156,-0.0418 13.53466,-16.37358 13.53466,-16.37358c0,0 -1.29246,-0.70209 0.74296,-0.17012c10.25877,2.68121 45.53299,11.58357 67.91746,8.86847c26.82574,-3.25374 27.07856,-9.55942 27.07856,-9.55942" fill="#ffffff" stroke="#000000" stroke-linecap="round"/><g><path d="M246.51191,-31.62255c18.886,-18.00683 55.11221,-15.90693 80.91349,4.69025c25.80131,20.59719 31.40725,51.8919 12.52126,69.89873c-18.88601,18.00684 -55.11219,15.90693 -80.91349,-4.69025c-25.80131,-20.59718 -31.40725,-51.8919 -12.52127,-69.89873z" fill="#d61313" stroke="#000000" stroke-linecap="butt"/><path d="M270.61937,-26.46119c0,0 6.58941,-2.46209 10.1213,-2.97475c3.2679,-0.47434 10.33959,0.0048 10.33959,0.0048" fill="none" stroke="#ffffff" stroke-linecap="round"/></g><path d="M239.33864,72.88141c-2.45062,-14.34401 -5.04432,-29.41393 -7.099,-42.71621c-2.28802,-14.81294 -23.21818,-5.39275 -22.51537,-14.05446c0.44927,-5.53657 24.24931,-8.65163 25.64619,-11.64139c2.20667,-4.72293 -6.37865,-16.22646 -6.37865,-16.22646c0,0 12.84073,-12.92062 22.84515,-7.01953c10.31509,6.08434 23.32155,2.50449 29.12086,3.66213c6.82353,1.36214 13.39817,12.96325 13.39817,12.96325c0,0 1.92152,11.24312 0.83372,24.96359c-0.23825,3.00518 -5.01452,4.26302 -5.05354,7.64306c-0.15408,13.3479 0.2322,29.56536 0.33802,44.84298c0.19456,28.09201 -0.1443,53.81687 -3.60458,58.4049c-4.11605,5.4574 -32.87282,16.43361 -35.16102,6.3669c0,0 -7.37926,-37.97734 -12.36994,-67.18871z" data-paper-data="{&quot;index&quot;:null}" fill="#ffe323" stroke="#000000" stroke-linecap="round"/></g></g></svg>