<svg version="1.1" xmlns="http://www.w3.org/2000/svg" xmlns:xlink="http://www.w3.org/1999/xlink" width="528" height="263.84724" viewBox="0,0,528,263.84724"><g transform="translate(-64,-67.15275)"><g data-paper-data="{&quot;isPaintingLayer&quot;:true}" fill-rule="nonzero" stroke-linejoin="miter" stroke-miterlimit="10" stroke-dasharray="" stroke-dashoffset="0" style="mix-blend-mode: normal"><path d="M82.5,328.5c0,0 -16,-59.66492 -16,-88c0,-22.09859 16,-68 16,-68h507v156z" fill="#dadada" stroke="#000000" stroke-width="5" stroke-linecap="butt"/><path d="M195.0854,125.47608c-3.9563,29.30895 -27.94279,43.19359 -56.56697,39.3297c-28.62416,-3.86389 -51.04658,-24.01302 -47.09028,-53.322c3.9563,-29.30895 32.3122,-45.63378 60.93638,-41.76992c28.62416,3.86389 46.67717,26.45326 42.72087,55.76222z" fill="#b3b3b3" stroke="#000000" stroke-width="4" stroke-linecap="butt"/><path d="M190.12451,130.98865l-57.29116,-5.06363" fill="none" stroke="#000000" stroke-width="2" stroke-linecap="round"/><path d="M131.11727,90.60343l24.50188,16.27541" fill="none" stroke="#000000" stroke-width="2" stroke-linecap="round"/><path d="M174.66117,101.43961l11.05394,-8.4246" fill="none" stroke="#000000" stroke-width="2" stroke-linecap="round"/><path d="M132.6296,107.97109c0.35991,-2.66633 2.81316,-4.53602 5.47947,-4.17611c2.66633,0.35991 4.53602,2.81316 4.17611,5.47945c-0.35991,2.66633 -2.81316,4.53602 -5.47947,4.17611c-2.66633,-0.35991 -4.53602,-2.81316 -4.17611,-5.47945z" fill="#000000" stroke="none" stroke-width="0.5" stroke-linecap="butt"/><path d="M182.06372,106.25296c0.35991,-2.66633 2.81316,-4.53602 5.47947,-4.17611c2.66633,0.35991 4.53602,2.81316 4.17611,5.47945c-0.35991,2.66633 -2.81316,4.53602 -5.47947,4.17611c-2.66633,-0.35991 -4.53602,-2.81316 -4.17611,-5.47945z" fill="#000000" stroke="none" stroke-width="0.5" stroke-linecap="butt"/><text transform="translate(124.24178,214.04432) scale(0.69669,0.69669)" font-size="40" xml:space="preserve" fill="#000000" fill-rule="nonzero" stroke="none" stroke-width="1" stroke-linecap="butt" stroke-linejoin="miter" stroke-miterlimit="10" stroke-dasharray="" stroke-dashoffset="0" font-family="Sans Serif" font-weight="normal" text-anchor="start" style="mix-blend-mode: normal"><tspan x="0" dy="0">FUK YOURSELF</tspan></text></g></g></svg>