<svg version="1.1" xmlns="http://www.w3.org/2000/svg" xmlns:xlink="http://www.w3.org/1999/xlink" width="327.61102" height="373.92025" viewBox="0,0,327.61102,373.92025"><g transform="translate(-150.45933,-3.07743)"><g data-paper-data="{&quot;isPaintingLayer&quot;:true}" fill-rule="nonzero" stroke-width="8" stroke-linejoin="miter" stroke-miterlimit="10" stroke-dasharray="" stroke-dashoffset="0" style="mix-blend-mode: normal"><g data-paper-data="{&quot;index&quot;:null}" stroke-linecap="round"><path d="M256.48298,201.09326l39.90642,15.02089l-52.96654,134.46037l-47.75748,21.68399l-39.21547,-15.61432z" data-paper-data="{&quot;index&quot;:null}" fill="#242a3a" stroke="none"/><path d="M251.95803,215.90149l15.02902,3.20212l-72.3721,155.98443l-35.99653,-20.16835z" data-paper-data="{&quot;index&quot;:null}" fill="#1b202d" stroke="none"/><path d="M256.48298,201.48609l39.90642,15.02089l-52.96654,134.46037l-47.75748,21.68399l-39.21547,-15.61432z" data-paper-data="{&quot;index&quot;:null}" fill="none" stroke="#000000"/></g><g fill="#d6943b" stroke="#000000" stroke-linecap="round"><g><path d="M321.33539,149.09903c7.16469,-6.98142 25.96192,-23.96874 46.37677,-41.94353c10.94496,-9.63678 22.35491,-19.55739 32.68656,-28.37206c10.85608,-9.26207 32.64452,-24.14721 32.64452,-24.14721c0,0 18.2979,1.41594 19.38401,10.9249c1.11985,9.80425 11.81223,16.24337 14.30835,20.56415c2.93699,5.08388 -2.7192,15.3985 -2.7192,15.3985c0,0 -8.12983,7.14829 -20.09365,13.67486c-2.62043,1.4295 -6.50004,-0.96497 -9.31111,0.78938c-11.59593,7.23689 -25.23037,16.18222 -38.28238,24.61427c-22.41798,14.48274 -43.11789,27.45107 -48.81944,27.64698c-6.95055,0.23876 -33.11579,-12.3865 -26.17448,-19.15019z" data-paper-data="{&quot;index&quot;:null}"/><path d="M438.9879,114.84054l-19.33521,-45.94408"/></g><path d="M414.33318,71.38514c0,0 12.62997,19.81831 13.01582,26.20463c0.38584,6.38635 -2.06057,11.78963 -11.01775,6.8669c-8.9572,-4.92278 -15.83652,-21.62559 -15.83652,-21.62559z"/></g><g stroke-linecap="round"><path d="M416.54566,340.3518l-38.63708,15.61432l-47.0531,-21.68399l-14.53672,-144.68454l39.31784,-15.02089z" data-paper-data="{&quot;index&quot;:null}" fill="#242a3a" stroke="none"/><path d="M377.90856,355.96612l-47.0531,-21.68399l-14.53672,-144.68454l17.70423,-3.8z" data-paper-data="{&quot;index&quot;:null}" fill="#1b202d" stroke="none"/><path d="M416.54566,340.74463l-38.63708,15.61432l-47.0531,-21.68399l-14.53672,-144.68454l39.31784,-15.02089z" data-paper-data="{&quot;index&quot;:null}" fill="none" stroke="#000000"/></g><g stroke-linecap="round"><path d="M281.3285,117.23585l98.01743,-2.41055l-13.06228,91.63027l-92.66281,24.61512l-35.81687,-9.48361z" fill="#ea2020" stroke="none"/><path d="M281.32849,117.23586l14.91843,-0.99952l-22.62607,114.83433l-35.81687,-9.48361z" fill="#a71717" stroke="none"/><path d="M281.3285,117.23585l98.01743,-2.41055l-13.06228,91.63027l-92.66281,24.61512l-35.81687,-9.48361z" fill="none" stroke="#000000"/></g><g stroke-linecap="round"><path d="M271.42511,107.7459c-6.67984,-3.33526 -11.81526,-77.67341 -3.04557,-85.88394c21.53028,-20.15742 85.00039,-17.54034 99.56734,-5.0467c15.52611,13.3163 7.68822,78.67383 1.75517,91.87344c-3.83898,8.54085 -88.59085,3.89353 -98.27695,-0.94279z" fill="#ffe323" stroke="none"/><path d="M271.42511,107.7459c-6.67984,-3.33526 -11.81526,-77.67341 -3.04557,-85.88394c11.00396,-10.30235 -3.79333,44.7926 19.94087,68.04683c22.70388,22.24472 84.28235,12.32656 81.38164,18.77993c-3.83898,8.54085 -88.59085,3.89353 -98.27695,-0.94279z" fill="#d6943b" stroke="none"/><path d="M271.42511,107.7459c-6.67984,-3.33526 -11.81526,-77.67341 -3.04557,-85.88394c21.53028,-20.15742 85.00039,-17.54034 99.56734,-5.0467c15.52611,13.3163 7.68822,78.67383 1.75517,91.87344c-3.83898,8.54085 -88.59085,3.89353 -98.27695,-0.94279z" fill="none" stroke="#000000"/></g><path d="M301.8781,47.65545c0,0 8.6347,-24.01306 20.14424,-21.68649c11.50953,2.32657 24.19638,30.64965 24.19638,30.64965l31.05887,-11.78485" fill="none" stroke="#000000" stroke-linecap="round"/><g fill="none" stroke="#000000" stroke-linecap="round"><path d="M326.209,66.5312l3.17025,-17.04771"/><path d="M360.07626,71.26289l1.52458,-10.39235"/></g><path d="M343.76843,88.31717c0,0 -33.66677,6.72197 -45.62172,2.66959c-0.28431,-0.09638 -12.7093,-22.44214 -12.7093,-22.44214c0,0 -1.00001,-0.98673 0.69003,-0.08293c8.51791,4.55522 37.86992,19.8591 58.17555,20.09219c24.33445,0.27937 25.82361,-6.8288 25.82361,-6.8288" fill="#ffffff" stroke="#000000" stroke-linecap="round"/><g><path d="M389.72317,52.26806c24.92451,-16.16717 58.60451,-10.30191 75.22639,13.10038c16.62188,23.4023 9.89126,55.47968 -15.03324,71.64683c-24.92451,16.16717 -58.6045,10.3019 -75.22638,-13.1004c-16.62188,-23.4023 -9.89127,-55.47967 15.03323,-71.64683z" fill="#d61313" stroke="#000000" stroke-linecap="butt"/><path d="M410.68476,59.95943c0,0 7.22298,-1.79555 10.78326,-1.94573c3.29417,-0.13895 9.84214,1.07566 9.84214,1.07566" fill="none" stroke="#ffffff" stroke-linecap="round"/></g><path d="M331.11471,112.76739c13.97361,-7.87378 28.64482,-16.16077 41.71344,-23.29411c14.55277,-7.94348 11.9632,-32.9789 21.50115,-36.0455c6.0967,-1.96013 3.44732,27.92281 7.3212,27.75707c6.11961,-0.26185 13.99008,-11.6963 13.99008,-11.6963c0,0 20.17023,4.54582 18.95503,14.74279c-1.25295,10.5136 9.09705,19.08076 10.79209,24.04845c1.99435,5.84507 -6.99281,15.76513 -6.99281,15.76513c0,0 -10.95246,6.17213 -26.04812,11.0494c-3.30639,1.06826 -7.04693,-2.10144 -10.65037,-0.72285c-14.23005,5.44413 -31.23034,12.5022 -47.37549,18.95161c-29.68717,11.85899 -57.1333,22.31881 -63.74163,21.55487c-7.86055,-0.90875 -33.98978,-18.57447 -24.46941,-24.5399c0,0 36.54769,-21.53574 65.00477,-37.57062z" data-paper-data="{&quot;index&quot;:null}" fill="#ffe323" stroke="#000000" stroke-linecap="round"/></g></g></svg>