<svg version="1.1" xmlns="http://www.w3.org/2000/svg" xmlns:xlink="http://www.w3.org/1999/xlink" width="393.76977" height="356.57121" viewBox="0,0,393.76977,356.57121"><g transform="translate(-130.03805,-15.51301)"><g data-paper-data="{&quot;isPaintingLayer&quot;:true}" fill-rule="nonzero" stroke-width="8" stroke-linejoin="miter" stroke-miterlimit="10" stroke-dasharray="" stroke-dashoffset="0" style="mix-blend-mode: normal"><g stroke-linecap="round"><path d="M349.06216,220.80966l82.53119,2.96246l-33.81922,119.34093l-77.03271,16.88238l-63.25453,-12.15675z" fill="#242a3a" stroke="none"/><path d="M349.06216,220.80966l41.69705,3.23792l-70.01779,135.94786l-63.25453,-12.15675z" fill="#1b202d" stroke="none"/><path d="M349.06218,220.80966l82.53119,2.96246l-33.81924,119.34093l-77.03271,16.88238l-63.25453,-12.15675z" fill="none" stroke="#000000"/></g><g fill="#d6943b" stroke="#000000" stroke-linecap="round"><g><path d="M355.10442,165.98161c3.10799,-7.70057 12.49862,-27.06243 23.13878,-47.79021c5.7045,-11.11274 11.76819,-22.6181 17.41552,-32.92955c5.934,-10.83484 21.29015,-30.23602 21.29015,-30.23602c0,0 25.84459,-7.48411 36.14804,-1.96248c10.62342,5.69308 30.94713,4.8719 38.31327,6.46368c8.66713,1.8729 10.68258,10.99246 10.68258,10.99246c0,0 -4.24638,8.24822 -14.2105,17.85887c-2.18245,2.10501 -9.61074,2.36619 -11.74645,4.76413c-8.81008,9.89177 -18.76297,21.7986 -28.41278,33.11377c-16.57445,19.43478 -32.25496,37.1241 -39.71525,39.8594c-9.0946,3.33446 -55.91454,7.32643 -52.90342,-0.13401z" data-paper-data="{&quot;index&quot;:null}"/><path d="M480.93424,90.41184l-68.66613,-20.2266"/></g><path d="M407.45324,74.19686c0,0 35.36956,6.76028 41.82887,10.62603c6.45937,3.86577 8.20756,8.40643 -8.3793,9.39276c-16.58693,0.98632 -41.34928,-6.43566 -41.34928,-6.43566z"/></g><g stroke-linecap="round"><path d="M228.52336,228.8151l82.53119,2.96246l-33.81922,119.34093l-77.03271,16.88238l-63.25453,-12.15675z" fill="#242a3a" stroke="none"/><path d="M228.52336,228.8151l41.69705,3.23792l-70.01779,135.94786l-63.25453,-12.15675z" fill="#1b202d" stroke="none"/><path d="M228.52338,228.8151l82.53119,2.96246l-33.81924,119.34093l-77.03271,16.88238l-63.25453,-12.15675z" fill="none" stroke="#000000"/></g><g stroke-linecap="round"><path d="M292.34424,155.27301l160.46873,-1.87677l-21.38484,71.34005l-151.70244,19.16445l-58.6374,-7.3836z" fill="#ea2020" stroke="none"/><path d="M292.34423,155.27302l24.42363,-0.77819l-37.04215,89.4059l-58.6374,-7.3836z" fill="#a71717" stroke="none"/><path d="M292.34424,155.27301l160.46873,-1.87677l-21.38484,71.34005l-151.70244,19.16445l-58.6374,-7.3836z" fill="none" stroke="#000000"/></g><g stroke-linecap="round"><path d="M330.05001,155.53878c-9.71387,-3.57043 4.79377,-61.14842 21.4013,-66.07875c40.77268,-12.10429 141.9731,-0.39044 161.5581,11.38386c20.87458,12.5496 -11.73258,61.28104 -25.3089,70.45704c-8.78459,5.93736 -143.5649,-10.58483 -157.65048,-15.76214z" fill="#ffe323" stroke="none"/><path d="M330.05001,155.53878c-9.71387,-3.57043 4.79377,-61.14842 21.4013,-66.07875c20.83863,-6.18644 -19.8107,33.63953 11.2122,55.03769c29.67616,20.46923 131.67456,22.31701 125.037,26.80321c-8.78459,5.93736 -143.5649,-10.58483 -157.65048,-15.76214z" fill="#d6943b" stroke="none"/><path d="M330.05001,155.53878c-9.71387,-3.57043 4.79377,-61.14842 21.4013,-66.07875c40.77268,-12.10429 141.9731,-0.39044 161.5581,11.38386c20.87458,12.5496 -11.73258,61.28104 -25.3089,70.45704c-8.78459,5.93736 -143.5649,-10.58483 -157.65048,-15.76214z" fill="none" stroke="#000000"/></g><path d="M393.21281,122.31077c0,0 12.87588,-18.85443 31.81639,-17.24111c18.94049,1.61334 41.15211,23.45648 41.15211,23.45648l50.17633,-9.71683" fill="none" stroke="#000000" stroke-linecap="round"/><g fill="none" stroke="#000000" stroke-linecap="round"><path d="M431.25767,135.33947l4.53433,-13.3157"/><path d="M486.82967,138.65977l2.09681,-8.1129"/></g><path d="M440.09324,158.10935c0,0 -53.82092,14.56463 -71.79276,9.63896c-0.42739,-0.11714 -15.89607,-33.67247 -15.89607,-33.67247c0,0 -1.30497,-0.90688 1.13433,0.04226c12.29427,4.78376 54.77965,20.96794 87.34112,24.25392c39.02192,3.93796 43.5915,-1.26454 43.5915,-1.26454" fill="#ffffff" stroke="#000000" stroke-linecap="round"/><g><path d="M341.21778,43.48202c23.06459,-21.01482 76.03372,-29.88644 118.30984,-19.81536c42.27614,10.07109 57.85013,35.2712 34.78556,56.286c-23.06459,21.01482 -76.0337,29.88644 -118.30984,19.81535c-42.27614,-10.07109 -57.85015,-35.27119 -34.78558,-56.28599z" fill="#d61313" stroke="#000000" stroke-linecap="butt"/><path d="M377.36371,40.80777c0,0 8.95741,-4.05399 13.95077,-5.53448c4.62014,-1.36982 14.9767,-3.04226 14.9767,-3.04226" fill="none" stroke="#ffffff" stroke-linecap="round"/></g><path d="M338.42814,117.98426c14.93883,-10.3138 30.60906,-21.15656 44.74525,-30.64142c15.74156,-10.56202 -23.25901,-12.05037 -11.41151,-17.4784c7.57299,-3.46958 42.32856,3.20948 47.91283,1.75899c8.82148,-2.29133 12.2289,-12.98928 12.2289,-12.98928c0,0 32.94448,-3.77449 38.44923,3.76612c5.67567,7.77478 27.03998,10.19239 33.08858,13.078c7.11678,3.39528 0.98224,13.42025 0.98224,13.42025c0,0 -11.70852,8.08442 -30.44243,16.69193c-4.10327,1.8853 -11.87704,0.96024 -16.19565,3.16462c-17.05422,8.7052 -37.03213,19.4921 -56.18653,29.55926c-35.22049,18.51118 -68.14272,35.273 -78.41735,37.01627c-12.22165,2.07357 -63.32288,-1.26222 -53.57473,-8.70884c0,0 38.3984,-27.63351 68.82113,-48.63746z" data-paper-data="{&quot;index&quot;:null}" fill="#ffe323" stroke="#000000" stroke-linecap="round"/></g></g></svg>