<svg version="1.1" xmlns="http://www.w3.org/2000/svg" xmlns:xlink="http://www.w3.org/1999/xlink" width="325.15071" height="527.15631" viewBox="0,0,325.15071,527.15631"><defs><linearGradient x1="145.9478" y1="-55.7236" x2="164.04633" y2="-130.61792" gradientUnits="userSpaceOnUse" id="color-1"><stop offset="0" stop-color="#ff0000"/><stop offset="1" stop-color="#ff0000" stop-opacity="0"/></linearGradient><linearGradient x1="225.15741" y1="-1.20282" x2="215.28596" y2="75.21229" gradientUnits="userSpaceOnUse" id="color-2"><stop offset="0" stop-color="#ff0000"/><stop offset="1" stop-color="#ff0000" stop-opacity="0"/></linearGradient><linearGradient x1="220.86333" y1="-57.89973" x2="292.50936" y2="-29.55256" gradientUnits="userSpaceOnUse" id="color-3"><stop offset="0" stop-color="#ff0000"/><stop offset="1" stop-color="#ff0000" stop-opacity="0"/></linearGradient><linearGradient x1="155.84781" y1="12.94982" x2="81.55063" y2="-7.46205" gradientUnits="userSpaceOnUse" id="color-4"><stop offset="0" stop-color="#ff0000"/><stop offset="1" stop-color="#ff0000" stop-opacity="0"/></linearGradient></defs><g transform="translate(-57.7304,153.63863)"><g data-paper-data="{&quot;isPaintingLayer&quot;:true}" fill-rule="nonzero" stroke-linejoin="miter" stroke-miterlimit="10" stroke-dasharray="" stroke-dashoffset="0" style="mix-blend-mode: normal"><g stroke="none" stroke-width="3.5" stroke-linecap="butt"><path d="M225.43272,-132.76962l-42.03776,86.09528l-45.49274,-106.96429z" fill="url(#color-1)"/><path d="M154.49476,84.0071l32.45509,-90.14565l56.82209,101.40118z" fill="url(#color-2)"/><path d="M286.0955,31.53575l-79.40575,-53.61246l112.25532,-30.1611z" fill="url(#color-3)"/><path d="M81.30321,-68.88564l84.75053,44.68688l-108.32334,42.15451z" fill="url(#color-4)"/></g><g fill="#d6943b" stroke="#000000" stroke-width="8" stroke-linecap="round"><g><path d="M323.69696,85.6721c-8.12217,-5.61926 -28.19864,-20.61254 -49.56278,-36.98558c-11.45389,-8.77804 -23.27791,-17.9527 -33.8283,-26.29206c-11.08589,-8.76266 -29.89976,-27.04823 -29.89976,-27.04823c0,0 -2.89119,-17.981 5.67958,-20.82596c8.8369,-2.93333 12.35278,-14.49898 15.78707,-17.73039c4.04084,-3.80215 14.90819,-0.27194 14.90819,-0.27194c0,0 8.49873,6.52209 17.30178,16.87312c1.92812,2.26717 0.59853,6.47461 2.87177,8.86506c9.37737,9.8609 20.80791,21.37299 31.62847,32.41805c18.58525,18.97092 35.37099,36.5642 36.86283,42.04684c1.81861,6.6837 -3.87997,34.39519 -11.74887,28.95113z" data-paper-data="{&quot;index&quot;:null}"/><path d="M264.88457,-21.76404l-38.17394,27.38381"/></g><path d="M230.24141,10.30012c0,0 15.48094,-15.96489 21.3161,-17.54298c5.8352,-1.57808 11.40934,-0.22887 8.90132,9.37095c-2.50804,9.59984 -16.4205,19.40998 -16.4205,19.40998z"/></g><g stroke-width="8" stroke-linecap="round"><path d="M232.11461,193.91033l48.30249,4.32685l-21.65627,150.18098l-45.38808,20.72617l-36.86778,-15.77737z" fill="#242a3a" stroke="none"/><path d="M232.11461,193.91033l24.37685,4.38075l-43.1187,170.85326l-36.86778,-15.77737z" fill="#1b202d" stroke="none"/><path d="M232.11462,193.91033l48.30249,4.32685l-21.65628,150.18098l-45.38808,20.72617l-36.86778,-15.77737z" fill="none" stroke="#000000"/></g><g stroke-width="8" stroke-linecap="round"><path d="M378.36581,339.21867l-37.05842,15.32419l-45.13058,-21.28108l13.16003,-170.34507l36.77679,-0.41156z" data-paper-data="{&quot;index&quot;:null}" fill="#242a3a" stroke="none"/><path d="M340.99584,354.54286l-45.13058,-21.28108l13.16003,-170.34507l16.98086,0.00892z" data-paper-data="{&quot;index&quot;:null}" fill="#1b202d" stroke="none"/><path d="M378.36581,339.6042l-37.05842,15.32419l-45.13058,-21.28108l13.16003,-170.34507l36.77679,-0.41156z" data-paper-data="{&quot;index&quot;:null}" fill="none" stroke="#000000"/></g><g stroke-width="8" stroke-linecap="round"><path d="M243.10442,95.92503l89.73423,-28.1377l12.69431,89.90444l-78.80149,47.67595l-35.58841,0.50249z" fill="#ea2020" stroke="none"/><path d="M243.10443,95.92505l13.4869,-4.87952l10.14014,114.32219l-35.5884,0.50249z" fill="#a71717" stroke="none"/><path d="M243.10442,95.92503l89.73423,-28.1377l12.69431,89.90444l-78.80149,47.67595l-35.58841,0.50249z" fill="none" stroke="#000000"/></g><g stroke-width="8" stroke-linecap="round"><path d="M236.84396,86.30036c-7.00343,-1.67169 -29.09322,-71.38502 -22.82887,-81.19273c15.37946,-24.07862 75.15723,-35.91312 91.6449,-27.29066c17.5733,9.19023 25.47872,73.27056 23.02001,87.19435c-1.59091,9.00943 -81.68069,23.71309 -91.83602,21.28906z" fill="#ffe323" stroke="none"/><path d="M236.84396,86.30036c-7.00343,-1.67169 -29.09322,-71.38502 -22.82887,-81.19273c7.86032,-12.30643 6.88934,43.56095 34.42754,60.37269c26.34273,16.08192 81.43945,-7.27642 80.23738,-0.46899c-1.59091,9.00943 -81.68069,23.71309 -91.83602,21.28906z" fill="#d6943b" stroke="none"/><path d="M236.84396,86.30036c-7.00343,-1.67169 -29.09322,-71.38502 -22.82887,-81.19273c15.37946,-24.07862 75.15723,-35.91312 91.6449,-27.29066c17.5733,9.19023 25.47872,73.27056 23.02001,87.19435c-1.59091,9.00943 -81.68069,23.71309 -91.83602,21.28906z" fill="none" stroke="#000000"/></g><path d="M250.60413,26.64823c0,0 1.57142,-33.99512 12.75316,-35.34266c11.18176,-1.34753 30.32469,30.15124 30.32469,30.15124l24.67166,-20.4749" fill="none" stroke="#000000" stroke-width="8" stroke-linecap="round"/><g fill="none" stroke="#000000" stroke-width="8" stroke-linecap="round"><path d="M274.88027,18.72796l2.15526,17.10708"/><path d="M309.35076,30.06511l-1.6863,-10.30504"/></g><path d="M292.97491,60.44106c0,0 -57.24209,14.70425 -69.33005,13.53982c-0.28747,-0.02771 10.35009,-19.2213 10.35009,-19.2213c0,0 -1.16189,-0.71496 0.62396,-0.23485c9.00088,2.4198 39.92569,10.38349 58.90943,6.02132c22.7503,-5.22762 22.48409,-12.34065 22.48409,-12.34065" fill="#ffffff" stroke="#000000" stroke-width="8" stroke-linecap="round"/><g stroke-width="8"><path d="M126.12417,-22.30467c2.03893,-28.69665 26.95503,-50.30699 55.65167,-48.26806c28.69665,2.03893 50.30698,26.95503 48.26806,55.65167c-2.03893,28.69666 -26.95502,50.30698 -55.65167,48.26806c-28.69664,-2.03892 -50.30698,-26.95503 -48.26806,-55.65165z" fill="#d61313" stroke="#000000" stroke-linecap="butt"/><path d="M144.86291,-33.25108c0,0 2.90168,-6.52608 4.91962,-9.2876c1.8671,-2.55511 6.77064,-6.7105 6.77064,-6.7105" fill="none" stroke="#ffffff" stroke-linecap="round"/></g><path d="M179.39255,76.6116c-10.63636,-11.49755 -21.82448,-23.56459 -31.53393,-34.36869c-10.81212,-12.03106 -19.79493,10.15773 -24.67149,1.79738c-3.11706,-5.34396 11.81114,-23.64304 10.94566,-27.27841c-1.36719,-5.74281 -14.58718,-10.66432 -14.58718,-10.66432c0,0 1.07994,-20.12942 11.82905,-21.24181c11.08292,-1.14694 18.07605,-12.86043 22.90285,-15.57034c5.67929,-3.18847 17.53536,3.12789 17.53536,3.12789c0,0 8.33746,9.01158 16.08013,22.23812c1.69587,2.897 -0.9074,7.14665 1.16222,10.25632c8.17299,12.28017 18.50932,26.82792 28.06378,40.70021c17.56846,25.50792 33.29023,49.20223 33.6856,55.63607c0.47023,7.65304 -13.09184,36.34457 -20.95914,28.64463c0,0 -28.79209,-29.86241 -50.4529,-53.27699z" data-paper-data="{&quot;index&quot;:null}" fill="#ffe323" stroke="#000000" stroke-width="8" stroke-linecap="round"/></g></g></svg>