<svg version="1.1" xmlns="http://www.w3.org/2000/svg" xmlns:xlink="http://www.w3.org/1999/xlink" width="340.43224" height="365.45623" viewBox="0,0,340.43224,365.45623"><g transform="translate(-152.7868,4.41578)"><g data-paper-data="{&quot;isPaintingLayer&quot;:true}" fill-rule="nonzero" stroke-width="8" stroke-linejoin="miter" stroke-miterlimit="10" stroke-dasharray="" stroke-dashoffset="0" style="mix-blend-mode: normal"><g stroke-linecap="round"><path d="M350.08615,180.22345l48.35191,3.73433l-19.81341,150.4352l-45.13056,21.28108l-37.05844,-15.32418z" fill="#242a3a" stroke="none"/><path d="M350.08615,180.22345l24.42873,4.08156l-41.02078,171.36906l-37.05844,-15.32418z" fill="#1b202d" stroke="none"/><path d="M350.08616,180.22345l48.35191,3.73433l-19.81342,150.4352l-45.13056,21.28108l-37.05844,-15.32418z" fill="none" stroke="#000000"/></g><g fill="#d6943b" stroke="#000000" stroke-linecap="round"><g><path d="M324.18144,152.36396c9.79549,-1.26268 34.74677,-3.56398 61.57829,-5.70226c14.38512,-1.14638 29.3107,-2.2459 42.73095,-3.11335c14.10143,-0.91147 40.31869,0.07823 40.31869,0.07823c0,0 14.18465,11.42239 9.72203,19.27332c-4.60118,8.09471 0.5292,19.04026 0.1411,23.73981c-0.45665,5.52957 -10.89302,10.18186 -10.89302,10.18186c0,0 -10.6796,0.84406 -24.14841,-0.95263c-2.95007,-0.39353 -4.77887,-4.40922 -8.06783,-4.66329c-13.56738,-1.04811 -29.76537,-1.94844 -45.19757,-2.91017c-26.5062,-1.65187 -50.75335,-3.48496 -55.5318,-6.55926c-5.82521,-3.74781 -20.14243,-28.149 -10.65239,-29.37227z" data-paper-data="{&quot;index&quot;:null}"/><path d="M439.79209,192.80646l10.02759,-45.89739"/></g><path d="M444.0636,145.79569c0,0 -0.81334,22.22331 -4.0918,27.30183c-3.27849,5.07853 -8.32261,7.80765 -12.88575,-1.00282c-4.56314,-8.81051 -0.79488,-25.41157 -0.79488,-25.41157z"/></g><g stroke-linecap="round"><path d="M267.50064,199.83404l49.71193,17.13481c0,0 -26.49773,65.33094 -39.08023,87.98679c-11.9407,21.50023 -40.6995,48.75697 -40.6995,48.75697l-49.79227,3.22196l-28.84228,-27.86183c0,0 48.303,-39.67698 67.21866,-62.16624c17.14393,-20.38282 41.4837,-67.07248 41.4837,-67.07248z" fill="#242a3a" stroke="none"/><path d="M267.50064,199.83404l21.2233,12.76688l-101.08338,144.33367l-28.84228,-27.86183c0,0 50.08192,-41.09411 69.01148,-63.59989c17.12309,-20.35803 39.69088,-65.63885 39.69088,-65.63885z" fill="#1b202d" stroke="none"/><path d="M270.9765,199.66025l51.89439,12.2775c0,0 -33.67195,69.15535 -46.56224,92.36539c-11.50982,20.7244 -38.8758,49.40947 -38.8758,49.40947l-49.79227,3.22196l-28.84228,-27.86183c0,0 48.7214,-39.92098 67.7506,-62.54522c16.96813,-20.17379 43.73244,-65.47694 43.73244,-65.47694z" fill="none" stroke="#000000"/></g><g><path d="M405.54307,156.77582c22.87828,-17.44246 55.56467,-13.03586 73.00712,9.8424c17.44246,22.87828 13.03586,55.56467 -9.8424,73.00712c-22.87828,17.44246 -55.56466,13.03586 -73.00712,-9.84241c-17.44246,-22.87828 -13.03586,-55.56467 9.84239,-73.00712z" fill="#d61313" stroke="#000000" stroke-linecap="butt"/><path d="M426.14459,163.59796c0,0 6.81472,-2.13753 10.22072,-2.44925c3.15142,-0.28843 9.51097,0.64331 9.51097,0.64331" fill="none" stroke="#ffffff" stroke-linecap="round"/></g><g stroke-linecap="round"><path d="M302.7261,109.99572l93.79865,-6.76579l-8.30349,90.41574l-87.64792,28.29336l-34.75162,-7.68841z" fill="#ea2020" stroke="none"/><path d="M302.7261,109.99574l14.24724,-1.64996l-16.4,113.59324l-34.75162,-7.68841z" fill="#a71717" stroke="none"/><path d="M302.7261,109.99572l93.79865,-6.76579l-8.30349,90.41574l-87.64792,28.29336l-34.75162,-7.68841z" fill="none" stroke="#000000"/></g><path d="M361.21483,168.62954c14.03618,5.63525 28.78801,11.53893 41.74397,16.95648c14.4273,6.03277 11.50081,-17.47596 19.36741,-12.15498c5.02831,3.40121 1.28458,26.0083 3.67767,28.85934c3.78039,4.50381 16.88491,3.20545 16.88491,3.20545c0,0 8.44288,18.30045 0.15727,23.88807c-8.54291,5.76113 -8.84113,19.13515 -11.53751,23.60301c-3.17263,5.25691 -15.80674,4.73527 -15.80674,4.73527c0,0 -11.00202,-4.41644 -23.47009,-12.82269c-2.73087,-1.84122 -2.56851,-6.72162 -5.70393,-8.59129c-12.38188,-7.38338 -27.58574,-15.85006 -41.83646,-24.05291c-26.20376,-15.08313 -50.05517,-29.34964 -53.36005,-34.88188c-3.93109,-6.58059 -6.12131,-37.81232 3.88801,-34.35693c0,0 37.411,14.13695 65.9955,25.61303z" data-paper-data="{&quot;index&quot;:null}" fill="#ffe323" stroke="#000000" stroke-linecap="round"/><g stroke-linecap="round"><path d="M302.36238,98.66326c-6.43192,-3.2362 -11.91201,-76.15997 -3.56167,-84.26584c20.5007,-19.90048 81.39832,-17.68265 95.46356,-5.50238c14.99136,12.98229 7.96096,77.16452 2.36865,90.15079c-3.61852,8.4028 -84.94392,4.31011 -94.27053,-0.38255z" fill="#ffe323" stroke="none"/><path d="M302.36238,98.66326c-6.43192,-3.2362 -11.91201,-76.15997 -3.56167,-84.26584c10.47776,-10.17101 -3.30438,43.9784 19.63399,66.668c21.94259,21.70461 80.93234,11.63134 78.19822,17.98041c-3.61852,8.4028 -84.94392,4.31011 -94.27053,-0.38255z" fill="#d6943b" stroke="none"/><path d="M302.36238,98.66326c-6.43192,-3.2362 -11.91201,-76.15997 -3.56167,-84.26584c20.5007,-19.90048 81.39832,-17.68265 95.46356,-5.50238c14.99136,12.98229 7.96096,77.16452 2.36865,90.15079c-3.61852,8.4028 -84.94392,4.31011 -94.27053,-0.38255z" fill="none" stroke="#000000"/></g><path d="M340.60288,48.45388c0,0 2.86934,-24.86392 14.12799,-25.1645c11.25865,-0.30056 29.24609,24.00653 29.24609,24.00653l26.47087,-18.08883" fill="none" stroke="#000000" stroke-linecap="round"/><g fill="none" stroke="#000000" stroke-linecap="round"><path d="M364.13616,42.4064l0.59046,17.00749"/><path d="M397.42094,56.78522l-0.74194,-10.28154"/></g><path d="M376.88921,84.94171c0,0 -7.34387,21.49549 -18.84083,17.58467c-0.27342,-0.09302 -37.25551,-36.66647 -37.25551,-36.66647c0,0 -0.96652,-0.96281 0.66123,-0.08519c8.20402,4.42326 36.47148,19.27973 55.94961,19.39635c23.34276,0.13979 24.7181,-6.84408 24.7181,-6.84408" fill="#ffffff" stroke="#000000" stroke-linecap="round"/></g></g></svg>