<svg version="1.1" xmlns="http://www.w3.org/2000/svg" xmlns:xlink="http://www.w3.org/1999/xlink" width="37.89515" height="39.63619" viewBox="0,0,37.89515,39.63619"><g transform="translate(-301.05243,-160.23497)"><g data-paper-data="{&quot;isPaintingLayer&quot;:true}" fill-rule="nonzero" stroke-linecap="butt" stroke-linejoin="miter" stroke-miterlimit="10" stroke-dasharray="" stroke-dashoffset="0" style="mix-blend-mode: normal"><path d="M314.66941,193.12314c-0.81032,-1.09963 -1.63382,-3.34698 -1.63382,-3.34698l5.8845,-4.34653c0,0 -4.42935,0.31817 -6.67112,0.36644c-2.27848,0.04906 -6.89144,-0.0744 -6.89144,-0.0744c0,0 -1.58741,-4.20807 -1.58741,-5.63909c0,-1.89961 1.01514,-5.85906 1.01514,-5.85906c0,0 4.88928,-0.19907 7.23162,-0.1877c2.21344,0.01074 6.45762,0.25412 6.45762,0.25412l-5.99003,-5.00624c0,0 2.35058,-2.92403 3.65918,-3.97968c1.19926,-0.96743 3.89304,-2.11266 3.89304,-2.11266c0,0 16.20499,10.68322 16.19318,17.55591c-0.01241,7.22032 -18.01208,16.06136 -18.01208,16.06136c0,0 -2.64208,-2.45559 -3.54839,-3.68549z" fill="#fa0505" stroke="#ffffff" stroke-width="2"/><path d="M314.26947,194.10773c-0.87111,-1.18214 -1.7564,-3.59809 -1.7564,-3.59809l6.326,-4.67265c0,0 -4.76168,0.34204 -7.17164,0.39394c-2.44944,0.05274 -7.40849,-0.07999 -7.40849,-0.07999c0,0 -1.70651,-4.52379 -1.70651,-6.06218c0,-2.04214 1.09131,-6.29865 1.09131,-6.29865c0,0 5.25612,-0.214 7.77419,-0.20179c2.37951,0.01155 6.94212,0.2732 6.94212,0.2732l-6.43944,-5.38185c0,0 2.52694,-3.14342 3.93372,-4.27826c1.28923,-1.04002 4.18513,-2.27116 4.18513,-2.27116c0,0 17.42081,11.48476 17.40811,18.87309c-0.01334,7.76204 -19.36348,17.26641 -19.36348,17.26641c0,0 -2.8403,-2.63982 -3.81462,-3.96201z" fill="#fbff0d" stroke="#000000" stroke-width="3"/></g></g></svg>