<svg version="1.1" xmlns="http://www.w3.org/2000/svg" xmlns:xlink="http://www.w3.org/1999/xlink" width="437.26538" height="366.40018" viewBox="0,0,437.26538,366.40018"><g transform="translate(-138.61194,-10.60752)"><g data-paper-data="{&quot;isPaintingLayer&quot;:true}" fill-rule="nonzero" stroke-width="8" stroke-linejoin="miter" stroke-miterlimit="10" stroke-dasharray="" stroke-dashoffset="0" style="mix-blend-mode: normal"><g data-paper-data="{&quot;index&quot;:null}" stroke-linecap="round"><path d="M243.11589,201.09326l39.31784,15.02089l-52.18533,134.46037l-47.0531,21.68399l-38.63708,-15.61432z" data-paper-data="{&quot;index&quot;:null}" fill="#242a3a" stroke="none"/><path d="M238.65768,215.90149l14.80736,3.20212l-71.30468,155.98443l-35.46561,-20.16835z" data-paper-data="{&quot;index&quot;:null}" fill="#1b202d" stroke="none"/><path d="M243.11589,201.48609l39.31784,15.02089l-52.18533,134.46037l-47.0531,21.68399l-38.63708,-15.61432z" data-paper-data="{&quot;index&quot;:null}" fill="none" stroke="#000000"/></g><g fill="#d6943b" stroke="#000000" stroke-linecap="round"><g><path d="M331.17334,145.67729c8.14416,-5.80911 29.30871,-19.73629 52.22239,-34.39312c12.28466,-7.85793 25.07209,-15.92558 36.6254,-23.06437c12.13974,-7.50112 35.94058,-18.89518 35.94058,-18.89518c0,0 17.86896,4.18548 17.49456,13.74895c-0.38601,9.86044 9.20127,17.85251 11.01041,22.50298c2.12867,5.47179 -5.03208,14.80493 -5.03208,14.80493c0,0 -9.12344,5.82709 -21.9415,10.45594c-2.80753,1.01385 -6.27732,-1.94342 -9.32273,-0.63754c-12.56262,5.3869 -27.40011,12.15195 -41.58381,18.49836c-24.36175,10.90049 -46.79488,20.56584 -52.45977,19.89134c-6.90587,-0.82232 -30.84369,-17.28432 -22.95347,-22.91225z" data-paper-data="{&quot;index&quot;:null}"/><path d="M452.67029,129.73211l-12.11428,-48.35239"/></g><path d="M434.91959,83.02943c0,0 9.46516,21.51029 8.87412,27.88089c-0.59104,6.37063 -3.83165,11.33842 -11.93484,5.10926c-8.10322,-6.22921 -12.35914,-23.78472 -12.35914,-23.78472z"/></g><g stroke-linecap="round"><path d="M419.61785,340.3518l-38.63708,15.61432l-47.0531,-21.68399l-14.53672,-144.68454l39.31784,-15.02089z" data-paper-data="{&quot;index&quot;:null}" fill="#242a3a" stroke="none"/><path d="M380.98075,355.96612l-47.0531,-21.68399l-14.53672,-144.68454l17.70423,-3.8z" data-paper-data="{&quot;index&quot;:null}" fill="#1b202d" stroke="none"/><path d="M419.61785,340.74463l-38.63708,15.61432l-47.0531,-21.68399l-14.53672,-144.68454l39.31784,-15.02089z" data-paper-data="{&quot;index&quot;:null}" fill="none" stroke="#000000"/></g><g stroke-linecap="round"><path d="M285.39325,110.60482l98.01549,2.48818l-17.62267,90.86347l-93.77661,19.95613l-35.29848,-11.26073z" fill="#ea2020" stroke="none"/><path d="M285.39324,110.60483l14.94973,-0.25314l-28.33351,113.56089l-35.29848,-11.26073z" fill="#a71717" stroke="none"/><path d="M285.39325,110.60482l98.01549,2.48818l-17.62267,90.86347l-93.77661,19.95613l-35.29848,-11.26073z" fill="none" stroke="#000000"/></g><g stroke-linecap="round"><path d="M292.35346,110.83314c-6.35254,-3.92295 -4.7763,-78.4216 4.6968,-85.80948c23.25716,-18.13777 86.23412,-9.81868 99.61746,3.93536c14.26456,14.65969 0.57597,79.04649 -6.52103,91.65854c-4.59213,8.16065 -88.58172,-4.0959 -97.79322,-9.78439z" fill="#ffe323" stroke="none"/><path d="M292.35346,110.83314c-6.35254,-3.92295 -4.7763,-78.4216 4.6968,-85.80948c11.88656,-9.27012 -7.8095,44.26938 13.73538,69.56543c20.60959,24.19791 82.83082,19.86237 79.36105,26.02847c-4.59213,8.16065 -88.58172,-4.0959 -97.79322,-9.78439z" fill="#d6943b" stroke="none"/><path d="M292.35346,110.83314c-6.35254,-3.92295 -4.7763,-78.4216 4.6968,-85.80948c23.25716,-18.13777 86.23412,-9.81868 99.61746,3.93536c14.26456,14.65969 0.57597,79.04649 -6.52103,91.65854c-4.59213,8.16065 -88.58172,-4.0959 -97.79322,-9.78439z" fill="none" stroke="#000000"/></g><path d="M326.57773,63.92243c0,0 5.4542,-24.92864 17.16805,-24.11124c11.71384,0.8174 27.95969,27.26027 27.95969,27.26027l29.2724,-15.7055" fill="none" stroke="#000000" stroke-linecap="round"/><g fill="none" stroke="#000000" stroke-linecap="round"><path d="M351.32161,78.388l1.0812,-17.30624"/><path d="M385.76676,68.48056l-0.25409,10.50052"/></g><path d="M359.55477,106.89272c0,0 -34.13514,3.66451 -45.67684,-1.44744c-0.27448,-0.12158 -10.6378,-23.49496 -10.6378,-23.49496c0,0 -0.90713,-1.07273 0.69469,-0.02049c8.07335,5.30339 35.92879,23.18698 56.13104,25.24674c24.21054,2.46846 26.33343,-4.47683 26.33343,-4.47683" fill="#ffffff" stroke="#000000" stroke-linecap="round"/><g><path d="M479.33245,148.54453c26.31851,-12.60013 62.87637,7.24036 81.65427,44.31493c18.77791,37.07459 12.66504,77.34389 -13.65345,89.94401c-26.31851,12.60013 -62.87637,-7.24036 -81.65428,-44.31496c-18.77791,-37.07459 -12.66505,-77.34388 13.65345,-89.94401z" fill="#d61313" stroke="#000000" stroke-linecap="butt"/><path d="M502.23013,166.26878c0,0 7.73062,0.19279 11.56748,1.26547c3.55009,0.9925 10.66022,4.94869 10.66022,4.94869" fill="none" stroke="#ffffff" stroke-linecap="round"/></g><path d="M359.10545,120.28042c15.99188,1.23209 32.79331,2.50895 47.62124,3.85278c16.5119,1.4964 28.28935,-20.74701 37.9209,-17.98842c6.15649,1.76335 -12.67122,25.11987 -9.36008,27.1375c5.23064,3.18725 18.13234,-1.93499 18.13234,-1.93499c0,0 14.23081,14.99956 7.54768,22.79639c-6.89066,8.03893 -3.05715,20.91615 -4.41262,25.98704c-1.59491,5.96645 -14.58193,9.20903 -14.58193,9.20903c0,0 -12.53476,-0.96513 -27.79177,-5.31139c-3.34173,-0.95196 -4.68629,-5.66692 -8.44751,-6.5263c-14.85315,-3.39363 -32.90614,-6.9875 -49.90992,-10.61134c-31.26601,-6.66337 -59.89141,-13.24249 -64.95741,-17.55401c-6.02594,-5.12856 -17.90861,-34.34528 -6.67882,-34.00517c0,0 42.35055,2.43975 74.91783,4.94886z" data-paper-data="{&quot;index&quot;:null}" fill="#ffe323" stroke="#000000" stroke-linecap="round"/></g></g></svg>