<svg version="1.1" xmlns="http://www.w3.org/2000/svg" xmlns:xlink="http://www.w3.org/1999/xlink" width="39.63619" height="58.8487" viewBox="0,0,39.63619,58.8487"><defs><linearGradient x1="320.43751" y1="179.81251" x2="320.43751" y2="219.90112" gradientUnits="userSpaceOnUse" id="color-1"><stop offset="0" stop-color="#ff0d0d"/><stop offset="1" stop-color="#ff0d0d" stop-opacity="0"/></linearGradient></defs><g transform="translate(-300.23497,-161.05242)"><g data-paper-data="{&quot;isPaintingLayer&quot;:true}" fill-rule="nonzero" stroke-linecap="butt" stroke-linejoin="miter" stroke-miterlimit="10" stroke-dasharray="" stroke-dashoffset="0" style="mix-blend-mode: normal"><path d="M304.18751,219.90112v-40.08862h32.5v40.08862z" fill="url(#color-1)" stroke="none" stroke-width="0"/><path d="M333.12315,185.33059c-1.09963,0.81032 -3.34698,1.63382 -3.34698,1.63382l-4.34653,-5.8845c0,0 0.31817,4.42935 0.36644,6.67112c0.04906,2.27848 -0.0744,6.89144 -0.0744,6.89144c0,0 -4.20807,1.58741 -5.63909,1.58741c-1.89961,0 -5.85906,-1.01514 -5.85906,-1.01514c0,0 -0.19907,-4.88928 -0.1877,-7.23162c0.01074,-2.21344 0.25412,-6.45762 0.25412,-6.45762l-5.00624,5.99003c0,0 -2.92403,-2.35058 -3.97968,-3.65918c-0.96743,-1.19926 -2.11266,-3.89304 -2.11266,-3.89304c0,0 10.68322,-16.20499 17.55591,-16.19318c7.22032,0.01241 16.06136,18.01208 16.06136,18.01208c0,0 -2.45559,2.64208 -3.68549,3.54839z" fill="#12fa05" stroke="#ffffff" stroke-width="2"/><path d="M334.10774,185.73053c-1.18214,0.87111 -3.59809,1.7564 -3.59809,1.7564l-4.67265,-6.326c0,0 0.34204,4.76168 0.39394,7.17164c0.05274,2.44944 -0.07999,7.40849 -0.07999,7.40849c0,0 -4.52379,1.70651 -6.06218,1.70651c-2.04214,0 -6.29865,-1.09131 -6.29865,-1.09131c0,0 -0.214,-5.25612 -0.20179,-7.77419c0.01155,-2.37951 0.2732,-6.94212 0.2732,-6.94212l-5.38185,6.43944c0,0 -3.14342,-2.52694 -4.27826,-3.93372c-1.04002,-1.28923 -2.27116,-4.18513 -2.27116,-4.18513c0,0 11.48476,-17.42081 18.87309,-17.40811c7.76204,0.01334 17.26641,19.36348 17.26641,19.36348c0,0 -2.63982,2.8403 -3.96201,3.81462z" fill="#ff0d0d" stroke="#000000" stroke-width="3"/></g></g></svg>