<svg version="1.1" xmlns="http://www.w3.org/2000/svg" xmlns:xlink="http://www.w3.org/1999/xlink" width="304.11388" height="395.35491" viewBox="0,0,304.11388,395.35491"><g transform="translate(-138.61194,18.34722)"><g data-paper-data="{&quot;isPaintingLayer&quot;:true}" fill-rule="nonzero" stroke-width="8" stroke-linejoin="miter" stroke-miterlimit="10" stroke-dasharray="" stroke-dashoffset="0" style="mix-blend-mode: normal"><g data-paper-data="{&quot;index&quot;:null}" stroke-linecap="round"><path d="M243.11589,201.09326l39.31784,15.02089l-52.18533,134.46037l-47.0531,21.68399l-38.63708,-15.61432z" data-paper-data="{&quot;index&quot;:null}" fill="#242a3a" stroke="none"/><path d="M238.65768,215.90149l14.80736,3.20212l-71.30468,155.98443l-35.46561,-20.16835z" data-paper-data="{&quot;index&quot;:null}" fill="#1b202d" stroke="none"/><path d="M243.11589,201.48609l39.31784,15.02089l-52.18533,134.46037l-47.0531,21.68399l-38.63708,-15.61432z" data-paper-data="{&quot;index&quot;:null}" fill="none" stroke="#000000"/></g><g fill="#d6943b" stroke="#000000" stroke-linecap="round"><g><path d="M314.79884,136.25308c4.95051,-8.69284 18.30675,-30.22225 32.94379,-53.14858c7.84733,-12.29143 16.06282,-24.98439 23.54855,-36.31599c7.8657,-11.90676 24.67843,-32.24482 24.67843,-32.24482c0,0 17.97412,-3.70795 21.6517,5.12809c3.79179,9.11041 15.8494,12.33581 19.4447,15.7961c4.2303,4.07141 1.65256,15.54917 1.65256,15.54917c0,0 -5.83164,9.12053 -15.51948,18.70567c-2.12192,2.09942 -6.51299,0.87328 -8.72811,3.33765c-9.13759,10.16576 -19.76067,22.53779 -29.96631,34.25526c-17.52909,20.12577 -33.82682,38.3205 -39.251,40.08805c-6.61244,2.15471 -35.25102,-2.72882 -30.45485,-11.15057z" data-paper-data="{&quot;index&quot;:null}"/><path d="M387.05308,31.9551l31.30505,38.7905"/></g><path d="M382.63108,35.81989c0,0 17.6254,15.54436 19.76514,21.5739c2.13975,6.02957 1.28576,11.89908 -8.68451,9.6501c-9.97031,-2.24902 -21.20709,-16.39271 -21.20709,-16.39271z"/></g><g stroke-linecap="round"><path d="M419.61785,340.3518l-38.63708,15.61432l-47.0531,-21.68399l-14.53672,-144.68454l39.31784,-15.02089z" data-paper-data="{&quot;index&quot;:null}" fill="#242a3a" stroke="none"/><path d="M380.98075,355.96612l-47.0531,-21.68399l-14.53672,-144.68454l17.70423,-3.8z" data-paper-data="{&quot;index&quot;:null}" fill="#1b202d" stroke="none"/><path d="M419.61785,340.74463l-38.63708,15.61432l-47.0531,-21.68399l-14.53672,-144.68454l39.31784,-15.02089z" data-paper-data="{&quot;index&quot;:null}" fill="none" stroke="#000000"/></g><g stroke-linecap="round"><path d="M280.28462,111.58367l98.01743,-2.41055l-13.06228,91.63027l-92.66281,24.61512l-35.81687,-9.48361z" fill="#ea2020" stroke="none"/><path d="M280.28461,111.58368l14.91843,-0.99952l-22.62607,114.83433l-35.81687,-9.48361z" fill="#a71717" stroke="none"/><path d="M280.28462,111.58367l98.01743,-2.41055l-13.06228,91.63027l-92.66281,24.61512l-35.81687,-9.48361z" fill="none" stroke="#000000"/></g><g stroke-linecap="round"><path d="M287.24755,111.46406c-6.54055,-3.60076 -8.6873,-78.08515 0.40497,-85.93697c22.3222,-19.27677 85.63607,-14.1136 99.68968,-1.04519c14.97897,13.92891 4.52342,78.91906 -1.93478,91.86984c-4.17879,8.37983 -88.67574,0.33364 -98.15986,-4.88766z" fill="#ffe323" stroke="none"/><path d="M287.24755,111.46406c-6.54055,-3.60076 -8.6873,-78.08515 0.40497,-85.93697c11.40871,-9.85225 -5.58861,44.60419 17.19285,68.79255c21.79249,23.13831 83.71951,15.70039 80.56205,22.0321c-4.17879,8.37983 -88.67574,0.33364 -98.15986,-4.88766z" fill="#d6943b" stroke="none"/><path d="M287.24755,111.46406c-6.54055,-3.60076 -8.6873,-78.08515 0.40497,-85.93697c22.3222,-19.27677 85.63607,-14.1136 99.68968,-1.04519c14.97897,13.92891 4.52342,78.91906 -1.93478,91.86984c-4.17879,8.37983 -88.67574,0.33364 -98.15986,-4.88766z" fill="none" stroke="#000000"/></g><path d="M319.08603,62.90249c0,0 4.20227,-25.16995 15.94233,-24.93865c11.74005,0.2313 29.28637,25.82973 29.28637,25.82973l28.45141,-17.14798" fill="none" stroke="#000000" stroke-linecap="round"/><g fill="none" stroke="#000000" stroke-linecap="round"><path d="M344.73699,58.77547l-0.21545,17.33864"/><path d="M378.42885,64.49859l0.2707,10.5001"/></g><path d="M354.16817,104.17203c0,0 -33.9095,5.3649 -45.69212,0.83581c-0.28021,-0.10772 -11.79804,-22.9343 -11.79804,-22.9343c0,0 -0.95958,-1.02608 0.6928,-0.05516c8.32816,4.89353 37.04208,21.36349 57.32199,22.41163c24.30361,1.25612 26.07696,-5.78653 26.07696,-5.78653" fill="#ffffff" stroke="#000000" stroke-linecap="round"/><g><path d="M341.74299,8.52098c17.4013,-23.40171 50.92577,-29.91054 74.879,-14.53792c23.95324,15.37263 29.26463,46.80544 11.86334,70.20713c-17.4013,23.40171 -50.92577,29.91054 -74.87901,14.5379c-23.95324,-15.37263 -29.26463,-46.80543 -11.86334,-70.20713z" fill="#d61313" stroke="#000000" stroke-linecap="butt"/><path d="M364.06754,8.13216c0,0 6.08662,-4.16301 9.35224,-5.54903c3.02154,-1.28243 9.56611,-2.48051 9.56611,-2.48051" fill="none" stroke="#ffffff" stroke-linecap="round"/></g><path d="M299.8879,102.00652c10.30937,-12.2872 21.12631,-25.20664 30.84911,-36.48231c10.82696,-12.55623 -0.40635,-35.07935 7.44256,-41.306c5.01707,-3.98005 13.05219,24.92404 16.62002,23.40577c5.6361,-2.39845 8.97973,-15.87106 8.97973,-15.87106c0,0 20.47985,-2.8423 22.93042,7.13013c2.52666,10.28211 15.22931,14.65946 18.56396,18.71301c3.92354,4.76949 -0.99824,17.2175 -0.99824,17.2175c0,0 -8.0802,9.63131 -20.49424,19.50844c-2.71904,2.16338 -7.33571,0.51259 -10.22361,3.07097c-11.40434,10.10316 -24.83385,22.69183 -37.67707,34.40986c-23.6157,21.54675 -45.62602,40.99525 -52.08053,42.60547c-7.67761,1.9153 -38.35193,-5.4264 -31.5395,-14.36031c0,0 26.63246,-33.01869 47.62735,-58.04143z" data-paper-data="{&quot;index&quot;:null}" fill="#ffe323" stroke="#000000" stroke-linecap="round"/></g></g></svg>