<svg version="1.1" xmlns="http://www.w3.org/2000/svg" xmlns:xlink="http://www.w3.org/1999/xlink" width="65.14854" height="62.70134" viewBox="0,0,65.14854,62.70134"><g transform="translate(-287.42573,-148.64933)"><g data-paper-data="{&quot;isPaintingLayer&quot;:true}" fill-rule="nonzero" stroke-width="4.5" stroke-linecap="round" stroke-linejoin="miter" stroke-miterlimit="10" stroke-dasharray="" stroke-dashoffset="0" style="mix-blend-mode: normal"><g><path d="M294.02973,206.17783c-3.58851,-1.80555 -6.64599,-42.49141 -1.98714,-47.01387c11.43782,-11.10294 45.414,-9.86556 53.26133,-3.06991c8.36403,7.24312 4.4416,43.05187 1.32153,50.29721c-2.01886,4.68812 -47.39218,2.40471 -52.59571,-0.21344z" fill="#ffe323" stroke="none"/><path d="M294.02973,206.17783c-3.58851,-1.80555 -6.64599,-42.49141 -1.98714,-47.01387c5.84578,-5.67464 -1.84359,24.53656 10.95425,37.19562c12.24228,12.1095 45.15403,6.48939 43.6286,10.03169c-2.01886,4.68812 -47.39218,2.40471 -52.59571,-0.21344z" fill="#d6943b" stroke="none"/><path d="M294.02973,206.17783c-3.58851,-1.80555 -6.64599,-42.49141 -1.98714,-47.01387c11.43782,-11.10294 45.414,-9.86556 53.26133,-3.06991c8.36403,7.24312 4.4416,43.05187 1.32153,50.29721c-2.01886,4.68812 -47.39218,2.40471 -52.59571,-0.21344z" fill="none" stroke="#000000"/></g><g fill="none" stroke="#000000"><path d="M312.45176,174.47706l0.32943,9.48887"/><path d="M330.60817,176.76304l0.41394,5.73631"/></g><path d="M343.69235,196.82187c0,0 -5.95765,-6.05163 -18.98111,-6.12963c-6.90145,-0.04132 -13.22215,2.99685 -18.08867,4.58774" fill="none" stroke="#000000"/></g></g></svg>