<svg version="1.1" xmlns="http://www.w3.org/2000/svg" xmlns:xlink="http://www.w3.org/1999/xlink" width="356.80083" height="393.89026" viewBox="0,0,356.80083,393.89026"><g transform="translate(-130.70413,21.76836)"><g data-paper-data="{&quot;isPaintingLayer&quot;:true}" fill-rule="nonzero" stroke-width="8" stroke-linejoin="miter" stroke-miterlimit="10" stroke-dasharray="" stroke-dashoffset="0" style="mix-blend-mode: normal"><g stroke-linecap="round"><path d="M329.11754,206.92852l74.77096,3.24184l-30.63927,130.59559l-69.78949,18.4745l-57.30684,-13.30321z" fill="#242a3a" stroke="none"/><path d="M329.11754,206.92852l37.77636,3.54328l-63.43417,148.76867l-57.30684,-13.30321z" fill="#1b202d" stroke="none"/><path d="M329.11755,206.92852l74.77096,3.24184l-30.63929,130.59559l-69.78949,18.4745l-57.30684,-13.30321z" fill="none" stroke="#000000"/></g><g fill="#d6943b" stroke="#000000" stroke-linecap="round"><g><path d="M322.44834,145.88299c1.18364,-8.5618 5.57837,-30.18517 10.81158,-53.36981c2.80567,-12.42993 5.85237,-25.30863 8.77451,-36.86388c3.07048,-12.14177 12.82663,-34.17163 12.82663,-34.17163c0,0 21.69455,-9.71272 32.12608,-4.33763c10.75547,5.54198 28.87703,3.41002 35.841,4.69154c8.19394,1.50784 11.91938,11.30003 11.91938,11.30003c0,0 -2.09355,9.22663 -9.04817,20.28314c-1.52328,2.42171 -8.15485,3.15857 -9.57467,5.8959c-5.85693,11.29181 -12.32022,24.84412 -18.63469,37.73468c-10.84572,22.14066 -21.2526,42.3291 -27.39444,45.75785c-7.48734,4.17983 -48.794,11.37466 -47.64723,3.07983z" data-paper-data="{&quot;index&quot;:null}"/><path d="M353.82499,38.24483l66.04652,17.8044"/></g><path d="M350.33181,42.89996c0,0 33.2535,5.19349 39.8778,9.00264c6.62438,3.80915 9.14958,8.63932 -5.57378,10.723c-14.72342,2.08366 -38.56791,-4.47598 -38.56791,-4.47598z"/></g><g stroke-linecap="round"><path d="M219.91274,215.68893l74.77096,3.24184l-30.63927,130.59559l-69.78949,18.4745l-57.30684,-13.30321z" fill="#242a3a" stroke="none"/><path d="M219.91274,215.68893l37.77636,3.54328l-63.43417,148.76867l-57.30684,-13.30321z" fill="#1b202d" stroke="none"/><path d="M219.91276,215.68893l74.77096,3.24184l-30.63929,130.59559l-69.78949,18.4745l-57.30684,-13.30321z" fill="none" stroke="#000000"/></g><g stroke-linecap="round"><path d="M277.73268,135.21132l145.3802,-2.05376l-19.37407,78.0679l-137.43819,20.97179l-53.12386,-8.07992z" fill="#ea2020" stroke="none"/><path d="M277.73267,135.21133l22.12713,-0.85158l-33.55916,97.83749l-53.12386,-8.07992z" fill="#a71717" stroke="none"/><path d="M277.73268,135.21132l145.3802,-2.05376l-19.37407,78.0679l-137.43819,20.97179l-53.12386,-8.07992z" fill="none" stroke="#000000"/></g><g stroke-linecap="round"><path d="M320.08974,141.71206c-9.45968,-3.32207 -7.84992,-66.80277 6.12731,-73.128c34.31512,-15.52886 127.7966,-8.64325 147.77959,3.03266c21.29879,12.44472 1.62656,67.34872 -8.77565,78.11748c-6.73078,6.96795 -131.41423,-3.20495 -145.13125,-8.02212z" fill="#ffe323" stroke="none"/><path d="M320.08974,141.71206c-9.45968,-3.32207 -7.84992,-66.80277 6.12731,-73.128c17.5382,-7.93672 -11.1496,37.74429 21.05045,59.22817c30.80222,20.55123 123.03921,16.65706 117.9535,21.92197c-6.73078,6.96795 -131.41423,-3.20495 -145.13125,-8.02212z" fill="#d6943b" stroke="none"/><path d="M320.08974,141.71206c-9.45968,-3.32207 -7.84992,-66.80277 6.12731,-73.128c34.31512,-15.52886 127.7966,-8.64325 147.77959,3.03266c21.29879,12.44472 1.62656,67.34872 -8.77565,78.11748c-6.73078,6.96795 -131.41423,-3.20495 -145.13125,-8.02212z" fill="none" stroke="#000000"/></g><path d="M370.36818,101.90592c0,0 7.84547,-21.25768 25.2261,-20.59891c17.38061,0.65878 41.73294,23.13684 41.73294,23.13684l43.25999,-13.47583" fill="none" stroke="#000000" stroke-linecap="round"/><g fill="none" stroke="#000000" stroke-linecap="round"><path d="M407.22746,113.87794l1.43441,-14.74905"/><path d="M457.94151,114.27328l0.27423,-8.94765"/></g><path d="M419.71649,138.13853c0,0 -45.57802,18.96087 -62.74528,14.64243c-0.40825,-0.1027 -21.01782,-35.71315 -21.01782,-35.71315c0,0 -1.35583,-0.91108 1.03009,-0.01969c12.02527,4.49272 53.512,19.64061 83.49378,21.33063c35.93039,2.02535 39.01097,-3.89913 39.01097,-3.89913" fill="#ffffff" stroke="#000000" stroke-linecap="round"/><g><path d="M284.27501,13.54422c16.35643,-24.25423 62.1754,-37.12929 102.33947,-28.75728c40.16409,8.37202 59.46397,34.82082 43.10756,59.07503c-16.35643,24.25423 -62.17538,37.12928 -102.33947,28.75727c-40.16409,-8.37202 -59.46399,-34.82081 -43.10756,-59.07503z" fill="#d61313" stroke="#000000" stroke-linecap="butt"/><path d="M316.25001,8.43286c0,0 7.21305,-4.95376 11.39735,-6.86784c3.87156,-1.77101 12.84314,-4.22078 12.84314,-4.22078" fill="none" stroke="#ffffff" stroke-linecap="round"/></g><path d="M297.37838,94.7155c11.28507,-12.12432 23.11762,-24.86832 33.85395,-36.04246c11.95559,-12.44313 -23.46133,-11.68343 -13.93482,-18.30731c6.0894,-4.23397 38.77321,0.90866 43.49569,-1.00883c7.46012,-3.02906 8.28508,-14.86795 8.28508,-14.86795c0,0 28.86275,-6.11239 35.39803,1.75038c6.73821,8.10694 26.47523,9.43285 32.52443,12.20139c7.11751,3.25754 3.69678,14.53104 3.69678,14.53104c0,0 -8.84465,9.50352 -23.90334,20.00408c-3.2983,2.29994 -10.48945,1.76815 -13.9147,4.42813c-13.52629,10.50436 -29.24796,23.45029 -44.37922,35.56348c-27.82285,22.27335 -53.94365,42.5046 -62.82666,45.02639c-10.5663,2.99961 -57.26239,2.48849 -50.04862,-6.20206c0,0 28.77145,-32.38519 51.75336,-57.07624z" data-paper-data="{&quot;index&quot;:null}" fill="#ffe323" stroke="#000000" stroke-linecap="round"/></g></g></svg>