<svg version="1.1" xmlns="http://www.w3.org/2000/svg" xmlns:xlink="http://www.w3.org/1999/xlink" width="312.70458" height="368.74747" viewBox="0,0,312.70458,368.74747"><g transform="translate(-152.28827,7.31265)"><g data-paper-data="{&quot;isPaintingLayer&quot;:true}" fill-rule="nonzero" stroke-width="8" stroke-linejoin="miter" stroke-miterlimit="10" stroke-dasharray="" stroke-dashoffset="0" style="mix-blend-mode: normal"><g stroke-linecap="round"><path d="M345.72006,180.73943l48.35191,3.73433l-19.81341,150.4352l-45.13056,21.28108l-37.05844,-15.32418z" fill="#242a3a" stroke="none"/><path d="M345.72006,180.73943l24.42873,4.08156l-41.02078,171.36906l-37.05844,-15.32418z" fill="#1b202d" stroke="none"/><path d="M345.72007,180.73943l48.35191,3.73433l-19.81342,150.4352l-45.13056,21.28108l-37.05844,-15.32418z" fill="none" stroke="#000000"/></g><g fill="#d6943b" stroke="#000000" stroke-linecap="round"><g><path d="M334.6642,93.97982c8.85849,4.47373 30.87754,16.82311 54.35529,30.45381c12.58706,7.30781 25.59342,14.98391 37.21577,22.01216c12.21227,7.38499 33.31694,23.9132 33.31694,23.9132c0,0 4.92816,20.29095 -3.44506,25.83695c-8.63322,5.71822 -10.91316,20.16029 -14.03601,24.82968c-3.6744,5.49409 -15.08396,4.17486 -15.08396,4.17486c0,0 -9.34053,-5.43268 -19.41481,-15.26671c-2.20656,-2.15395 -1.32589,-7.42086 -3.89603,-9.62975c-10.60212,-9.11198 -23.46915,-19.62482 -35.66591,-29.74902c-20.949,-17.38924 -39.92063,-33.6321 -42.04199,-39.6612c-2.58604,-7.34988 0.11356,-41.24823 8.6958,-36.91397z" data-paper-data="{&quot;index&quot;:null}"/><path d="M406.22135,204.4723l35.66005,-41.91612"/></g><path d="M437.78202,157.99329c0,0 -13.92172,22.68474 -19.66225,26.04072c-5.74056,3.35598 -11.54155,3.21932 -10.06507,-8.66187c1.47651,-11.88122 14.49164,-26.95876 14.49164,-26.95876z"/></g><g stroke-linecap="round"><path d="M265.03391,199.0137l49.96592,16.3794c0,0 -25.50452,65.72504 -37.7422,88.56899c-11.61347,21.67874 -39.95586,49.36822 -39.95586,49.36822l-49.73772,3.97625l-29.26125,-27.42149c0,0 47.6961,-40.40451 66.26874,-63.17788c16.83304,-20.64032 40.46237,-67.69351 40.46237,-67.69351z" fill="#242a3a" stroke="none"/><path d="M265.03391,199.0137l21.41436,12.44375l-98.88422,145.84913l-29.26125,-27.42149c0,0 49.45334,-41.84844 68.03962,-64.63853c16.81257,-20.61521 38.69149,-66.23287 38.69149,-66.23287z" fill="#1b202d" stroke="none"/><path d="M265.03392,199.01371l55.54732,11.26312c0,0 -32.61995,69.65774 -45.15699,93.06049c-11.1944,20.89646 -38.12248,49.993 -38.12248,49.993l-49.73772,3.97625l-29.26125,-27.42149c0,0 48.11075,-40.65482 66.79487,-63.56488c16.66042,-20.42864 39.93625,-67.3065 39.93625,-67.3065z" fill="none" stroke="#000000"/></g><g stroke-linecap="round"><path d="M294.0384,107.09885l93.79865,-6.76579l-8.30349,90.41574l-87.64792,28.29336l-34.75162,-7.68841z" fill="#ea2020" stroke="none"/><path d="M294.0384,107.09887l14.24724,-1.64996l-16.4,113.59324l-34.75162,-7.68841z" fill="#a71717" stroke="none"/><path d="M294.0384,107.09885l93.79865,-6.76579l-8.30349,90.41574l-87.64792,28.29336l-34.75162,-7.68841z" fill="none" stroke="#000000"/></g><g><path d="M362.74934,198.48539c35.36126,5.80636 58.12007,33.35528 50.83326,61.53222c-7.28681,28.17696 -41.85988,46.3119 -77.22111,40.50554c-35.36126,-5.80636 -58.12006,-33.35527 -50.83324,-61.53222c7.28681,-28.17696 41.85988,-46.3119 77.2211,-40.50555z" fill="#d61313" stroke="#000000" stroke-linecap="butt"/><path d="M373.26477,218.50428c0,0 7.63813,3.73716 10.73942,6.10172c2.8695,2.18782 7.2271,7.59663 7.2271,7.59663" fill="none" stroke="#ffffff" stroke-linecap="round"/></g><path d="M315.00604,172.82987c6.22981,14.28733 12.79513,29.29073 18.34104,42.62031c6.17574,14.84335 26.01908,-2.79786 27.46327,6.62933c0.92308,6.02587 -23.56231,18.04367 -24.28958,21.72055c-1.14886,5.80841 10.87704,14.841 10.87704,14.841c0,0 -10.36798,18.38303 -22.48399,15.80136c-12.49226,-2.66183 -25.39844,5.89338 -31.84947,6.79264c-7.59037,1.05803 -17.50579,-8.81456 -17.50579,-8.81456c0,0 -4.88375,-11.19845 -7.19844,-26.12212c-0.50698,-3.26872 4.24681,-6.35028 3.43345,-9.94284c-3.21197,-14.18713 -7.72347,-31.21413 -11.69943,-47.34895c-7.31087,-29.66818 -13.45668,-57.02583 -10.9425,-63.15072c2.99067,-7.28551 30.75157,-29.44155 35.72722,-19.62284c0,0 17.44021,37.50083 30.12716,66.59678z" data-paper-data="{&quot;index&quot;:null}" fill="#ffe323" stroke="#000000" stroke-linecap="round"/><g stroke-linecap="round"><path d="M293.67468,95.76639c-6.43192,-3.2362 -11.91201,-76.15997 -3.56167,-84.26584c20.5007,-19.90048 81.39832,-17.68265 95.46356,-5.50238c14.99136,12.98229 7.96096,77.16452 2.36865,90.15079c-3.61852,8.4028 -84.94392,4.31011 -94.27053,-0.38255z" fill="#ffe323" stroke="none"/><path d="M293.67468,95.76639c-6.43192,-3.2362 -11.91201,-76.15997 -3.56167,-84.26584c10.47776,-10.17101 -3.30438,43.9784 19.63399,66.668c21.94259,21.70461 80.93234,11.63134 78.19822,17.98041c-3.61852,8.4028 -84.94392,4.31011 -94.27053,-0.38255z" fill="#d6943b" stroke="none"/><path d="M293.67468,95.76639c-6.43192,-3.2362 -11.91201,-76.15997 -3.56167,-84.26584c20.5007,-19.90048 81.39832,-17.68265 95.46356,-5.50238c14.99136,12.98229 7.96096,77.16452 2.36865,90.15079c-3.61852,8.4028 -84.94392,4.31011 -94.27053,-0.38255z" fill="none" stroke="#000000"/></g><path d="M325.36361,46.30057c0,0 2.86934,-24.86392 14.12799,-25.1645c11.25865,-0.30056 29.24609,24.00653 29.24609,24.00653l26.47087,-18.08883" fill="none" stroke="#000000" stroke-linecap="round"/><g fill="none" stroke="#000000" stroke-linecap="round"><path d="M351.4136,57.26058l-0.59046,-17.00749"/><path d="M384.10792,54.63191l-0.74194,-10.28154"/></g><path d="M357.45545,85.61185c0,0 -7.34387,21.49549 -18.84083,17.58467c-0.27342,-0.09302 -37.25551,-36.66647 -37.25551,-36.66647c0,0 -0.96652,-0.96281 0.66123,-0.08519c8.20402,4.42326 36.47148,19.27973 55.94961,19.39635c23.34276,0.13979 24.7181,-6.84408 24.7181,-6.84408" fill="#ffffff" stroke="#000000" stroke-linecap="round"/></g></g></svg>