<svg version="1.1" xmlns="http://www.w3.org/2000/svg" xmlns:xlink="http://www.w3.org/1999/xlink" width="324.37621" height="394.17026" viewBox="0,0,324.37621,394.17026"><g transform="translate(-94.9192,21.79702)"><g data-paper-data="{&quot;isPaintingLayer&quot;:true}" fill-rule="nonzero" stroke-width="8" stroke-linejoin="miter" stroke-miterlimit="10" stroke-dasharray="" stroke-dashoffset="0" style="mix-blend-mode: normal"><g fill="#d6943b" stroke="#000000" stroke-linecap="round"><g><path d="M362.03506,98.91627c2.26057,9.61435 7.10856,34.19807 11.98722,60.66884c2.61557,14.19171 5.23995,28.92583 7.47911,42.18637c2.3528,13.93361 4.05697,40.11413 4.05697,40.11413c0,0 -9.9075,15.28126 -18.17468,11.6473c-8.5239,-3.74678 -18.8856,2.47904 -23.60018,2.57493c-5.54725,0.11283 -11.24528,-9.79141 -11.24528,-9.79141c0,0 -1.93483,-10.53673 -1.52888,-24.11879c0.08892,-2.97487 3.89589,-5.20585 3.81133,-8.50353c-0.34879,-13.60334 -1.11435,-29.80825 -1.74031,-45.25772c-1.07512,-26.53585 -1.73831,-50.84315 0.82974,-55.91168c3.13066,-6.17885 25.93492,-22.92299 28.12497,-13.60843z" data-paper-data="{&quot;index&quot;:null}"/><path d="M380.34573,223.33268l-46.68376,-5.26782"/></g><path d="M380.86293,217.49277c0,0 -22.18955,1.47001 -27.5775,-1.27035c-5.38797,-2.74038 -8.61999,-7.47803 -0.32394,-12.92065c8.29609,-5.44262 25.19608,-3.39672 25.19608,-3.39672z"/></g><g stroke-linecap="round"><path d="M234.34179,192.55025l48.35191,3.73433l-19.81341,150.4352l-45.13056,21.28108l-37.05844,-15.32418z" fill="#242a3a" stroke="none"/><path d="M234.34179,192.55025l24.42873,4.08156l-41.02078,171.36906l-37.05844,-15.32418z" fill="#1b202d" stroke="none"/><path d="M234.3418,192.55025l48.35191,3.73433l-19.81342,150.4352l-45.13056,21.28108l-37.05844,-15.32418z" fill="none" stroke="#000000"/></g><g stroke-linecap="round"><path d="M414.2415,341.08782l-37.05842,15.32419l-45.13058,-21.28108l-13.94277,-141.99616l37.71137,-14.74178z" data-paper-data="{&quot;index&quot;:null}" fill="#242a3a" stroke="none"/><path d="M377.18306,356.41201l-45.13058,-21.28108l-13.94277,-141.99616l16.98086,-3.7294z" data-paper-data="{&quot;index&quot;:null}" fill="#1b202d" stroke="none"/><path d="M414.2415,341.47335l-37.05842,15.32419l-45.13058,-21.28108l-13.94277,-141.99616l37.71137,-14.74178z" data-paper-data="{&quot;index&quot;:null}" fill="none" stroke="#000000"/></g><g><path d="M115.73959,147.52428c21.17083,-19.4795 54.12442,-18.10839 73.6039,3.06243c19.4795,21.17083 18.10839,54.12442 -3.06243,73.6039c-21.17083,19.4795 -54.12441,18.10839 -73.6039,-3.06244c-19.4795,-21.17083 -18.10839,-54.12442 3.06242,-73.6039z" fill="#d61313" stroke="#000000" stroke-linecap="butt"/><path d="M136.88281,152.41595c0,0 6.58835,-2.75735 9.95105,-3.38209c3.11136,-0.57805 9.52975,-0.23722 9.52975,-0.23722" fill="none" stroke="#ffffff" stroke-linecap="round"/></g><g stroke-linecap="round"><path d="M269.70468,92.61449l93.79865,-6.76579l-8.30349,90.41574l-87.64792,28.29336l-34.75162,-7.68841z" fill="#ea2020" stroke="none"/><path d="M269.70468,92.61451l14.24724,-1.64996l-16.4,113.59324l-34.75162,-7.68841z" fill="#a71717" stroke="none"/><path d="M269.70468,92.61449l93.79865,-6.76579l-8.30349,90.41574l-87.64792,28.29336l-34.75162,-7.68841z" fill="none" stroke="#000000"/></g><path d="M223.73325,149.13906c-13.57134,6.6775 -27.82059,13.70807 -40.50818,19.72735c-14.12844,6.70287 5.31741,20.23371 -3.89771,22.53104c-5.89033,1.46842 -20.20843,-16.42258 -23.92862,-16.54715c-5.87681,-0.19677 -13.66706,10.42049 -13.66706,10.42049c0,0 -19.25687,-5.94658 -17.87773,-15.8446c1.42196,-10.20539 -8.329,-19.36356 -9.8514,-24.35501c-1.79123,-5.87301 7.03876,-14.92419 7.03876,-14.92419c0,0 10.63718,-5.23448 25.22235,-8.89377c3.19458,-0.80149 6.7171,2.58031 10.20316,1.49685c13.76657,-4.27863 30.22472,-9.93296 45.8497,-15.05445c28.73071,-9.41723 55.28206,-17.62996 61.60629,-16.39223c7.52263,1.47232 32.22241,20.71132 22.96355,25.84939c0,0 -35.51524,18.3876 -63.15309,31.98625z" data-paper-data="{&quot;index&quot;:null}" fill="#ffe323" stroke="#000000" stroke-linecap="round"/><g stroke-linecap="round"><path d="M269.34096,81.28203c-6.43192,-3.2362 -11.91201,-76.15997 -3.56167,-84.26584c20.5007,-19.90048 81.39832,-17.68265 95.46356,-5.50238c14.99136,12.98229 7.96096,77.16452 2.36865,90.15079c-3.61852,8.4028 -84.94392,4.31011 -94.27053,-0.38255z" fill="#ffe323" stroke="none"/><path d="M269.34096,81.28203c-6.43192,-3.2362 -11.91201,-76.15997 -3.56167,-84.26584c10.47776,-10.17101 -3.30438,43.9784 19.63399,66.668c21.94259,21.70461 80.93234,11.63134 78.19822,17.98041c-3.61852,8.4028 -84.94392,4.31011 -94.27053,-0.38255z" fill="#d6943b" stroke="none"/><path d="M269.34096,81.28203c-6.43192,-3.2362 -11.91201,-76.15997 -3.56167,-84.26584c20.5007,-19.90048 81.39832,-17.68265 95.46356,-5.50238c14.99136,12.98229 7.96096,77.16452 2.36865,90.15079c-3.61852,8.4028 -84.94392,4.31011 -94.27053,-0.38255z" fill="none" stroke="#000000"/></g><path d="M297.61316,32.24499c0,0 2.86934,-24.86392 14.12799,-25.1645c11.25865,-0.30056 29.24609,24.00653 29.24609,24.00653l26.47087,-18.08883" fill="none" stroke="#000000" stroke-linecap="round"/><g fill="none" stroke="#000000" stroke-linecap="round"><path d="M321.99939,27.04695l0.59046,17.00749"/><path d="M355.28417,41.42577l-0.74194,-10.28154"/></g><path d="M358.35433,64.51277c0,0 -1.37534,6.98387 -24.7181,6.84408c-19.47813,-0.11662 -47.74559,-14.97309 -55.94961,-19.39635c-1.62775,-0.87762 -0.66123,0.08519 -0.66123,0.08519c0,0 29.09643,13.65576 29.36985,13.74878c11.49696,3.91082 26.72649,5.33302 26.72649,5.33302" fill="#ffffff" stroke="#000000" stroke-linecap="round"/></g></g></svg>