<svg version="1.1" xmlns="http://www.w3.org/2000/svg" xmlns:xlink="http://www.w3.org/1999/xlink" width="242.71514" height="450.33255" viewBox="0,0,242.71514,450.33255"><g transform="translate(-171.05711,77.99621)"><g data-paper-data="{&quot;isPaintingLayer&quot;:true}" fill-rule="nonzero" stroke-width="8" stroke-linejoin="miter" stroke-miterlimit="10" stroke-dasharray="" stroke-dashoffset="0" style="mix-blend-mode: normal"><g stroke-linecap="round"><path d="M305.68201,184.80106l50.41166,3.68719l-20.65744,148.53628l-47.05308,21.01245l-38.6371,-15.13075z" fill="#242a3a" stroke="none"/><path d="M305.68201,184.80106l25.46937,4.03004l-42.76823,169.2059l-38.6371,-15.13075z" fill="#1b202d" stroke="none"/><path d="M305.68202,184.80106l50.41166,3.68719l-20.65745,148.53628l-47.05308,21.01245l-38.6371,-15.13075z" fill="none" stroke="#000000"/></g><g fill="#d6943b" stroke="#000000" stroke-linecap="round"><g><path d="M304.81899,113.96337c-0.09201,-9.77019 0.6192,-34.53173 1.73168,-61.1131c0.59643,-14.25101 1.30822,-29.02513 2.07344,-42.29259c0.80407,-13.94089 5.07292,-39.49198 5.07292,-39.49198c0,0 13.5601,-12.333 21.12065,-6.88533c7.79533,5.61683 19.74159,2.08953 24.55002,3.11351c5.65768,1.20481 9.17315,12.06722 9.17315,12.06722c0,0 -0.45006,10.57908 -3.9744,23.52921c-0.77194,2.83647 -5.14815,4.0782 -5.81794,7.2658c-2.76297,13.14925 -5.69893,28.89608 -8.60351,43.88424c-4.98892,25.74348 -9.88538,49.24884 -13.65399,53.50948c-4.59421,5.19396 -31.58291,15.8791 -31.67202,6.41356z" data-paper-data="{&quot;index&quot;:null}"/><path d="M314.73792,-9.87936l46.18848,16.11141"/></g><path d="M312.87467,-4.39227c0,0 22.86472,3.84089 27.70687,7.74864c4.8422,3.90775 7.0379,9.22361 -2.63176,12.4876c-9.6697,3.26397 -26.35858,-2.70194 -26.35858,-2.70194z"/></g><g stroke-linecap="round"><path d="M232.05456,194.76494l50.41166,3.68719l-20.65744,148.53628l-47.05308,21.01245l-38.6371,-15.13075z" fill="#242a3a" stroke="none"/><path d="M232.05456,194.76494l25.46937,4.03004l-42.76823,169.2059l-38.6371,-15.13075z" fill="#1b202d" stroke="none"/><path d="M232.05457,194.76494l50.41166,3.68719l-20.65745,148.53628l-47.05308,21.01245l-38.6371,-15.13075z" fill="none" stroke="#000000"/></g><g stroke-linecap="round"><path d="M271.0376,103.23164l98.01743,-2.3359l-13.06228,88.79255l-92.66281,23.85281l-35.81687,-9.18991z" fill="#ea2020" stroke="none"/><path d="M271.03759,103.23165l14.91843,-0.96857l-22.62607,111.278l-35.81687,-9.18991z" fill="#a71717" stroke="none"/><path d="M271.0376,103.23164l98.01743,-2.3359l-13.06228,88.79255l-92.66281,23.85281l-35.81687,-9.18991z" fill="none" stroke="#000000"/></g><g stroke-linecap="round"><path d="M299.59534,110.62543c-6.37785,-3.77844 -5.29253,-75.97986 4.13112,-83.17402c23.13575,-17.66215 86.16231,-9.83062 99.63513,3.44928c14.35995,14.15433 1.09665,76.60081 -5.91667,88.84894c-4.53799,7.92518 -88.60137,-3.64523 -97.84958,-9.12417z" fill="#ffe323" stroke="none"/><path d="M299.59534,110.62543c-6.37785,-3.77844 -5.29253,-75.97986 4.13112,-83.17402c11.82451,-9.02703 -7.51722,42.92944 14.19252,67.36469c20.7673,23.37447 82.95481,18.94534 79.52595,24.93352c-4.53799,7.92518 -88.60137,-3.64523 -97.84958,-9.12417z" fill="#d6943b" stroke="none"/><path d="M299.59534,110.62543c-6.37785,-3.77844 -5.29253,-75.97986 4.13112,-83.17402c23.13575,-17.66215 86.16231,-9.83062 99.63513,3.44928c14.35995,14.15433 1.09665,76.60081 -5.91667,88.84894c-4.53799,7.92518 -88.60137,-3.64523 -97.84958,-9.12417z" fill="none" stroke="#000000"/></g><path d="M333.49379,65.35089c0,0 5.28953,-24.17797 17.0078,-23.4287c11.71826,0.74928 28.13695,26.31528 28.13695,26.31528l29.16651,-15.32708" fill="none" stroke="#000000" stroke-linecap="round"/><g fill="none" stroke="#000000" stroke-linecap="round"><path d="M358.34485,78.96757l0.9671,-16.77521"/><path d="M392.53699,79.41722l0.18489,-10.17684"/></g><path d="M366.76513,106.56098c0,0 -30.72936,21.56564 -42.30377,16.65395c-0.27525,-0.11681 -14.17052,-40.61927 -14.17052,-40.61927c0,0 -0.91412,-1.03624 0.6945,-0.02239c8.10761,5.10991 36.07856,22.33876 56.29271,24.26094c24.22479,2.30358 26.30176,-4.43478 26.30176,-4.43478" fill="#ffffff" stroke="#000000" stroke-linecap="round"/><g><path d="M265.48296,-33.58667c8.46999,-28.47574 37.90003,-45.87163 65.73379,-38.85484c27.83378,7.01679 43.53121,35.78918 35.06123,64.2649c-8.46999,28.47574 -37.90002,45.87162 -65.73379,38.85482c-27.83378,-7.01679 -43.53121,-35.78917 -35.06123,-64.26489z" fill="#d61313" stroke="#000000" stroke-linecap="butt"/><path d="M286.42204,-41.33909c0,0 4.32989,-6.05371 6.94105,-8.47858c2.416,-2.24362 8.18592,-5.56914 8.18592,-5.56914" fill="none" stroke="#ffffff" stroke-linecap="round"/></g><path d="M282.68741,57.54758c6.32127,-14.42544 12.94594,-29.58637 18.99718,-42.9019c6.73844,-14.82771 -16.96227,-11.79289 -11.25206,-19.88029c3.65,-5.16945 26.12697,-1.35119 29.09911,-3.81297c4.69511,-3.88886 4.02288,-17.34884 4.02288,-17.34884c0,0 18.74579,-8.69516 23.94799,-0.19061c5.36374,8.76866 18.75276,9.05875 23.101,11.82316c5.11617,3.2527 3.987,16.23163 3.987,16.23163c0,0 -4.95416,11.30716 -13.97726,24.12513c-1.97632,2.80752 -6.85964,2.64667 -8.88391,5.86979c-7.99383,12.72819 -17.2088,28.35659 -26.1136,43.00555c-16.37385,26.93604 -31.81642,51.45461 -37.51941,54.85627c-6.78369,4.0462 -38.18901,6.33408 -34.24564,-3.95215c0,0 15.9635,-38.44746 28.83668,-67.82472z" data-paper-data="{&quot;index&quot;:null}" fill="#ffe323" stroke="#000000" stroke-linecap="round"/></g></g></svg>