<svg version="1.1" xmlns="http://www.w3.org/2000/svg" xmlns:xlink="http://www.w3.org/1999/xlink" width="323.17074" height="367.92973" viewBox="0,0,323.17074,367.92973"><g transform="translate(-151.51668,7.31265)"><g data-paper-data="{&quot;isPaintingLayer&quot;:true}" fill-rule="nonzero" stroke-width="8" stroke-linejoin="miter" stroke-miterlimit="10" stroke-dasharray="" stroke-dashoffset="0" style="mix-blend-mode: normal"><g stroke-linecap="round"><path d="M348.81604,180.22344l48.35191,3.73433l-19.81341,150.4352l-45.13056,21.28108l-37.05844,-15.32418z" fill="#242a3a" stroke="none"/><path d="M348.81604,180.22344l24.42873,4.08156l-41.02078,171.36906l-37.05844,-15.32418z" fill="#1b202d" stroke="none"/><path d="M348.81605,180.22344l48.35191,3.73433l-19.81342,150.4352l-45.13056,21.28108l-37.05844,-15.32418z" fill="none" stroke="#000000"/></g><g fill="#d6943b" stroke="#000000" stroke-linecap="round"><g><path d="M322.03374,135.60554c9.77595,1.40597 34.43248,5.8689 60.85697,10.9923c14.16689,2.74681 28.84197,5.68346 42.00454,8.44069c13.83067,2.89719 38.82586,10.86992 38.82586,10.86992c0,0 10.6087,14.80307 4.20706,21.17261c-6.60041,6.56733 -4.58778,18.48686 -6.21993,22.91094c-1.92042,5.20545 -13.22135,6.89376 -13.22135,6.89376c0,0 -10.51571,-2.04601 -23.0118,-7.38312c-2.73701,-1.16899 -3.42393,-5.52771 -6.5248,-6.65306c-12.79148,-4.64225 -28.15709,-9.84641 -42.76844,-14.9047c-25.0963,-8.68809 -47.96751,-16.94596 -51.74843,-21.18737c-4.60915,-5.17058 -11.87076,-32.51413 -2.39966,-31.15197z" data-paper-data="{&quot;index&quot;:null}"/><path d="M422.59619,205.52415l21.94966,-41.53716"/></g><path d="M439.29799,161.37318c0,0 -6.73351,21.19427 -11.25196,25.20964c-4.51848,4.01538 -10.10913,5.29441 -12.14685,-4.41612c-2.03771,-9.71056 6.03759,-24.69671 6.03759,-24.69671z"/></g><g stroke-linecap="round"><path d="M266.23053,199.41066l49.71193,17.13481c0,0 -26.49773,65.33094 -39.08023,87.98679c-11.9407,21.50023 -40.6995,48.75697 -40.6995,48.75697l-49.79227,3.22196l-28.84228,-27.86183c0,0 48.303,-39.67698 67.21866,-62.16624c17.14393,-20.38282 41.4837,-67.07248 41.4837,-67.07248z" fill="#242a3a" stroke="none"/><path d="M266.23053,199.41066l21.2233,12.76688l-101.08338,144.33367l-28.84228,-27.86183c0,0 50.08192,-41.09411 69.01148,-63.59989c17.12309,-20.35803 39.69088,-65.63885 39.69088,-65.63885z" fill="#1b202d" stroke="none"/><path d="M266.23054,199.41067l55.37023,12.10371c0,0 -33.67195,69.15535 -46.56224,92.36539c-11.50982,20.7244 -38.8758,49.40947 -38.8758,49.40947l-49.79227,3.22196l-28.84228,-27.86183c0,0 48.7214,-39.92098 67.7506,-62.54522c16.96813,-20.17379 40.95177,-66.69349 40.95177,-66.69349z" fill="none" stroke="#000000"/></g><g><path d="M389.31385,161.63934c30.42587,-10.68049 64.95257,2.31639 77.11756,29.02933c12.165,26.71296 -2.63835,57.02632 -33.0642,67.7068c-30.42587,10.68049 -64.95256,-2.31639 -77.11755,-29.02934c-12.165,-26.71296 2.63835,-57.02632 33.06419,-67.7068z" fill="#d61313" stroke="#000000" stroke-linecap="butt"/><path d="M409.84185,173.72808c0,0 8.13038,-0.23499 11.96323,0.37656c3.54637,0.56583 10.24129,3.1662 10.24129,3.1662" fill="none" stroke="#ffffff" stroke-linecap="round"/></g><g stroke-linecap="round"><path d="M297.13438,107.09885l93.79865,-6.76579l-8.30349,90.41574l-87.64792,28.29336l-34.75162,-7.68841z" fill="#ea2020" stroke="none"/><path d="M297.13438,107.09887l14.24724,-1.64996l-16.4,113.59324l-34.75162,-7.68841z" fill="#a71717" stroke="none"/><path d="M297.13438,107.09885l93.79865,-6.76579l-8.30349,90.41574l-87.64792,28.29336l-34.75162,-7.68841z" fill="none" stroke="#000000"/></g><path d="M353.36039,161.1923c12.01504,9.18744 24.64774,18.82512 35.68029,27.5136c12.28546,9.67517 15.75981,-13.75886 21.91464,-6.526c3.93414,4.62328 -5.72553,25.40276 -4.18312,28.79042c2.43657,5.35152 15.41031,7.60904 15.41031,7.60904c0,0 3.23507,19.89279 -6.24404,23.05811c-9.77347,3.26362 -13.64144,16.06956 -17.43557,19.65241c-4.46425,4.21559 -16.49747,0.33046 -16.49747,0.33046c0,0 -9.41796,-7.20079 -19.18026,-18.63824c-2.13823,-2.50514 -0.67516,-7.16391 -3.19555,-9.80477c-9.95311,-10.42885 -22.33514,-22.65698 -33.86947,-34.37573c-21.20895,-21.54805 -40.37005,-41.6795 -42.07313,-47.89459c-2.02576,-7.39283 4.22567,-38.0708 12.94448,-32.06175c0,0 32.26037,23.63693 56.72886,42.34701z" data-paper-data="{&quot;index&quot;:null}" fill="#ffe323" stroke="#000000" stroke-linecap="round"/><g stroke-linecap="round"><path d="M296.77066,95.76639c-6.43192,-3.2362 -11.91201,-76.15997 -3.56167,-84.26584c20.5007,-19.90048 81.39832,-17.68265 95.46356,-5.50238c14.99136,12.98229 7.96096,77.16452 2.36865,90.15079c-3.61852,8.4028 -84.94392,4.31011 -94.27053,-0.38255z" fill="#ffe323" stroke="none"/><path d="M296.77066,95.76639c-6.43192,-3.2362 -11.91201,-76.15997 -3.56167,-84.26584c10.47776,-10.17101 -3.30438,43.9784 19.63399,66.668c21.94259,21.70461 80.93234,11.63134 78.19822,17.98041c-3.61852,8.4028 -84.94392,4.31011 -94.27053,-0.38255z" fill="#d6943b" stroke="none"/><path d="M296.77066,95.76639c-6.43192,-3.2362 -11.91201,-76.15997 -3.56167,-84.26584c20.5007,-19.90048 81.39832,-17.68265 95.46356,-5.50238c14.99136,12.98229 7.96096,77.16452 2.36865,90.15079c-3.61852,8.4028 -84.94392,4.31011 -94.27053,-0.38255z" fill="none" stroke="#000000"/></g><path d="M333.13763,46.02539c0,0 2.86934,-24.86392 14.12799,-25.1645c11.25865,-0.30056 29.24609,24.00653 29.24609,24.00653l26.47087,-18.08883" fill="none" stroke="#000000" stroke-linecap="round"/><g fill="none" stroke="#000000" stroke-linecap="round"><path d="M356.67091,39.97791l0.59046,17.00749"/><path d="M389.21375,44.07519l0.74194,10.28154"/></g><path d="M365.2085,83.91837c0,0 -7.34387,21.49549 -18.84083,17.58467c-0.27342,-0.09302 -37.25551,-36.66647 -37.25551,-36.66647c0,0 -0.96652,-0.96281 0.66123,-0.08519c8.20402,4.42326 36.47148,19.27973 55.94961,19.39635c23.34276,0.13979 24.7181,-6.84408 24.7181,-6.84408" fill="#ffffff" stroke="#000000" stroke-linecap="round"/></g></g></svg>