<svg version="1.1" xmlns="http://www.w3.org/2000/svg" xmlns:xlink="http://www.w3.org/1999/xlink" width="333.58837" height="373.44871" viewBox="0,0,333.58837,373.44871"><g transform="translate(-85.70704,1.07548)"><g data-paper-data="{&quot;isPaintingLayer&quot;:true}" fill-rule="nonzero" stroke-width="8" stroke-linejoin="miter" stroke-miterlimit="10" stroke-dasharray="" stroke-dashoffset="0" style="mix-blend-mode: normal"><g fill="#d6943b" stroke="#000000" stroke-linecap="round"><g><path d="M360.06233,119.29167c1.80785,9.70966 5.49926,34.49345 9.13293,61.16364c1.9481,14.29863 3.8796,29.13948 5.49531,42.49033c1.6977,14.02851 2.17397,40.26011 2.17397,40.26011c0,0 -10.61225,14.80052 -18.70019,10.7834c-8.33909,-4.14185 -18.98097,1.5919 -23.69487,1.4669c-5.54645,-0.14707 -10.77441,-10.30729 -10.77441,-10.30729c0,0 -1.43927,-10.61578 -0.39771,-24.16393c0.22814,-2.96744 4.13541,-5.01769 4.20537,-8.31572c0.28864,-13.60475 0.2828,-29.82773 0.38103,-45.28957c0.16874,-26.55708 0.64459,-50.86877 3.44718,-55.81148c3.41658,-6.02546 26.97995,-21.6833 28.7314,-12.2764z" data-paper-data="{&quot;index&quot;:null}"/><path d="M372.52647,244.42907l-46.38585,-7.44825"/></g><path d="M373.31659,238.61978c0,0 -22.23405,0.42926 -27.48775,-2.56042c-5.25373,-2.98969 -8.26034,-7.8735 0.28149,-12.92164c8.54187,-5.04814 25.32751,-2.21306 25.32751,-2.21306z"/></g><g stroke-linecap="round"><path d="M234.34179,192.55025l48.35191,3.73433l-19.81341,150.4352l-45.13056,21.28108l-37.05844,-15.32418z" fill="#242a3a" stroke="none"/><path d="M234.34179,192.55025l24.42873,4.08156l-41.02078,171.36906l-37.05844,-15.32418z" fill="#1b202d" stroke="none"/><path d="M234.3418,192.55025l48.35191,3.73433l-19.81342,150.4352l-45.13056,21.28108l-37.05844,-15.32418z" fill="none" stroke="#000000"/></g><g stroke-linecap="round"><path d="M414.2415,341.08782l-37.05842,15.32419l-45.13058,-21.28108l-13.94277,-141.99616l37.71137,-14.74178z" data-paper-data="{&quot;index&quot;:null}" fill="#242a3a" stroke="none"/><path d="M377.18306,356.41201l-45.13058,-21.28108l-13.94277,-141.99616l16.98086,-3.7294z" data-paper-data="{&quot;index&quot;:null}" fill="#1b202d" stroke="none"/><path d="M414.2415,341.47335l-37.05842,15.32419l-45.13058,-21.28108l-13.94277,-141.99616l37.71137,-14.74178z" data-paper-data="{&quot;index&quot;:null}" fill="none" stroke="#000000"/></g><g><path d="M119.47118,108.50778c25.98927,-12.33744 57.0592,-1.27043 69.39663,24.71883c12.33744,25.98927 1.27043,57.0592 -24.71883,69.39663c-25.98927,12.33744 -57.05919,1.27043 -69.39662,-24.71884c-12.33744,-25.98927 -1.27043,-57.0592 24.71882,-69.39663z" fill="#d61313" stroke="#000000" stroke-linecap="butt"/><path d="M138.21791,119.44049c0,0 7.10935,-0.68293 10.50625,-0.28398c3.143,0.36913 9.17267,2.59513 9.17267,2.59513" fill="none" stroke="#ffffff" stroke-linecap="round"/></g><g stroke-linecap="round"><path d="M271.73203,99.84677l94.01258,-2.36576l-12.52857,89.92769l-88.87674,24.15775l-34.35344,-9.3074z" fill="#ea2020" stroke="none"/><path d="M271.73202,99.84679l14.30888,-0.98095l-21.7016,112.7006l-34.35344,-9.3074z" fill="#a71717" stroke="none"/><path d="M271.73203,99.84677l94.01258,-2.36576l-12.52857,89.92769l-88.87674,24.15775l-34.35344,-9.3074z" fill="none" stroke="#000000"/></g><path d="M222.14412,142.02649c-14.93995,2.35967 -30.63197,4.85585 -44.5329,6.84849c-15.47959,2.21895 -0.91212,20.90086 -10.39425,20.36663c-6.06099,-0.34152 -14.43961,-21.66978 -17.9561,-22.89029c-5.55502,-1.92803 -16.13966,5.90648 -16.13966,5.90648c0,0 -16.63261,-11.38178 -12.38457,-20.42761c4.37996,-9.32673 -2.22206,-20.96145 -2.19826,-26.17985c0.02806,-6.14003 11.14211,-12.17083 11.14211,-12.17083c0,0 11.7101,-1.85015 26.72474,-1.02675c3.28865,0.18035 5.65188,4.45351 9.30243,4.45084c14.41613,-0.01056 31.8105,-0.53818 48.25128,-0.80353c30.23078,-0.48794 58.02327,-0.47068 63.69743,2.58412c6.74936,3.63372 24.645,29.32349 14.27997,31.48966c0,0 -39.36716,7.0472 -69.79218,11.85265z" data-paper-data="{&quot;index&quot;:null}" fill="#ffe323" stroke="#000000" stroke-linecap="round"/><g stroke-linecap="round"><path d="M278.41047,99.72938c-6.27331,-3.53386 -8.33235,-76.63425 0.38842,-84.34018c21.41015,-18.91859 82.1371,-13.85135 95.6165,-1.02577c14.36695,13.6701 4.3386,77.45267 -1.85573,90.16281c-4.00805,8.22412 -85.05257,0.32744 -94.14919,-4.79684z" fill="#ffe323" stroke="none"/><path d="M278.41047,99.72938c-6.27331,-3.53386 -8.33235,-76.63425 0.38842,-84.34018c10.94257,-9.66918 -5.36027,43.7754 16.49037,67.51432c20.90208,22.70837 80.29885,15.40866 77.2704,21.62272c-4.00805,8.22412 -85.05257,0.32744 -94.14919,-4.79684z" fill="#d6943b" stroke="none"/><path d="M278.41047,99.72938c-6.27331,-3.53386 -8.33235,-76.63425 0.38842,-84.34018c21.41015,-18.91859 82.1371,-13.85135 95.6165,-1.02577c14.36695,13.6701 4.3386,77.45267 -1.85573,90.16281c-4.00805,8.22412 -85.05257,0.32744 -94.14919,-4.79684z" fill="none" stroke="#000000"/></g><path d="M308.94807,52.07014c0,0 4.03057,-24.70227 15.29095,-24.47527c11.26037,0.22701 28.08977,25.34979 28.08977,25.34979l27.28893,-16.82935" fill="none" stroke="#000000" stroke-linecap="round"/><g fill="none" stroke="#000000" stroke-linecap="round"><path d="M333.55097,48.01981l-0.20665,17.01648"/><path d="M365.86623,53.63658l0.25964,10.305"/></g><path d="M368.11149,87.14703c0,0 -1.70089,6.9118 -25.01149,5.67902c-19.4513,-1.02866 -46.99201,-17.1926 -54.97989,-21.9952c-1.58487,-0.95288 -0.66449,0.05413 -0.66449,0.05413c0,0 28.42501,15.00337 28.69377,15.10909c11.3012,4.44493 26.44742,6.57878 26.44742,6.57878" fill="#ffffff" stroke="#000000" stroke-linecap="round"/></g></g></svg>