<svg version="1.1" xmlns="http://www.w3.org/2000/svg" xmlns:xlink="http://www.w3.org/1999/xlink" width="320.69857" height="370.13761" viewBox="0,0,320.69857,370.13761"><g transform="translate(-147.38715,-6.86006)"><g data-paper-data="{&quot;isPaintingLayer&quot;:true}" fill-rule="nonzero" stroke-width="8" stroke-linejoin="miter" stroke-miterlimit="10" stroke-dasharray="" stroke-dashoffset="0" style="mix-blend-mode: normal"><g data-paper-data="{&quot;index&quot;:null}" stroke-linecap="round"><path d="M253.41079,201.09326l39.90642,15.02089l-52.96654,134.46037l-47.75748,21.68399l-39.21547,-15.61432z" data-paper-data="{&quot;index&quot;:null}" fill="#242a3a" stroke="none"/><path d="M248.88584,215.90149l15.02902,3.20212l-72.3721,155.98443l-35.99653,-20.16835z" data-paper-data="{&quot;index&quot;:null}" fill="#1b202d" stroke="none"/><path d="M253.41079,201.48609l39.90642,15.02089l-52.96654,134.46037l-47.75748,21.68399l-39.21547,-15.61432z" data-paper-data="{&quot;index&quot;:null}" fill="none" stroke="#000000"/></g><g fill="#d6943b" stroke="#000000" stroke-linecap="round"><g><path d="M311.35075,152.17122c7.16469,-6.98142 25.96192,-23.96874 46.37677,-41.94353c10.94496,-9.63678 22.35491,-19.55739 32.68656,-28.37206c10.85608,-9.26207 32.64452,-24.14721 32.64452,-24.14721c0,0 18.2979,1.41594 19.38401,10.9249c1.11985,9.80425 11.81223,16.24337 14.30835,20.56415c2.93699,5.08388 -2.7192,15.3985 -2.7192,15.3985c0,0 -8.12983,7.14829 -20.09365,13.67486c-2.62043,1.4295 -6.50004,-0.96497 -9.31111,0.78938c-11.59593,7.23689 -25.23037,16.18222 -38.28238,24.61427c-22.41798,14.48274 -43.11789,27.45107 -48.81944,27.64698c-6.95055,0.23876 -33.11579,-12.3865 -26.17448,-19.15019z" data-paper-data="{&quot;index&quot;:null}"/><path d="M429.00326,117.91273l-19.33521,-45.94408"/></g><path d="M404.34854,74.45733c0,0 12.62997,19.81831 13.01582,26.20463c0.38584,6.38635 -2.06057,11.78963 -11.01775,6.8669c-8.9572,-4.92278 -15.83652,-21.62559 -15.83652,-21.62559z"/></g><g stroke-linecap="round"><path d="M413.47347,340.3518l-38.63708,15.61432l-47.0531,-21.68399l-14.53672,-144.68454l39.31784,-15.02089z" data-paper-data="{&quot;index&quot;:null}" fill="#242a3a" stroke="none"/><path d="M374.83637,355.96612l-47.0531,-21.68399l-14.53672,-144.68454l17.70423,-3.8z" data-paper-data="{&quot;index&quot;:null}" fill="#1b202d" stroke="none"/><path d="M413.47347,340.74463l-38.63708,15.61432l-47.0531,-21.68399l-14.53672,-144.68454l39.31784,-15.02089z" data-paper-data="{&quot;index&quot;:null}" fill="none" stroke="#000000"/></g><g stroke-linecap="round"><path d="M278.25631,117.23585l98.01743,-2.41055l-13.06228,91.63027l-92.66281,24.61512l-35.81687,-9.48361z" fill="#ea2020" stroke="none"/><path d="M278.2563,117.23586l14.91843,-0.99952l-22.62607,114.83433l-35.81687,-9.48361z" fill="#a71717" stroke="none"/><path d="M278.25631,117.23585l98.01743,-2.41055l-13.06228,91.63027l-92.66281,24.61512l-35.81687,-9.48361z" fill="none" stroke="#000000"/></g><g stroke-linecap="round"><path d="M271.35427,108.10634c-6.43522,-3.78579 -6.45719,-78.30111 2.85526,-85.89048c22.8628,-18.63242 86.00369,-11.66598 99.67895,1.79784c14.5757,14.35036 2.27123,79.01596 -4.55363,91.77731c-4.41603,8.25727 -88.6492,-2.19505 -97.98058,-7.68466z" fill="#ffe323" stroke="none"/><path d="M271.35427,108.10634c-6.43522,-3.78579 -6.45719,-78.30111 2.85526,-85.89048c11.685,-9.52293 -6.85821,44.4267 15.22426,69.25483c21.12385,23.7503 83.23778,18.08124 79.90105,24.32034c-4.41603,8.25727 -88.6492,-2.19505 -97.98058,-7.68466z" fill="#d6943b" stroke="none"/><path d="M271.35427,108.10634c-6.43522,-3.78579 -6.45719,-78.30111 2.85526,-85.89048c22.8628,-18.63242 86.00369,-11.66598 99.67895,1.79784c14.5757,14.35036 2.27123,79.01596 -4.55363,91.77731c-4.41603,8.25727 -88.6492,-2.19505 -97.98058,-7.68466z" fill="none" stroke="#000000"/></g><path d="M305.85908,50.24733c0,0 10.2622,-23.36391 21.58495,-20.253c11.32274,3.11091 22.03606,32.23784 22.03606,32.23784l31.79437,-9.6257" fill="none" stroke="#000000" stroke-linecap="round"/><g fill="none" stroke="#000000" stroke-linecap="round"><path d="M328.8373,70.74825l4.33265,-16.78997"/><path d="M364.53416,67.52965l-2.23414,10.26323"/></g><path d="M344.86031,93.68785c0,0 -34.04869,4.3958 -45.69737,-0.46742c-0.27703,-0.11566 -11.13928,-23.26139 -11.13928,-23.26139c0,0 -0.92994,-1.05303 0.69409,-0.03538c8.18524,5.12901 36.41785,22.41105 56.65962,24.03703c24.25791,1.94862 26.23135,-5.0406 26.23135,-5.0406" fill="#ffffff" stroke="#000000" stroke-linecap="round"/><g><path d="M379.73853,55.34025c24.92451,-16.16717 58.60451,-10.30191 75.22639,13.10038c16.62188,23.4023 9.89126,55.47968 -15.03324,71.64683c-24.92451,16.16717 -58.6045,10.3019 -75.22638,-13.1004c-16.62188,-23.4023 -9.89127,-55.47967 15.03323,-71.64683z" fill="#d61313" stroke="#000000" stroke-linecap="butt"/><path d="M400.70012,63.03162c0,0 7.22298,-1.79555 10.78326,-1.94573c3.29417,-0.13895 9.84214,1.07566 9.84214,1.07566" fill="none" stroke="#ffffff" stroke-linecap="round"/></g><path d="M321.13007,115.83958c13.97361,-7.87378 28.64482,-16.16077 41.71344,-23.29411c14.55277,-7.94348 11.9632,-32.9789 21.50115,-36.0455c6.0967,-1.96013 3.44732,27.92281 7.3212,27.75707c6.11961,-0.26185 13.99008,-11.6963 13.99008,-11.6963c0,0 20.17023,4.54582 18.95503,14.74279c-1.25295,10.5136 9.09705,19.08076 10.79209,24.04845c1.99435,5.84507 -6.99281,15.76513 -6.99281,15.76513c0,0 -10.95246,6.17213 -26.04812,11.0494c-3.30639,1.06826 -7.04693,-2.10144 -10.65037,-0.72285c-14.23005,5.44413 -31.23034,12.5022 -47.37549,18.95161c-29.68717,11.85899 -57.1333,22.31881 -63.74163,21.55487c-7.86055,-0.90875 -33.98978,-18.57447 -24.46941,-24.5399c0,0 36.54769,-21.53574 65.00477,-37.57062z" data-paper-data="{&quot;index&quot;:null}" fill="#ffe323" stroke="#000000" stroke-linecap="round"/></g></g></svg>