<svg version="1.1" xmlns="http://www.w3.org/2000/svg" xmlns:xlink="http://www.w3.org/1999/xlink" width="328.12904" height="388.66644" viewBox="0,0,328.12904,388.66644"><g transform="translate(-91.16637,16.2932)"><g data-paper-data="{&quot;isPaintingLayer&quot;:true}" fill-rule="nonzero" stroke-width="8" stroke-linejoin="miter" stroke-miterlimit="10" stroke-dasharray="" stroke-dashoffset="0" style="mix-blend-mode: normal"><g fill="#d6943b" stroke="#000000" stroke-linecap="round"><g><path d="M360.76495,103.57334c2.26057,9.61435 7.10856,34.19807 11.98722,60.66884c2.61557,14.19171 5.23995,28.92583 7.47911,42.18637c2.3528,13.93361 4.05697,40.11413 4.05697,40.11413c0,0 -9.9075,15.28126 -18.17468,11.6473c-8.5239,-3.74678 -18.8856,2.47904 -23.60018,2.57493c-5.54725,0.11283 -11.24528,-9.79141 -11.24528,-9.79141c0,0 -1.93483,-10.53673 -1.52888,-24.11879c0.08892,-2.97487 3.89589,-5.20585 3.81133,-8.50353c-0.34879,-13.60334 -1.11435,-29.80825 -1.74031,-45.25772c-1.07512,-26.53585 -1.73831,-50.84315 0.82974,-55.91168c3.13066,-6.17885 25.93492,-22.92299 28.12497,-13.60843z" data-paper-data="{&quot;index&quot;:null}"/><path d="M379.07562,227.98975l-46.68376,-5.26782"/></g><path d="M379.59282,222.14984c0,0 -22.18955,1.47001 -27.5775,-1.27035c-5.38797,-2.74038 -8.61999,-7.47803 -0.32394,-12.92065c8.29609,-5.44262 25.19608,-3.39672 25.19608,-3.39672z"/></g><g stroke-linecap="round"><path d="M234.34179,192.55025l48.35191,3.73433l-19.81341,150.4352l-45.13056,21.28108l-37.05844,-15.32418z" fill="#242a3a" stroke="none"/><path d="M234.34179,192.55025l24.42873,4.08156l-41.02078,171.36906l-37.05844,-15.32418z" fill="#1b202d" stroke="none"/><path d="M234.3418,192.55025l48.35191,3.73433l-19.81342,150.4352l-45.13056,21.28108l-37.05844,-15.32418z" fill="none" stroke="#000000"/></g><g stroke-linecap="round"><path d="M414.2415,341.08782l-37.05842,15.32419l-45.13058,-21.28108l-13.94277,-141.99616l37.71137,-14.74178z" data-paper-data="{&quot;index&quot;:null}" fill="#242a3a" stroke="none"/><path d="M377.18306,356.41201l-45.13058,-21.28108l-13.94277,-141.99616l16.98086,-3.7294z" data-paper-data="{&quot;index&quot;:null}" fill="#1b202d" stroke="none"/><path d="M414.2415,341.47335l-37.05842,15.32419l-45.13058,-21.28108l-13.94277,-141.99616l37.71137,-14.74178z" data-paper-data="{&quot;index&quot;:null}" fill="none" stroke="#000000"/></g><g><path d="M116.35533,131.94777c23.15858,-17.06854 55.76909,-12.13156 72.83761,11.02701c17.06854,23.15858 12.13156,55.76909 -11.02701,72.83761c-23.15858,17.06854 -55.76908,12.13156 -72.83761,-11.02702c-17.06854,-23.15858 -12.13156,-55.76909 11.027,-72.83761z" fill="#d61313" stroke="#000000" stroke-linecap="butt"/><path d="M136.84331,139.10365c0,0 6.84853,-2.02655 10.25915,-2.28291c3.1557,-0.2372 9.49927,0.79772 9.49927,0.79772" fill="none" stroke="#ffffff" stroke-linecap="round"/></g><g stroke-linecap="round"><path d="M269.70468,92.61449l93.79865,-6.76579l-8.30349,90.41574l-87.64792,28.29336l-34.75162,-7.68841z" fill="#ea2020" stroke="none"/><path d="M269.70468,92.61451l14.24724,-1.64996l-16.4,113.59324l-34.75162,-7.68841z" fill="#a71717" stroke="none"/><path d="M269.70468,92.61449l93.79865,-6.76579l-8.30349,90.41574l-87.64792,28.29336l-34.75162,-7.68841z" fill="none" stroke="#000000"/></g><path d="M223.53685,145.26537c-14.21549,5.16625 -29.14319,10.60996 -42.40875,15.21771c-14.77206,5.13105 3.09162,20.69106 -6.3183,21.97542c-6.01484,0.82093 -18.30813,-18.5174 -21.99287,-19.0447c-5.8208,-0.83297 -14.71659,8.87678 -14.71659,8.87678c0,0 -18.49835,-7.99999 -16.05387,-17.69005c2.52039,-9.99098 -6.17981,-20.15266 -7.15189,-25.27978c-1.14371,-6.03263 8.61583,-14.07278 8.61583,-14.07278c0,0 11.14214,-4.04996 26.03814,-6.10584c3.26266,-0.4503 6.39763,3.29359 9.98064,2.5946c14.1494,-2.76035 31.12371,-6.59638 47.21197,-9.99306c29.58258,-6.24572 56.86802,-11.5304 63.02071,-9.61409c7.31858,2.2795 29.78612,24.08381 20.02463,28.18741c0,0 -37.29996,14.42737 -66.24962,24.94837z" data-paper-data="{&quot;index&quot;:null}" fill="#ffe323" stroke="#000000" stroke-linecap="round"/><g stroke-linecap="round"><path d="M273.99803,86.78584c-6.43192,-3.2362 -11.91201,-76.15997 -3.56167,-84.26584c20.5007,-19.90048 81.39832,-17.68265 95.46356,-5.50238c14.99136,12.98229 7.96096,77.16452 2.36865,90.15079c-3.61852,8.4028 -84.94392,4.31011 -94.27053,-0.38255z" fill="#ffe323" stroke="none"/><path d="M273.99803,86.78584c-6.43192,-3.2362 -11.91201,-76.15997 -3.56167,-84.26584c10.47776,-10.17101 -3.30438,43.9784 19.63399,66.668c21.94259,21.70461 80.93234,11.63134 78.19822,17.98041c-3.61852,8.4028 -84.94392,4.31011 -94.27053,-0.38255z" fill="#d6943b" stroke="none"/><path d="M273.99803,86.78584c-6.43192,-3.2362 -11.91201,-76.15997 -3.56167,-84.26584c20.5007,-19.90048 81.39832,-17.68265 95.46356,-5.50238c14.99136,12.98229 7.96096,77.16452 2.36865,90.15079c-3.61852,8.4028 -84.94392,4.31011 -94.27053,-0.38255z" fill="none" stroke="#000000"/></g><path d="M302.27023,37.7488c0,0 2.86934,-24.86392 14.12799,-25.1645c11.25865,-0.30056 29.24609,24.00653 29.24609,24.00653l26.47087,-18.08883" fill="none" stroke="#000000" stroke-linecap="round"/><g fill="none" stroke="#000000" stroke-linecap="round"><path d="M326.65646,32.55076l0.59046,17.00749"/><path d="M359.94124,46.92958l-0.74194,-10.28154"/></g><path d="M363.0114,70.01658c0,0 -1.37534,6.98387 -24.7181,6.84408c-19.47813,-0.11662 -47.74559,-14.97309 -55.94961,-19.39635c-1.62775,-0.87762 -0.66123,0.08519 -0.66123,0.08519c0,0 29.09643,13.65576 29.36985,13.74878c11.49696,3.91082 26.72649,5.33302 26.72649,5.33302" fill="#ffffff" stroke="#000000" stroke-linecap="round"/></g></g></svg>