<svg version="1.1" xmlns="http://www.w3.org/2000/svg" xmlns:xlink="http://www.w3.org/1999/xlink" width="321.24781" height="49.96587" viewBox="0,0,321.24781,49.96587"><defs><linearGradient x1="179.75762" y1="114.21257" x2="293.40393" y2="114.21257" gradientUnits="userSpaceOnUse" id="color-1"><stop offset="0" stop-color="#c50000"/><stop offset="1" stop-color="#c50000" stop-opacity="0"/></linearGradient></defs><g transform="translate(27.84388,-65.80326)"><g data-paper-data="{&quot;isPaintingLayer&quot;:true}" fill-rule="nonzero" stroke-linejoin="miter" stroke-miterlimit="10" stroke-dasharray="" stroke-dashoffset="0" style="mix-blend-mode: normal"><path d="M179.75762,115.18975l28.19807,-36.32791l85.44824,0.57937v36.32791z" data-paper-data="{&quot;index&quot;:null}" fill="url(#color-1)" stroke="none" stroke-width="0" stroke-linecap="butt"/><path d="M-27.84388,115.76913v-38.20584h239.80193l28.19807,38.20584z" fill="#1f1f1f" stroke="none" stroke-width="0" stroke-linecap="butt"/><text transform="translate(7.60002,103.59256) scale(0.5,0.5)" font-size="40" xml:space="preserve" fill="#ffffff" fill-rule="nonzero" stroke="none" stroke-width="1" stroke-linecap="butt" stroke-linejoin="miter" stroke-miterlimit="10" stroke-dasharray="" stroke-dashoffset="0" font-family="Sans Serif" font-weight="normal" text-anchor="start" style="mix-blend-mode: normal"><tspan x="0" dy="0">:baller:breakbeat</tspan></text><text transform="translate(98.07113,112.89785) scale(0.18892,0.18892)" font-size="40" xml:space="preserve" fill="#ffffff" fill-rule="nonzero" stroke="none" stroke-width="1" stroke-linecap="butt" stroke-linejoin="miter" stroke-miterlimit="10" stroke-dasharray="" stroke-dashoffset="0" font-family="Sans Serif" font-weight="normal" text-anchor="start" style="mix-blend-mode: normal"><tspan x="0" dy="0">by: TheShovel and dahyir_of_awswag </tspan></text><g stroke-width="3" stroke-linecap="round"><path d="M225.5577,99.26651c-2.07496,-1.04401 -3.84286,-24.56948 -1.14901,-27.18446c6.6136,-6.41996 26.25939,-5.70449 30.79689,-1.77509c4.83627,4.18813 2.56823,24.89355 0.76414,29.08297c-1.16735,2.71078 -27.40321,1.39045 -30.41201,-0.12341z" fill="#ffe323" stroke="none"/><path d="M225.5577,99.26651c-2.07496,-1.04401 -3.84286,-24.56948 -1.14901,-27.18446c3.38016,-3.28121 -1.066,14.18759 6.33399,21.50733c7.07876,7.00198 26.10906,3.75231 25.22703,5.80054c-1.16735,2.71078 -27.40321,1.39045 -30.41201,-0.12341z" fill="#d6943b" stroke="none"/><path d="M225.5577,99.26651c-2.07496,-1.04401 -3.84286,-24.56948 -1.14901,-27.18446c6.6136,-6.41996 26.25939,-5.70449 30.79689,-1.77509c4.83627,4.18813 2.56823,24.89355 0.76414,29.08297c-1.16735,2.71078 -27.40321,1.39045 -30.41201,-0.12341z" fill="none" stroke="#000000"/></g><path d="M234.67841,83.44699c0,0 0.92566,-8.02119 4.55774,-8.11816c3.63208,-0.09696 9.43489,7.74459 9.43489,7.74459l8.5396,-5.83552" fill="none" stroke="#000000" stroke-width="3" stroke-linecap="round"/><g fill="none" stroke="#000000" stroke-width="3" stroke-linecap="round"><path d="M242.54549,81.77008l0.19049,5.48668"/><path d="M253.28328,86.40874l-0.23935,-3.31686"/></g><path d="M254.27372,93.85669c0,0 -0.44369,2.25302 -7.97415,2.20792c-6.28371,-0.03762 -15.4029,-4.83037 -18.04954,-6.25733c-0.52512,-0.28312 -0.21331,0.02748 -0.21331,0.02748c0,0 9.38661,4.40539 9.47482,4.4354c3.70896,1.26164 8.62206,1.72045 8.62206,1.72045" fill="#ffffff" stroke="#000000" stroke-width="3" stroke-linecap="round"/><g stroke-width="3.5"><path d="M261.54573,89.60862c5.49958,-4.05335 13.24376,-2.88094 17.29711,2.61864c4.05335,5.49958 2.88094,13.24376 -2.61864,17.29711c-5.49958,4.05335 -13.24376,2.88094 -17.29711,-2.61864c-4.05335,-5.49958 -2.88094,-13.24376 2.61864,-17.29711z" fill="#d61313" stroke="#000000" stroke-linecap="butt"/><path d="M266.41111,91.30796c0,0 1.62635,-0.48125 2.43629,-0.54213c0.7494,-0.05633 2.25584,0.18944 2.25584,0.18944" fill="none" stroke="#ffffff" stroke-linecap="round"/></g></g></g></svg>