<svg version="1.1" xmlns="http://www.w3.org/2000/svg" xmlns:xlink="http://www.w3.org/1999/xlink" width="352.61009" height="357.01689" viewBox="0,0,352.61009,357.01689"><g transform="translate(-138.51711,-20.04537)"><g data-paper-data="{&quot;isPaintingLayer&quot;:true}" fill-rule="nonzero" stroke-width="8" stroke-linejoin="miter" stroke-miterlimit="10" stroke-dasharray="" stroke-dashoffset="0" style="mix-blend-mode: normal"><g data-paper-data="{&quot;index&quot;:null}" stroke-linecap="round"><path d="M243.11589,206.48173l39.31784,14.5557l-52.18533,130.29624l-47.0531,21.01245l-38.63708,-15.13076z" data-paper-data="{&quot;index&quot;:null}" fill="#242a3a" stroke="none"/><path d="M238.65768,220.83136l14.80736,3.10295l-71.30468,151.15371l-35.46561,-19.54375z" data-paper-data="{&quot;index&quot;:null}" fill="#1b202d" stroke="none"/><path d="M243.11589,206.8624l39.31784,14.5557l-52.18533,130.29624l-47.0531,21.01245l-38.63708,-15.13076z" data-paper-data="{&quot;index&quot;:null}" fill="none" stroke="#000000"/></g><g fill="#d6943b" stroke="#000000" stroke-linecap="round"><g><path d="M322.69499,166.0235c7.65915,-6.06651 27.64985,-20.69565 49.32385,-36.12436c11.62004,-8.27175 23.72393,-16.77332 34.6708,-24.3084c11.50252,-7.91752 34.29928,-20.22155 34.29928,-20.22155c0,0 18.05837,3.14242 18.39457,12.45511c0.34665,9.60186 10.46102,16.87197 12.60227,21.29743c2.51945,5.20705 -3.90201,14.64713 -3.90201,14.64713c0,0 -8.63048,6.13467 -21.01942,11.29617c-2.71354,1.13051 -6.37889,-1.56363 -9.30708,-0.13702c-12.07909,5.88491 -26.31565,13.22678 -39.93384,20.128c-23.39044,11.85342 -44.9567,22.40678 -50.63334,22.04452c-6.92019,-0.44167 -31.91545,-15.1997 -24.49511,-21.07702z" data-paper-data="{&quot;index&quot;:null}"/><path d="M442.1922,144.24057l-15.61257,-46.35947"/></g><path d="M421.10336,99.77592c0,0 10.99394,20.41276 10.87856,26.63399c-0.11538,6.22126 -2.96632,11.21642 -11.47609,5.58262c-8.50979,-5.63385 -14.03681,-22.47316 -14.03681,-22.47316z"/></g><g stroke-linecap="round"><path d="M419.61785,341.42754l-38.63708,15.13076l-47.0531,-21.01245l-14.53672,-140.20377l39.31784,-14.5557z" data-paper-data="{&quot;index&quot;:null}" fill="#242a3a" stroke="none"/><path d="M380.98075,356.5583l-47.0531,-21.01245l-14.53672,-140.20377l17.70423,-3.68232z" data-paper-data="{&quot;index&quot;:null}" fill="#1b202d" stroke="none"/><path d="M419.61785,341.80821l-38.63708,15.13076l-47.0531,-21.01245l-14.53672,-140.20377l39.31784,-14.5557z" data-paper-data="{&quot;index&quot;:null}" fill="none" stroke="#000000"/></g><g stroke-linecap="round"><path d="M280.28462,119.74419l98.01743,-2.3359l-13.06228,88.79255l-92.66281,23.85281l-35.81687,-9.18991z" fill="#ea2020" stroke="none"/><path d="M280.28461,119.7442l14.91843,-0.96857l-22.62607,111.278l-35.81687,-9.18991z" fill="#a71717" stroke="none"/><path d="M280.28462,119.74419l98.01743,-2.3359l-13.06228,88.79255l-92.66281,23.85281l-35.81687,-9.18991z" fill="none" stroke="#000000"/></g><g stroke-linecap="round"><path d="M287.24755,119.62828c-6.54055,-3.48925 -8.6873,-75.66691 0.40497,-83.27557c22.3222,-18.67978 85.63607,-13.67651 99.68968,-1.01282c14.97897,13.49754 4.52342,76.475 -1.93478,89.0247c-4.17879,8.12031 -88.67574,0.32331 -98.15986,-4.73629z" fill="#ffe323" stroke="none"/><path d="M287.24755,119.62828c-6.54055,-3.48925 -8.6873,-75.66691 0.40497,-83.27557c11.40871,-9.54713 -5.58861,43.22283 17.19285,66.6621c21.79249,22.42173 83.71951,15.21416 80.56205,21.34978c-4.17879,8.12031 -88.67574,0.32331 -98.15986,-4.73629z" fill="#d6943b" stroke="none"/><path d="M287.24755,119.62828c-6.54055,-3.48925 -8.6873,-75.66691 0.40497,-83.27557c22.3222,-18.67978 85.63607,-13.67651 99.68968,-1.01282c14.97897,13.49754 4.52342,76.475 -1.93478,89.0247c-4.17879,8.12031 -88.67574,0.32331 -98.15986,-4.73629z" fill="none" stroke="#000000"/></g><path d="M319.08603,72.57063c0,0 4.20227,-24.39046 15.94233,-24.16632c11.74005,0.22414 29.28637,25.0298 29.28637,25.0298l28.45141,-16.61692" fill="none" stroke="#000000" stroke-linecap="round"/><g fill="none" stroke="#000000" stroke-linecap="round"><path d="M344.52154,85.37311l0.21545,-16.80168"/><path d="M378.69955,84.29222l-0.2707,-10.17492"/></g><path d="M354.16817,112.56208c0,0 -33.9095,5.19875 -45.69212,0.80993c-0.28021,-0.10438 -11.79804,-22.22404 -11.79804,-22.22404c0,0 -0.95958,-0.9943 0.6928,-0.05345c8.32816,4.74198 37.04208,20.70188 57.32199,21.71756c24.30361,1.21722 26.07696,-5.60733 26.07696,-5.60733" fill="#ffffff" stroke="#000000" stroke-linecap="round"/><g><path d="M402.78001,75.30953c24.92451,-16.16717 58.60451,-10.30191 75.22639,13.10038c16.62188,23.4023 9.89126,55.47968 -15.03324,71.64683c-24.92451,16.16717 -58.6045,10.3019 -75.22638,-13.1004c-16.62188,-23.4023 -9.89127,-55.47967 15.03323,-71.64683z" fill="#d61313" stroke="#000000" stroke-linecap="butt"/><path d="M423.7416,83.0009c0,0 7.22298,-1.79555 10.78326,-1.94573c3.29417,-0.13895 9.84214,1.07566 9.84214,1.07566" fill="none" stroke="#ffffff" stroke-linecap="round"/></g><path d="M320.7789,129.69206c13.91435,-7.37854 28.52331,-15.14503 41.53661,-21.82146c14.49116,-7.43467 11.90059,-31.84436 21.39913,-34.63542c6.0715,-1.78401 3.44619,27.2362 7.30457,27.15312c6.09509,-0.13126 13.92902,-11.09723 13.92902,-11.09723c0,0 20.09188,4.82977 18.88613,14.72606c-1.2432,10.2036 9.06941,18.74761 10.75994,23.61498c1.98905,5.72702 -6.95781,15.19707 -6.95781,15.19707c0,0 -10.90602,5.78396 -25.93926,10.22449c-3.29272,0.97261 -7.0198,-2.18675 -10.60824,-0.91822c-14.17085,5.00951 -31.10018,11.53336 -47.17804,17.48228c-29.56345,10.93871 -56.89545,20.56138 -63.47777,19.68476c-7.82962,-1.04278 -33.86268,-18.7574 -24.38296,-24.36914c0,0 36.39225,-20.21495 64.72864,-35.24128z" data-paper-data="{&quot;index&quot;:null}" fill="#ffe323" stroke="#000000" stroke-linecap="round"/></g></g></svg>