<svg version="1.1" xmlns="http://www.w3.org/2000/svg" xmlns:xlink="http://www.w3.org/1999/xlink" width="8.87596" height="43.50347" viewBox="0,0,8.87596,43.50347"><g transform="translate(-315.61042,-157.81862)"><g data-paper-data="{&quot;isPaintingLayer&quot;:true}" fill-rule="nonzero" stroke-linecap="butt" stroke-linejoin="miter" stroke-miterlimit="10" stroke-dasharray="" stroke-dashoffset="0" style="mix-blend-mode: normal"><path d="M317.18466,198.3018c0,0 -0.192,-11.83708 -0.192,-18.02481c0,-5.14519 -0.18413,-14.66286 -0.13234,-18.66739c0.01495,-1.15546 0.32434,-1.85193 0.32434,-1.85193c0,0 0.36482,-0.30151 0.70843,-0.30151c0.69773,0 3.25537,-0.20255 4.44085,-0.11901c0.3735,0.02633 0.61079,0.42052 0.61079,0.42052c0,0 0.27845,0.62149 0.29173,1.77195c0.04383,3.79591 -0.13173,12.60535 -0.13173,17.54036c0,6.4173 -0.16,19.23183 -0.16,19.23183c0,0 -0.85285,1.32603 -1.80652,1.76776c-0.95731,0.44341 -2.01646,0.00253 -2.54553,0.00253c-0.61879,0 -1.40801,-1.7703 -1.40801,-1.7703z" fill="#ff0000" stroke="#ffffff" stroke-width="2.5"/><path d="M317.09004,197.78082c0,0 -0.192,-11.83708 -0.192,-18.02482c0,-5.1452 -0.18413,-14.66286 -0.13234,-18.66739c0.01495,-1.15547 0.32434,-1.85193 0.32434,-1.85193c0,0 0.36482,-0.30152 0.70844,-0.30152c0.69773,0 3.25537,-0.20255 4.44084,-0.11901c0.3735,0.02633 0.61079,0.42053 0.61079,0.42053c0,0 0.27845,0.62148 0.29174,1.77195c0.04383,3.79591 -0.13173,12.60535 -0.13173,17.54035c0,6.4173 -0.16,19.23184 -0.16,19.23184c0,0 -0.85285,1.32603 -1.80652,1.76776c-0.95731,0.44341 -2.01646,0.00253 -2.54553,0.00253c-0.61879,0 -1.40802,-1.7703 -1.40802,-1.7703z" fill="none" stroke="#000000" stroke-width="2"/></g></g></svg>