<svg version="1.1" xmlns="http://www.w3.org/2000/svg" xmlns:xlink="http://www.w3.org/1999/xlink" width="558.62385" height="172.1477" viewBox="0,0,558.62385,172.1477"><defs><radialGradient cx="266.86706" cy="181.90517" r="81.71042" gradientUnits="userSpaceOnUse" id="color-1"><stop offset="0" stop-color="#ff0318" stop-opacity="0.40392"/><stop offset="1" stop-color="#ff0318" stop-opacity="0"/></radialGradient><radialGradient cx="204.38908" cy="82.90448" r="0.00125" gradientUnits="userSpaceOnUse" id="color-2"><stop offset="0" stop-color="#ff0318" stop-opacity="0.40392"/><stop offset="1" stop-color="#ff0318" stop-opacity="0"/></radialGradient><radialGradient cx="35.59634" cy="146.97248" r="55.50459" gradientUnits="userSpaceOnUse" id="color-3"><stop offset="0" stop-color="#ff0318" stop-opacity="0.40392"/><stop offset="1" stop-color="#ff0318" stop-opacity="0"/></radialGradient><radialGradient cx="62.61469" cy="203.34862" r="55.50459" gradientUnits="userSpaceOnUse" id="color-4"><stop offset="0" stop-color="#ff0318" stop-opacity="0.40392"/><stop offset="1" stop-color="#ff0318" stop-opacity="0"/></radialGradient><radialGradient cx="483.21102" cy="201.9266" r="55.50458" gradientUnits="userSpaceOnUse" id="color-5"><stop offset="0" stop-color="#ff0318" stop-opacity="0.40392"/><stop offset="1" stop-color="#ff0318" stop-opacity="0"/></radialGradient></defs><g transform="translate(19.90824,-91.46789)"><g data-paper-data="{&quot;isPaintingLayer&quot;:true}" fill-rule="nonzero" stroke="none" stroke-width="0" stroke-linecap="butt" stroke-linejoin="miter" stroke-miterlimit="10" stroke-dasharray="" stroke-dashoffset="0" style="mix-blend-mode: normal"><path d="M185.15666,181.90517c0,-45.12741 36.583,-81.71042 81.71041,-81.71042c45.12741,0 81.71042,36.583 81.71042,81.71042c0,45.12741 -36.583,81.71042 -81.71042,81.71042c-45.12741,0 -81.71041,-36.583 -81.71041,-81.71042z" fill="url(#color-1)"/><path d="M408.77816,165.80895v0v0v0z" fill="url(#color-2)"/><path d="M-19.90824,146.97248c0,-30.65434 24.85025,-55.50459 55.50459,-55.50459c30.65433,0 55.50459,24.85025 55.50459,55.50459c0,30.65434 -24.85025,55.50459 -55.50458,55.50459c-30.65433,0 -55.50459,-24.85026 -55.50459,-55.50459z" fill="url(#color-3)"/><path d="M7.1101,203.34862c0,-30.65434 24.85025,-55.50458 55.50459,-55.50458c30.65433,0 55.50459,24.85025 55.50459,55.50458c0,30.65434 -24.85025,55.50459 -55.50459,55.50459c-30.65434,0 -55.50459,-24.85025 -55.50459,-55.50459z" fill="url(#color-4)"/><path d="M427.70644,201.9266c0,-30.65434 24.85025,-55.50459 55.50459,-55.50459c30.65433,0 55.50458,24.85025 55.50458,55.50459c0,30.65434 -24.85025,55.50459 -55.50458,55.50459c-30.65434,0 -55.50459,-24.85026 -55.50459,-55.50459z" fill="url(#color-5)"/></g></g></svg>