<svg version="1.1" xmlns="http://www.w3.org/2000/svg" xmlns:xlink="http://www.w3.org/1999/xlink" width="8.61207" height="43.38691" viewBox="0,0,8.61207,43.38691"><g transform="translate(-315.74266,-157.93516)"><g data-paper-data="{&quot;isPaintingLayer&quot;:true}" fill-rule="nonzero" stroke-linecap="butt" stroke-linejoin="miter" stroke-miterlimit="10" stroke-dasharray="" stroke-dashoffset="0" style="mix-blend-mode: normal"><path d="M317.18466,198.30179c0,0 -0.192,-11.83708 -0.192,-18.02482c0,-5.14519 -0.18413,-14.66286 -0.13234,-18.66739c0.01494,-1.15546 0.32434,-1.85193 0.32434,-1.85193c0,0 0.36482,-0.30152 0.70843,-0.30152c0.69773,0 3.25537,-0.20255 4.44084,-0.11901c0.3735,0.02632 0.6108,0.42053 0.6108,0.42053c0,0 0.27845,0.62148 0.29173,1.77195c0.04383,3.79591 -0.13173,12.60535 -0.13173,17.54035c0,6.4173 -0.16,19.23183 -0.16,19.23183c0,0 -0.85285,1.32603 -1.80652,1.76776c-0.95731,0.44342 -2.01646,0.00253 -2.54553,0.00253c-0.61879,0 -1.40802,-1.77029 -1.40802,-1.77029z" fill="#0aff00" stroke="#ffffff" stroke-width="2.5"/><path d="M317.09004,197.78082c0,0 -0.192,-11.83708 -0.192,-18.02482c0,-5.1452 -0.18413,-14.66286 -0.13234,-18.66739c0.01494,-1.15547 0.32434,-1.85193 0.32434,-1.85193c0,0 0.36482,-0.30152 0.70843,-0.30152c0.69773,0 3.25537,-0.20255 4.44084,-0.11901c0.3735,0.02632 0.6108,0.42053 0.6108,0.42053c0,0 0.27845,0.62148 0.29173,1.77195c0.04383,3.79591 -0.13173,12.60535 -0.13173,17.54035c0,6.4173 -0.16,19.23183 -0.16,19.23183c0,0 -0.85285,1.32603 -1.80652,1.76776c-0.95731,0.44342 -2.01646,0.00253 -2.54553,0.00253c-0.61879,0 -1.40802,-1.77029 -1.40802,-1.77029z" fill="none" stroke="#000000" stroke-width="2"/></g></g></svg>