<svg version="1.1" xmlns="http://www.w3.org/2000/svg" xmlns:xlink="http://www.w3.org/1999/xlink" width="37.89514" height="39.63619" viewBox="0,0,37.89514,39.63619"><g transform="translate(-301.05243,-160.12886)"><g data-paper-data="{&quot;isPaintingLayer&quot;:true}" fill-rule="nonzero" stroke-linecap="butt" stroke-linejoin="miter" stroke-miterlimit="10" stroke-dasharray="" stroke-dashoffset="0" style="mix-blend-mode: normal"><path d="M314.6694,166.87687c0.90631,-1.2299 3.54839,-3.68549 3.54839,-3.68549c0,0 17.99967,8.84104 18.01208,16.06136c0.01181,6.87269 -16.19318,17.55591 -16.19318,17.55591c0,0 -2.69378,-1.14523 -3.89304,-2.11266c-1.3086,-1.05565 -3.65918,-3.97968 -3.65918,-3.97968l5.99003,-5.00624c0,0 -4.24418,0.24338 -6.45762,0.25412c-2.34234,0.01137 -7.23162,-0.1877 -7.23162,-0.1877c0,0 -1.01514,-3.95945 -1.01514,-5.85906c0,-1.43102 1.58741,-5.63909 1.58741,-5.63909c0,0 4.61296,-0.12346 6.89144,-0.0744c2.24177,0.04827 6.67112,0.36644 6.67112,0.36644l-5.8845,-4.34653c0,0 0.8235,-2.24735 1.63382,-3.34698z" data-paper-data="{&quot;index&quot;:null}" fill="#ffffff" stroke="#ffffff" stroke-width="2"/><path d="M314.26947,165.89227c0.97432,-1.32219 3.81462,-3.96201 3.81462,-3.96201c0,0 19.35014,9.50437 19.36348,17.26641c0.0127,7.38833 -17.40811,18.87309 -17.40811,18.87309c0,0 -2.8959,-1.23114 -4.18513,-2.27116c-1.40678,-1.13484 -3.93372,-4.27826 -3.93372,-4.27826l6.43944,-5.38185c0,0 -4.56261,0.26165 -6.94212,0.2732c-2.51807,0.01221 -7.77419,-0.20179 -7.77419,-0.20179c0,0 -1.09131,-4.25651 -1.09131,-6.29865c0,-1.53839 1.70651,-6.06218 1.70651,-6.06218c0,0 4.95905,-0.13273 7.40849,-0.07999c2.40996,0.0519 7.17164,0.39394 7.17164,0.39394l-6.326,-4.67265c0,0 0.88529,-2.41595 1.7564,-3.59809z" data-paper-data="{&quot;index&quot;:null}" fill="none" stroke="#000000" stroke-width="3"/><text transform="translate(315.53,185.76875) scale(0.5,0.5)" font-size="40" xml:space="preserve" fill="#ff6666" fill-rule="nonzero" stroke="none" stroke-width="1" stroke-linecap="butt" stroke-linejoin="miter" stroke-miterlimit="10" stroke-dasharray="" stroke-dashoffset="0" font-family="Sans Serif" font-weight="normal" text-anchor="start" style="mix-blend-mode: normal"><tspan x="0" dy="0">?</tspan></text></g></g></svg>